STARTFONT 2.1
COMMENT
COMMENT Converted from OpenType font "Ubuntu-Regular.ttf" by "otf2bdf 3.0".
COMMENT
FONT -FreeType-Ubuntu-Medium-R-Normal--10-70-100-100-P-55-ISO10646-1
SIZE 7 100 100
FONTBOUNDINGBOX 35 11 -1 -2
STARTPROPERTIES 19
FOUNDRY "FreeType"
FAMILY_NAME "Ubuntu"
WEIGHT_NAME "Medium"
SLANT "R"
SETWIDTH_NAME "Normal"
ADD_STYLE_NAME ""
PIXEL_SIZE 10
POINT_SIZE 70
RESOLUTION_X 100
RESOLUTION_Y 100
SPACING "P"
AVERAGE_WIDTH 55
CHARSET_REGISTRY "ISO10646"
CHARSET_ENCODING "1"
FONT_ASCENT 9
FONT_DESCENT 1
COPYRIGHT "Copyright 2011 Canonical Ltd.  Licensed under the Ubuntu Font Licence 1.0"
_OTF_FONTFILE "Ubuntu-Regular.ttf"
_OTF_PSNAME "Ubuntu-Regular"
ENDPROPERTIES
CHARS 1194
STARTCHAR 0000
ENCODING 0
SWIDTH 0 0
DWIDTH 0 0
BBX 0 0 0 0
BITMAP
ENDCHAR
STARTCHAR 0008
ENCODING 8
SWIDTH 0 0
DWIDTH 0 0
BBX 0 0 0 0
BITMAP
ENDCHAR
STARTCHAR 0009
ENCODING 9
SWIDTH 205 0
DWIDTH 2 0
BBX 0 0 0 0
BITMAP
ENDCHAR
STARTCHAR 000D
ENCODING 13
SWIDTH 205 0
DWIDTH 2 0
BBX 0 0 0 0
BITMAP
ENDCHAR
STARTCHAR 001D
ENCODING 29
SWIDTH 0 0
DWIDTH 0 0
BBX 0 0 0 0
BITMAP
ENDCHAR
STARTCHAR 0020
ENCODING 32
SWIDTH 205 0
DWIDTH 2 0
BBX 0 0 0 0
BITMAP
ENDCHAR
STARTCHAR 0021
ENCODING 33
SWIDTH 205 0
DWIDTH 2 0
BBX 1 7 1 0
BITMAP
80
80
80
80
80
00
80
ENDCHAR
STARTCHAR 0022
ENCODING 34
SWIDTH 411 0
DWIDTH 4 0
BBX 2 2 1 5
BITMAP
C0
C0
ENDCHAR
STARTCHAR 0023
ENCODING 35
SWIDTH 617 0
DWIDTH 6 0
BBX 6 7 0 0
BITMAP
20
28
FC
48
FC
50
50
ENDCHAR
STARTCHAR 0024
ENCODING 36
SWIDTH 514 0
DWIDTH 5 0
BBX 4 9 1 -1
BITMAP
40
40
A0
80
E0
10
10
E0
40
ENDCHAR
STARTCHAR 0025
ENCODING 37
SWIDTH 822 0
DWIDTH 8 0
BBX 8 7 0 0
BITMAP
64
94
98
68
17
15
27
ENDCHAR
STARTCHAR 0026
ENCODING 38
SWIDTH 617 0
DWIDTH 6 0
BBX 6 7 0 0
BITMAP
30
48
50
60
54
88
74
ENDCHAR
STARTCHAR 0027
ENCODING 39
SWIDTH 205 0
DWIDTH 2 0
BBX 1 2 1 5
BITMAP
80
80
ENDCHAR
STARTCHAR 0028
ENCODING 40
SWIDTH 308 0
DWIDTH 3 0
BBX 2 10 1 -2
BITMAP
40
40
80
80
80
80
80
80
40
40
ENDCHAR
STARTCHAR 0029
ENCODING 41
SWIDTH 308 0
DWIDTH 3 0
BBX 2 9 0 -1
BITMAP
80
40
40
40
40
40
40
40
80
ENDCHAR
STARTCHAR 002A
ENCODING 42
SWIDTH 411 0
DWIDTH 4 0
BBX 3 4 1 3
BITMAP
40
60
C0
A0
ENDCHAR
STARTCHAR 002B
ENCODING 43
SWIDTH 514 0
DWIDTH 5 0
BBX 3 4 1 1
BITMAP
40
40
E0
40
ENDCHAR
STARTCHAR 002C
ENCODING 44
SWIDTH 205 0
DWIDTH 2 0
BBX 1 2 1 -2
BITMAP
80
80
ENDCHAR
STARTCHAR 002D
ENCODING 45
SWIDTH 205 0
DWIDTH 2 0
BBX 3 1 0 2
BITMAP
E0
ENDCHAR
STARTCHAR 002E
ENCODING 46
SWIDTH 205 0
DWIDTH 2 0
BBX 1 1 1 0
BITMAP
80
ENDCHAR
STARTCHAR 002F
ENCODING 47
SWIDTH 308 0
DWIDTH 3 0
BBX 4 10 0 -2
BITMAP
10
10
20
20
20
40
40
80
80
80
ENDCHAR
STARTCHAR 0030
ENCODING 48
SWIDTH 514 0
DWIDTH 5 0
BBX 5 7 0 0
BITMAP
30
48
48
88
88
48
70
ENDCHAR
STARTCHAR 0031
ENCODING 49
SWIDTH 514 0
DWIDTH 5 0
BBX 3 7 1 0
BITMAP
20
E0
20
20
20
20
20
ENDCHAR
STARTCHAR 0032
ENCODING 50
SWIDTH 514 0
DWIDTH 5 0
BBX 4 7 1 0
BITMAP
E0
20
20
20
40
80
F0
ENDCHAR
STARTCHAR 0033
ENCODING 51
SWIDTH 514 0
DWIDTH 5 0
BBX 4 7 1 0
BITMAP
E0
20
20
60
10
10
E0
ENDCHAR
STARTCHAR 0034
ENCODING 52
SWIDTH 514 0
DWIDTH 5 0
BBX 5 7 0 0
BITMAP
10
30
50
50
90
78
10
ENDCHAR
STARTCHAR 0035
ENCODING 53
SWIDTH 514 0
DWIDTH 5 0
BBX 4 7 1 0
BITMAP
F0
80
80
E0
10
10
E0
ENDCHAR
STARTCHAR 0036
ENCODING 54
SWIDTH 514 0
DWIDTH 5 0
BBX 4 7 1 0
BITMAP
30
C0
80
F0
90
90
E0
ENDCHAR
STARTCHAR 0037
ENCODING 55
SWIDTH 514 0
DWIDTH 5 0
BBX 4 7 1 0
BITMAP
F0
20
20
40
40
40
40
ENDCHAR
STARTCHAR 0038
ENCODING 56
SWIDTH 514 0
DWIDTH 5 0
BBX 4 7 1 0
BITMAP
E0
90
90
60
90
90
E0
ENDCHAR
STARTCHAR 0039
ENCODING 57
SWIDTH 514 0
DWIDTH 5 0
BBX 5 7 0 0
BITMAP
70
48
88
48
38
10
60
ENDCHAR
STARTCHAR 003A
ENCODING 58
SWIDTH 205 0
DWIDTH 2 0
BBX 1 5 1 0
BITMAP
80
00
00
00
80
ENDCHAR
STARTCHAR 003B
ENCODING 59
SWIDTH 205 0
DWIDTH 2 0
BBX 1 6 1 -2
BITMAP
80
00
00
00
80
80
ENDCHAR
STARTCHAR 003C
ENCODING 60
SWIDTH 514 0
DWIDTH 5 0
BBX 4 4 1 1
BITMAP
30
C0
C0
30
ENDCHAR
STARTCHAR 003D
ENCODING 61
SWIDTH 514 0
DWIDTH 5 0
BBX 4 3 1 1
BITMAP
E0
00
F0
ENDCHAR
STARTCHAR 003E
ENCODING 62
SWIDTH 514 0
DWIDTH 5 0
BBX 4 4 1 1
BITMAP
80
60
30
C0
ENDCHAR
STARTCHAR 003F
ENCODING 63
SWIDTH 308 0
DWIDTH 3 0
BBX 4 7 0 0
BITMAP
E0
10
20
20
40
00
40
ENDCHAR
STARTCHAR 0040
ENCODING 64
SWIDTH 925 0
DWIDTH 9 0
BBX 8 8 1 -1
BITMAP
3C
42
BA
A9
A9
AA
94
78
ENDCHAR
STARTCHAR 0041
ENCODING 65
SWIDTH 617 0
DWIDTH 6 0
BBX 6 7 0 0
BITMAP
10
30
28
48
78
44
84
ENDCHAR
STARTCHAR 0042
ENCODING 66
SWIDTH 617 0
DWIDTH 6 0
BBX 5 7 1 0
BITMAP
E0
90
90
F0
88
88
F0
ENDCHAR
STARTCHAR 0043
ENCODING 67
SWIDTH 617 0
DWIDTH 6 0
BBX 5 7 1 0
BITMAP
78
80
80
80
80
80
78
ENDCHAR
STARTCHAR 0044
ENCODING 68
SWIDTH 617 0
DWIDTH 6 0
BBX 5 7 1 0
BITMAP
E0
98
88
88
88
88
F0
ENDCHAR
STARTCHAR 0045
ENCODING 69
SWIDTH 514 0
DWIDTH 5 0
BBX 4 7 1 0
BITMAP
F0
80
80
F0
80
80
F0
ENDCHAR
STARTCHAR 0046
ENCODING 70
SWIDTH 514 0
DWIDTH 5 0
BBX 4 7 1 0
BITMAP
F0
80
80
F0
80
80
80
ENDCHAR
STARTCHAR 0047
ENCODING 71
SWIDTH 617 0
DWIDTH 6 0
BBX 5 7 1 0
BITMAP
78
80
80
80
88
88
78
ENDCHAR
STARTCHAR 0048
ENCODING 72
SWIDTH 617 0
DWIDTH 6 0
BBX 5 7 1 0
BITMAP
88
88
88
F8
88
88
88
ENDCHAR
STARTCHAR 0049
ENCODING 73
SWIDTH 205 0
DWIDTH 2 0
BBX 1 7 1 0
BITMAP
80
80
80
80
80
80
80
ENDCHAR
STARTCHAR 004A
ENCODING 74
SWIDTH 411 0
DWIDTH 4 0
BBX 4 7 0 0
BITMAP
10
10
10
10
10
10
F0
ENDCHAR
STARTCHAR 004B
ENCODING 75
SWIDTH 617 0
DWIDTH 6 0
BBX 5 7 1 0
BITMAP
98
90
A0
C0
A0
90
88
ENDCHAR
STARTCHAR 004C
ENCODING 76
SWIDTH 514 0
DWIDTH 5 0
BBX 4 7 1 0
BITMAP
80
80
80
80
80
80
F0
ENDCHAR
STARTCHAR 004D
ENCODING 77
SWIDTH 822 0
DWIDTH 8 0
BBX 7 7 1 0
BITMAP
84
C4
CA
AA
B2
92
82
ENDCHAR
STARTCHAR 004E
ENCODING 78
SWIDTH 720 0
DWIDTH 7 0
BBX 5 7 1 0
BITMAP
88
C8
C8
A8
98
88
88
ENDCHAR
STARTCHAR 004F
ENCODING 79
SWIDTH 720 0
DWIDTH 7 0
BBX 6 7 1 0
BITMAP
70
88
84
84
84
8C
78
ENDCHAR
STARTCHAR 0050
ENCODING 80
SWIDTH 514 0
DWIDTH 5 0
BBX 5 7 1 0
BITMAP
E0
90
88
90
E0
80
80
ENDCHAR
STARTCHAR 0051
ENCODING 81
SWIDTH 720 0
DWIDTH 7 0
BBX 6 9 1 -2
BITMAP
70
88
84
84
84
8C
78
10
08
ENDCHAR
STARTCHAR 0052
ENCODING 82
SWIDTH 617 0
DWIDTH 6 0
BBX 5 7 1 0
BITMAP
E0
90
88
90
E0
90
88
ENDCHAR
STARTCHAR 0053
ENCODING 83
SWIDTH 514 0
DWIDTH 5 0
BBX 5 7 0 0
BITMAP
78
40
40
70
18
08
F0
ENDCHAR
STARTCHAR 0054
ENCODING 84
SWIDTH 514 0
DWIDTH 5 0
BBX 5 7 0 0
BITMAP
F8
20
20
20
20
20
20
ENDCHAR
STARTCHAR 0055
ENCODING 85
SWIDTH 617 0
DWIDTH 6 0
BBX 5 7 1 0
BITMAP
88
88
88
88
88
88
70
ENDCHAR
STARTCHAR 0056
ENCODING 86
SWIDTH 617 0
DWIDTH 6 0
BBX 6 7 0 0
BITMAP
84
44
48
48
28
30
10
ENDCHAR
STARTCHAR 0057
ENCODING 87
SWIDTH 925 0
DWIDTH 9 0
BBX 9 7 0 0
BITMAP
8080
8880
5900
5500
5500
6500
2200
ENDCHAR
STARTCHAR 0058
ENCODING 88
SWIDTH 617 0
DWIDTH 6 0
BBX 6 7 0 0
BITMAP
C4
48
30
30
30
48
C4
ENDCHAR
STARTCHAR 0059
ENCODING 89
SWIDTH 514 0
DWIDTH 5 0
BBX 6 7 0 0
BITMAP
84
48
50
30
20
20
20
ENDCHAR
STARTCHAR 005A
ENCODING 90
SWIDTH 514 0
DWIDTH 5 0
BBX 5 7 0 0
BITMAP
F8
08
10
20
40
40
F8
ENDCHAR
STARTCHAR 005B
ENCODING 91
SWIDTH 308 0
DWIDTH 3 0
BBX 2 10 1 -2
BITMAP
C0
80
80
80
80
80
80
80
80
C0
ENDCHAR
STARTCHAR 005C
ENCODING 92
SWIDTH 308 0
DWIDTH 3 0
BBX 4 10 0 -2
BITMAP
80
80
80
40
40
40
20
20
10
10
ENDCHAR
STARTCHAR 005D
ENCODING 93
SWIDTH 308 0
DWIDTH 3 0
BBX 2 10 0 -2
BITMAP
C0
40
40
40
40
40
40
40
40
C0
ENDCHAR
STARTCHAR 005E
ENCODING 94
SWIDTH 514 0
DWIDTH 5 0
BBX 5 4 0 3
BITMAP
20
30
50
88
ENDCHAR
STARTCHAR 005F
ENCODING 95
SWIDTH 411 0
DWIDTH 4 0
BBX 5 1 0 -2
BITMAP
F8
ENDCHAR
STARTCHAR 0060
ENCODING 96
SWIDTH 308 0
DWIDTH 3 0
BBX 1 1 1 7
BITMAP
80
ENDCHAR
STARTCHAR 0061
ENCODING 97
SWIDTH 514 0
DWIDTH 5 0
BBX 4 5 0 0
BITMAP
70
10
70
90
70
ENDCHAR
STARTCHAR 0062
ENCODING 98
SWIDTH 514 0
DWIDTH 5 0
BBX 4 8 1 0
BITMAP
80
80
80
F0
90
90
90
E0
ENDCHAR
STARTCHAR 0063
ENCODING 99
SWIDTH 411 0
DWIDTH 4 0
BBX 4 5 0 0
BITMAP
70
40
80
40
70
ENDCHAR
STARTCHAR 0064
ENCODING 100
SWIDTH 514 0
DWIDTH 5 0
BBX 5 7 0 1
BITMAP
08
08
78
48
88
48
78
ENDCHAR
STARTCHAR 0065
ENCODING 101
SWIDTH 514 0
DWIDTH 5 0
BBX 5 5 0 0
BITMAP
70
48
F8
40
78
ENDCHAR
STARTCHAR 0066
ENCODING 102
SWIDTH 308 0
DWIDTH 3 0
BBX 3 8 1 0
BITMAP
40
80
80
E0
80
80
80
80
ENDCHAR
STARTCHAR 0067
ENCODING 103
SWIDTH 514 0
DWIDTH 5 0
BBX 5 7 0 -2
BITMAP
78
48
88
48
78
08
70
ENDCHAR
STARTCHAR 0068
ENCODING 104
SWIDTH 514 0
DWIDTH 5 0
BBX 4 8 1 0
BITMAP
80
80
80
E0
90
90
90
90
ENDCHAR
STARTCHAR 0069
ENCODING 105
SWIDTH 205 0
DWIDTH 2 0
BBX 1 7 1 0
BITMAP
80
00
80
80
80
80
80
ENDCHAR
STARTCHAR 006A
ENCODING 106
SWIDTH 205 0
DWIDTH 2 0
BBX 3 9 -1 -2
BITMAP
20
00
20
20
20
20
20
20
C0
ENDCHAR
STARTCHAR 006B
ENCODING 107
SWIDTH 514 0
DWIDTH 5 0
BBX 4 8 1 0
BITMAP
80
80
80
A0
C0
C0
A0
90
ENDCHAR
STARTCHAR 006C
ENCODING 108
SWIDTH 205 0
DWIDTH 2 0
BBX 1 8 1 0
BITMAP
80
80
80
80
80
80
80
80
ENDCHAR
STARTCHAR 006D
ENCODING 109
SWIDTH 822 0
DWIDTH 8 0
BBX 7 5 1 0
BITMAP
FC
92
92
92
92
ENDCHAR
STARTCHAR 006E
ENCODING 110
SWIDTH 514 0
DWIDTH 5 0
BBX 4 5 1 0
BITMAP
E0
90
90
90
90
ENDCHAR
STARTCHAR 006F
ENCODING 111
SWIDTH 514 0
DWIDTH 5 0
BBX 5 5 0 0
BITMAP
78
48
88
48
70
ENDCHAR
STARTCHAR 0070
ENCODING 112
SWIDTH 514 0
DWIDTH 5 0
BBX 4 7 1 -2
BITMAP
E0
90
90
90
F0
80
80
ENDCHAR
STARTCHAR 0071
ENCODING 113
SWIDTH 514 0
DWIDTH 5 0
BBX 5 7 0 -2
BITMAP
78
48
88
48
78
08
08
ENDCHAR
STARTCHAR 0072
ENCODING 114
SWIDTH 308 0
DWIDTH 3 0
BBX 3 5 1 0
BITMAP
E0
80
80
80
80
ENDCHAR
STARTCHAR 0073
ENCODING 115
SWIDTH 411 0
DWIDTH 4 0
BBX 4 5 0 0
BITMAP
70
80
60
10
F0
ENDCHAR
STARTCHAR 0074
ENCODING 116
SWIDTH 308 0
DWIDTH 3 0
BBX 3 7 1 0
BITMAP
80
80
E0
80
80
80
E0
ENDCHAR
STARTCHAR 0075
ENCODING 117
SWIDTH 514 0
DWIDTH 5 0
BBX 4 5 1 0
BITMAP
90
90
90
90
F0
ENDCHAR
STARTCHAR 0076
ENCODING 118
SWIDTH 411 0
DWIDTH 4 0
BBX 5 5 0 0
BITMAP
88
50
50
50
20
ENDCHAR
STARTCHAR 0077
ENCODING 119
SWIDTH 720 0
DWIDTH 7 0
BBX 7 5 0 0
BITMAP
92
5A
6A
6C
24
ENDCHAR
STARTCHAR 0078
ENCODING 120
SWIDTH 411 0
DWIDTH 4 0
BBX 5 5 0 0
BITMAP
50
50
20
50
88
ENDCHAR
STARTCHAR 0079
ENCODING 121
SWIDTH 411 0
DWIDTH 4 0
BBX 5 7 0 -2
BITMAP
88
50
50
50
20
20
C0
ENDCHAR
STARTCHAR 007A
ENCODING 122
SWIDTH 411 0
DWIDTH 4 0
BBX 4 5 0 0
BITMAP
F0
20
20
40
F0
ENDCHAR
STARTCHAR 007B
ENCODING 123
SWIDTH 308 0
DWIDTH 3 0
BBX 2 10 1 -2
BITMAP
40
80
80
80
80
80
80
80
80
40
ENDCHAR
STARTCHAR 007C
ENCODING 124
SWIDTH 205 0
DWIDTH 2 0
BBX 1 10 1 -2
BITMAP
80
80
80
80
80
80
80
80
80
80
ENDCHAR
STARTCHAR 007D
ENCODING 125
SWIDTH 308 0
DWIDTH 3 0
BBX 2 10 0 -2
BITMAP
80
40
40
40
40
40
40
40
40
80
ENDCHAR
STARTCHAR 007E
ENCODING 126
SWIDTH 514 0
DWIDTH 5 0
BBX 5 2 0 2
BITMAP
48
B8
ENDCHAR
STARTCHAR 00A0
ENCODING 160
SWIDTH 205 0
DWIDTH 2 0
BBX 0 0 0 0
BITMAP
ENDCHAR
STARTCHAR 00A1
ENCODING 161
SWIDTH 205 0
DWIDTH 2 0
BBX 1 7 1 -2
BITMAP
80
00
80
80
80
80
80
ENDCHAR
STARTCHAR 00A2
ENCODING 162
SWIDTH 514 0
DWIDTH 5 0
BBX 4 8 1 -1
BITMAP
20
20
C0
80
80
80
70
20
ENDCHAR
STARTCHAR 00A3
ENCODING 163
SWIDTH 514 0
DWIDTH 5 0
BBX 4 7 1 0
BITMAP
70
40
80
E0
80
80
F0
ENDCHAR
STARTCHAR 00A4
ENCODING 164
SWIDTH 514 0
DWIDTH 5 0
BBX 4 5 1 1
BITMAP
10
E0
90
A0
50
ENDCHAR
STARTCHAR 00A5
ENCODING 165
SWIDTH 514 0
DWIDTH 5 0
BBX 5 7 0 0
BITMAP
88
48
50
20
70
78
20
ENDCHAR
STARTCHAR 00A6
ENCODING 166
SWIDTH 205 0
DWIDTH 2 0
BBX 1 10 1 -2
BITMAP
80
80
80
80
00
00
80
80
80
80
ENDCHAR
STARTCHAR 00A7
ENCODING 167
SWIDTH 411 0
DWIDTH 4 0
BBX 4 8 0 -1
BITMAP
70
40
60
90
D0
30
10
70
ENDCHAR
STARTCHAR 00A8
ENCODING 168
SWIDTH 308 0
DWIDTH 3 0
BBX 3 1 0 6
BITMAP
A0
ENDCHAR
STARTCHAR 00A9
ENCODING 169
SWIDTH 720 0
DWIDTH 7 0
BBX 6 7 1 0
BITMAP
78
84
F4
C4
C4
B4
78
ENDCHAR
STARTCHAR 00AA
ENCODING 170
SWIDTH 308 0
DWIDTH 3 0
BBX 3 4 0 3
BITMAP
60
20
E0
60
ENDCHAR
STARTCHAR 00AB
ENCODING 171
SWIDTH 411 0
DWIDTH 4 0
BBX 4 3 0 2
BITMAP
50
F0
50
ENDCHAR
STARTCHAR 00AC
ENCODING 172
SWIDTH 514 0
DWIDTH 5 0
BBX 4 3 1 1
BITMAP
F0
10
10
ENDCHAR
STARTCHAR 00AD
ENCODING 173
SWIDTH 205 0
DWIDTH 2 0
BBX 3 1 0 2
BITMAP
E0
ENDCHAR
STARTCHAR 00AE
ENCODING 174
SWIDTH 720 0
DWIDTH 7 0
BBX 6 7 1 0
BITMAP
78
84
F4
D4
F4
8C
78
ENDCHAR
STARTCHAR 00AF
ENCODING 175
SWIDTH 308 0
DWIDTH 3 0
BBX 3 1 0 6
BITMAP
E0
ENDCHAR
STARTCHAR 00B0
ENCODING 176
SWIDTH 308 0
DWIDTH 3 0
BBX 3 3 0 5
BITMAP
40
A0
E0
ENDCHAR
STARTCHAR 00B1
ENCODING 177
SWIDTH 514 0
DWIDTH 5 0
BBX 4 6 1 0
BITMAP
40
40
F0
40
40
F0
ENDCHAR
STARTCHAR 00B2
ENCODING 178
SWIDTH 308 0
DWIDTH 3 0
BBX 3 4 0 3
BITMAP
E0
20
40
E0
ENDCHAR
STARTCHAR 00B3
ENCODING 179
SWIDTH 308 0
DWIDTH 3 0
BBX 3 4 0 3
BITMAP
E0
20
20
E0
ENDCHAR
STARTCHAR 00B4
ENCODING 180
SWIDTH 308 0
DWIDTH 3 0
BBX 1 2 2 6
BITMAP
80
80
ENDCHAR
STARTCHAR 00B5
ENCODING 181
SWIDTH 514 0
DWIDTH 5 0
BBX 4 7 1 -2
BITMAP
90
90
90
90
F0
80
80
ENDCHAR
STARTCHAR 00B6
ENCODING 182
SWIDTH 617 0
DWIDTH 6 0
BBX 5 8 0 -2
BITMAP
38
68
E8
68
28
28
28
28
ENDCHAR
STARTCHAR 00B7
ENCODING 183
SWIDTH 205 0
DWIDTH 2 0
BBX 1 1 1 3
BITMAP
80
ENDCHAR
STARTCHAR 00B8
ENCODING 184
SWIDTH 308 0
DWIDTH 3 0
BBX 1 2 1 -2
BITMAP
80
80
ENDCHAR
STARTCHAR 00B9
ENCODING 185
SWIDTH 308 0
DWIDTH 3 0
BBX 1 3 1 3
BITMAP
80
80
80
ENDCHAR
STARTCHAR 00BA
ENCODING 186
SWIDTH 411 0
DWIDTH 4 0
BBX 4 4 0 3
BITMAP
60
90
90
60
ENDCHAR
STARTCHAR 00BB
ENCODING 187
SWIDTH 411 0
DWIDTH 4 0
BBX 4 4 0 1
BITMAP
A0
50
50
50
ENDCHAR
STARTCHAR 00BC
ENCODING 188
SWIDTH 822 0
DWIDTH 8 0
BBX 7 7 1 0
BITMAP
80
88
90
12
26
2E
42
ENDCHAR
STARTCHAR 00BD
ENCODING 189
SWIDTH 822 0
DWIDTH 8 0
BBX 7 7 1 0
BITMAP
88
88
90
1E
22
44
4E
ENDCHAR
STARTCHAR 00BE
ENCODING 190
SWIDTH 822 0
DWIDTH 8 0
BBX 8 7 0 0
BITMAP
E2
24
28
E9
13
17
21
ENDCHAR
STARTCHAR 00BF
ENCODING 191
SWIDTH 308 0
DWIDTH 3 0
BBX 4 7 0 -2
BITMAP
20
00
20
40
40
80
70
ENDCHAR
STARTCHAR 00C0
ENCODING 192
SWIDTH 617 0
DWIDTH 6 0
BBX 6 9 0 0
BITMAP
20
10
10
30
28
48
78
44
84
ENDCHAR
STARTCHAR 00C1
ENCODING 193
SWIDTH 617 0
DWIDTH 6 0
BBX 6 9 0 0
BITMAP
10
00
10
30
28
48
78
44
84
ENDCHAR
STARTCHAR 00C2
ENCODING 194
SWIDTH 617 0
DWIDTH 6 0
BBX 6 9 0 0
BITMAP
10
20
10
30
28
48
78
44
84
ENDCHAR
STARTCHAR 00C3
ENCODING 195
SWIDTH 617 0
DWIDTH 6 0
BBX 6 9 0 0
BITMAP
28
10
10
30
28
48
78
44
84
ENDCHAR
STARTCHAR 00C4
ENCODING 196
SWIDTH 617 0
DWIDTH 6 0
BBX 6 9 0 0
BITMAP
28
00
10
30
28
48
78
44
84
ENDCHAR
STARTCHAR 00C5
ENCODING 197
SWIDTH 617 0
DWIDTH 6 0
BBX 6 8 0 0
BITMAP
30
30
30
28
48
78
44
84
ENDCHAR
STARTCHAR 00C6
ENCODING 198
SWIDTH 925 0
DWIDTH 9 0
BBX 9 7 0 0
BITMAP
0F00
1400
1400
2700
7C00
4400
8780
ENDCHAR
STARTCHAR 00C7
ENCODING 199
SWIDTH 617 0
DWIDTH 6 0
BBX 5 9 1 -2
BITMAP
78
80
80
80
80
80
78
20
60
ENDCHAR
STARTCHAR 00C8
ENCODING 200
SWIDTH 514 0
DWIDTH 5 0
BBX 4 9 1 0
BITMAP
40
20
F0
80
80
F0
80
80
F0
ENDCHAR
STARTCHAR 00C9
ENCODING 201
SWIDTH 514 0
DWIDTH 5 0
BBX 4 9 1 0
BITMAP
20
00
F0
80
80
F0
80
80
F0
ENDCHAR
STARTCHAR 00CA
ENCODING 202
SWIDTH 514 0
DWIDTH 5 0
BBX 4 9 1 0
BITMAP
40
20
F0
80
80
F0
80
80
F0
ENDCHAR
STARTCHAR 00CB
ENCODING 203
SWIDTH 514 0
DWIDTH 5 0
BBX 4 9 1 0
BITMAP
20
00
F0
80
80
F0
80
80
F0
ENDCHAR
STARTCHAR 00CC
ENCODING 204
SWIDTH 205 0
DWIDTH 2 0
BBX 2 9 0 0
BITMAP
80
40
40
40
40
40
40
40
40
ENDCHAR
STARTCHAR 00CD
ENCODING 205
SWIDTH 205 0
DWIDTH 2 0
BBX 1 9 1 0
BITMAP
80
00
80
80
80
80
80
80
80
ENDCHAR
STARTCHAR 00CE
ENCODING 206
SWIDTH 205 0
DWIDTH 2 0
BBX 3 9 0 0
BITMAP
40
A0
40
40
40
40
40
40
40
ENDCHAR
STARTCHAR 00CF
ENCODING 207
SWIDTH 205 0
DWIDTH 2 0
BBX 3 9 0 0
BITMAP
A0
00
40
40
40
40
40
40
40
ENDCHAR
STARTCHAR 00D0
ENCODING 208
SWIDTH 720 0
DWIDTH 7 0
BBX 6 7 0 0
BITMAP
78
44
44
E4
44
44
78
ENDCHAR
STARTCHAR 00D1
ENCODING 209
SWIDTH 720 0
DWIDTH 7 0
BBX 5 8 1 1
BITMAP
70
88
C8
C8
A8
98
88
88
ENDCHAR
STARTCHAR 00D2
ENCODING 210
SWIDTH 720 0
DWIDTH 7 0
BBX 6 9 1 0
BITMAP
20
00
70
88
84
84
84
8C
78
ENDCHAR
STARTCHAR 00D3
ENCODING 211
SWIDTH 720 0
DWIDTH 7 0
BBX 6 9 1 0
BITMAP
10
20
70
88
84
84
84
8C
78
ENDCHAR
STARTCHAR 00D4
ENCODING 212
SWIDTH 720 0
DWIDTH 7 0
BBX 6 9 1 0
BITMAP
20
10
70
88
84
84
84
8C
78
ENDCHAR
STARTCHAR 00D5
ENCODING 213
SWIDTH 720 0
DWIDTH 7 0
BBX 6 9 1 0
BITMAP
20
10
70
88
84
84
84
8C
78
ENDCHAR
STARTCHAR 00D6
ENCODING 214
SWIDTH 720 0
DWIDTH 7 0
BBX 6 9 1 0
BITMAP
50
00
70
88
84
84
84
8C
78
ENDCHAR
STARTCHAR 00D7
ENCODING 215
SWIDTH 514 0
DWIDTH 5 0
BBX 4 4 1 1
BITMAP
90
60
60
90
ENDCHAR
STARTCHAR 00D8
ENCODING 216
SWIDTH 720 0
DWIDTH 7 0
BBX 6 7 1 0
BITMAP
74
88
94
A4
A4
CC
F8
ENDCHAR
STARTCHAR 00D9
ENCODING 217
SWIDTH 617 0
DWIDTH 6 0
BBX 5 9 1 0
BITMAP
40
20
88
88
88
88
88
88
70
ENDCHAR
STARTCHAR 00DA
ENCODING 218
SWIDTH 617 0
DWIDTH 6 0
BBX 5 9 1 0
BITMAP
30
00
88
88
88
88
88
88
70
ENDCHAR
STARTCHAR 00DB
ENCODING 219
SWIDTH 617 0
DWIDTH 6 0
BBX 5 9 1 0
BITMAP
20
50
88
88
88
88
88
88
70
ENDCHAR
STARTCHAR 00DC
ENCODING 220
SWIDTH 617 0
DWIDTH 6 0
BBX 5 9 1 0
BITMAP
50
00
88
88
88
88
88
88
70
ENDCHAR
STARTCHAR 00DD
ENCODING 221
SWIDTH 514 0
DWIDTH 5 0
BBX 6 9 0 0
BITMAP
10
20
84
48
50
30
20
20
20
ENDCHAR
STARTCHAR 00DE
ENCODING 222
SWIDTH 514 0
DWIDTH 5 0
BBX 5 7 1 0
BITMAP
80
E0
90
88
90
E0
80
ENDCHAR
STARTCHAR 00DF
ENCODING 223
SWIDTH 617 0
DWIDTH 6 0
BBX 5 8 1 0
BITMAP
40
B0
90
A0
A0
90
88
B0
ENDCHAR
STARTCHAR 00E0
ENCODING 224
SWIDTH 514 0
DWIDTH 5 0
BBX 4 7 0 1
BITMAP
20
00
70
10
70
90
70
ENDCHAR
STARTCHAR 00E1
ENCODING 225
SWIDTH 514 0
DWIDTH 5 0
BBX 4 7 0 1
BITMAP
20
00
70
10
70
90
70
ENDCHAR
STARTCHAR 00E2
ENCODING 226
SWIDTH 514 0
DWIDTH 5 0
BBX 4 7 0 0
BITMAP
20
00
70
10
70
90
70
ENDCHAR
STARTCHAR 00E3
ENCODING 227
SWIDTH 514 0
DWIDTH 5 0
BBX 4 7 0 0
BITMAP
70
00
70
10
70
90
70
ENDCHAR
STARTCHAR 00E4
ENCODING 228
SWIDTH 514 0
DWIDTH 5 0
BBX 4 7 0 0
BITMAP
50
00
70
10
70
90
70
ENDCHAR
STARTCHAR 00E5
ENCODING 229
SWIDTH 514 0
DWIDTH 5 0
BBX 4 8 0 0
BITMAP
20
50
20
70
10
70
90
70
ENDCHAR
STARTCHAR 00E6
ENCODING 230
SWIDTH 822 0
DWIDTH 8 0
BBX 8 5 0 0
BITMAP
7E
11
7F
88
7E
ENDCHAR
STARTCHAR 00E7
ENCODING 231
SWIDTH 411 0
DWIDTH 4 0
BBX 4 7 0 -2
BITMAP
70
40
80
40
70
20
20
ENDCHAR
STARTCHAR 00E8
ENCODING 232
SWIDTH 514 0
DWIDTH 5 0
BBX 5 7 0 1
BITMAP
20
00
70
48
F8
40
78
ENDCHAR
STARTCHAR 00E9
ENCODING 233
SWIDTH 514 0
DWIDTH 5 0
BBX 5 7 0 1
BITMAP
20
00
70
48
F8
40
78
ENDCHAR
STARTCHAR 00EA
ENCODING 234
SWIDTH 514 0
DWIDTH 5 0
BBX 5 7 0 0
BITMAP
30
00
70
48
F8
40
78
ENDCHAR
STARTCHAR 00EB
ENCODING 235
SWIDTH 514 0
DWIDTH 5 0
BBX 5 7 0 0
BITMAP
50
00
70
48
F8
40
78
ENDCHAR
STARTCHAR 00EC
ENCODING 236
SWIDTH 205 0
DWIDTH 2 0
BBX 1 7 1 1
BITMAP
80
00
80
80
80
80
80
ENDCHAR
STARTCHAR 00ED
ENCODING 237
SWIDTH 205 0
DWIDTH 2 0
BBX 1 7 1 1
BITMAP
80
00
80
80
80
80
80
ENDCHAR
STARTCHAR 00EE
ENCODING 238
SWIDTH 205 0
DWIDTH 2 0
BBX 2 7 0 0
BITMAP
C0
00
40
40
40
40
40
ENDCHAR
STARTCHAR 00EF
ENCODING 239
SWIDTH 205 0
DWIDTH 2 0
BBX 3 7 0 0
BITMAP
A0
00
40
40
40
40
40
ENDCHAR
STARTCHAR 00F0
ENCODING 240
SWIDTH 514 0
DWIDTH 5 0
BBX 5 7 0 1
BITMAP
18
28
38
48
88
48
70
ENDCHAR
STARTCHAR 00F1
ENCODING 241
SWIDTH 514 0
DWIDTH 5 0
BBX 4 7 1 0
BITMAP
E0
00
E0
90
90
90
90
ENDCHAR
STARTCHAR 00F2
ENCODING 242
SWIDTH 514 0
DWIDTH 5 0
BBX 5 7 0 1
BITMAP
20
00
78
48
88
48
70
ENDCHAR
STARTCHAR 00F3
ENCODING 243
SWIDTH 514 0
DWIDTH 5 0
BBX 5 8 0 0
BITMAP
10
10
00
78
48
88
48
70
ENDCHAR
STARTCHAR 00F4
ENCODING 244
SWIDTH 514 0
DWIDTH 5 0
BBX 5 7 0 0
BITMAP
30
00
78
48
88
48
70
ENDCHAR
STARTCHAR 00F5
ENCODING 245
SWIDTH 514 0
DWIDTH 5 0
BBX 5 7 0 0
BITMAP
70
00
78
48
88
48
70
ENDCHAR
STARTCHAR 00F6
ENCODING 246
SWIDTH 514 0
DWIDTH 5 0
BBX 5 7 0 0
BITMAP
70
00
78
48
88
48
70
ENDCHAR
STARTCHAR 00F7
ENCODING 247
SWIDTH 514 0
DWIDTH 5 0
BBX 3 5 1 0
BITMAP
40
00
E0
40
40
ENDCHAR
STARTCHAR 00F8
ENCODING 248
SWIDTH 514 0
DWIDTH 5 0
BBX 5 5 0 0
BITMAP
78
58
A8
48
70
ENDCHAR
STARTCHAR 00F9
ENCODING 249
SWIDTH 514 0
DWIDTH 5 0
BBX 4 7 1 1
BITMAP
40
00
90
90
90
90
F0
ENDCHAR
STARTCHAR 00FA
ENCODING 250
SWIDTH 514 0
DWIDTH 5 0
BBX 4 7 1 1
BITMAP
40
00
90
90
90
90
F0
ENDCHAR
STARTCHAR 00FB
ENCODING 251
SWIDTH 514 0
DWIDTH 5 0
BBX 4 7 1 0
BITMAP
60
00
90
90
90
90
F0
ENDCHAR
STARTCHAR 00FC
ENCODING 252
SWIDTH 514 0
DWIDTH 5 0
BBX 4 7 1 0
BITMAP
A0
00
90
90
90
90
F0
ENDCHAR
STARTCHAR 00FD
ENCODING 253
SWIDTH 411 0
DWIDTH 4 0
BBX 5 9 0 -1
BITMAP
20
00
88
50
50
50
20
20
C0
ENDCHAR
STARTCHAR 00FE
ENCODING 254
SWIDTH 514 0
DWIDTH 5 0
BBX 4 10 1 -2
BITMAP
80
80
80
F0
90
90
90
F0
80
80
ENDCHAR
STARTCHAR 00FF
ENCODING 255
SWIDTH 411 0
DWIDTH 4 0
BBX 5 9 0 -2
BITMAP
50
00
88
50
50
50
20
20
C0
ENDCHAR
STARTCHAR 0100
ENCODING 256
SWIDTH 617 0
DWIDTH 6 0
BBX 6 8 0 0
BITMAP
30
10
30
28
48
78
44
84
ENDCHAR
STARTCHAR 0101
ENCODING 257
SWIDTH 514 0
DWIDTH 5 0
BBX 4 7 0 0
BITMAP
70
00
70
10
70
90
70
ENDCHAR
STARTCHAR 0102
ENCODING 258
SWIDTH 617 0
DWIDTH 6 0
BBX 6 9 0 0
BITMAP
28
10
10
30
28
48
78
44
84
ENDCHAR
STARTCHAR 0103
ENCODING 259
SWIDTH 514 0
DWIDTH 5 0
BBX 4 7 0 0
BITMAP
70
00
70
10
70
90
70
ENDCHAR
STARTCHAR 0104
ENCODING 260
SWIDTH 617 0
DWIDTH 6 0
BBX 6 9 0 -2
BITMAP
10
30
28
48
78
44
84
04
04
ENDCHAR
STARTCHAR 0105
ENCODING 261
SWIDTH 514 0
DWIDTH 5 0
BBX 4 7 0 -2
BITMAP
70
10
70
90
70
10
10
ENDCHAR
STARTCHAR 0106
ENCODING 262
SWIDTH 617 0
DWIDTH 6 0
BBX 5 9 1 0
BITMAP
10
20
78
80
80
80
80
80
78
ENDCHAR
STARTCHAR 0107
ENCODING 263
SWIDTH 411 0
DWIDTH 4 0
BBX 4 7 0 1
BITMAP
20
00
70
40
80
40
70
ENDCHAR
STARTCHAR 0108
ENCODING 264
SWIDTH 617 0
DWIDTH 6 0
BBX 5 9 1 0
BITMAP
20
50
78
80
80
80
80
80
78
ENDCHAR
STARTCHAR 0109
ENCODING 265
SWIDTH 411 0
DWIDTH 4 0
BBX 4 7 0 0
BITMAP
30
00
70
40
80
40
70
ENDCHAR
STARTCHAR 010A
ENCODING 266
SWIDTH 617 0
DWIDTH 6 0
BBX 5 9 1 0
BITMAP
20
20
78
80
80
80
80
80
78
ENDCHAR
STARTCHAR 010B
ENCODING 267
SWIDTH 411 0
DWIDTH 4 0
BBX 4 7 0 0
BITMAP
20
00
70
40
80
40
70
ENDCHAR
STARTCHAR 010C
ENCODING 268
SWIDTH 617 0
DWIDTH 6 0
BBX 5 9 1 0
BITMAP
50
20
78
80
80
80
80
80
78
ENDCHAR
STARTCHAR 010D
ENCODING 269
SWIDTH 411 0
DWIDTH 4 0
BBX 4 7 0 1
BITMAP
30
00
70
40
80
40
70
ENDCHAR
STARTCHAR 010E
ENCODING 270
SWIDTH 617 0
DWIDTH 6 0
BBX 5 9 1 0
BITMAP
60
20
E0
98
88
88
88
88
F0
ENDCHAR
STARTCHAR 010F
ENCODING 271
SWIDTH 617 0
DWIDTH 6 0
BBX 6 7 0 1
BITMAP
0C
08
78
48
88
48
78
ENDCHAR
STARTCHAR 0110
ENCODING 272
SWIDTH 720 0
DWIDTH 7 0
BBX 6 7 0 0
BITMAP
78
44
44
E4
44
44
78
ENDCHAR
STARTCHAR 0111
ENCODING 273
SWIDTH 514 0
DWIDTH 5 0
BBX 6 7 0 1
BITMAP
3C
08
78
48
88
48
78
ENDCHAR
STARTCHAR 0112
ENCODING 274
SWIDTH 514 0
DWIDTH 5 0
BBX 4 8 1 0
BITMAP
60
F0
80
80
F0
80
80
F0
ENDCHAR
STARTCHAR 0113
ENCODING 275
SWIDTH 514 0
DWIDTH 5 0
BBX 5 7 0 0
BITMAP
70
00
70
48
F8
40
78
ENDCHAR
STARTCHAR 0114
ENCODING 276
SWIDTH 514 0
DWIDTH 5 0
BBX 4 9 1 0
BITMAP
20
40
F0
80
80
F0
80
80
F0
ENDCHAR
STARTCHAR 0115
ENCODING 277
SWIDTH 514 0
DWIDTH 5 0
BBX 5 7 0 0
BITMAP
30
00
70
48
F8
40
78
ENDCHAR
STARTCHAR 0116
ENCODING 278
SWIDTH 514 0
DWIDTH 5 0
BBX 4 9 1 0
BITMAP
40
00
F0
80
80
F0
80
80
F0
ENDCHAR
STARTCHAR 0117
ENCODING 279
SWIDTH 514 0
DWIDTH 5 0
BBX 5 7 0 0
BITMAP
20
00
70
48
F8
40
78
ENDCHAR
STARTCHAR 0118
ENCODING 280
SWIDTH 514 0
DWIDTH 5 0
BBX 4 9 1 -2
BITMAP
F0
80
80
F0
80
80
F0
10
10
ENDCHAR
STARTCHAR 0119
ENCODING 281
SWIDTH 514 0
DWIDTH 5 0
BBX 5 7 0 -2
BITMAP
70
48
F8
40
78
10
10
ENDCHAR
STARTCHAR 011A
ENCODING 282
SWIDTH 514 0
DWIDTH 5 0
BBX 4 9 1 0
BITMAP
20
40
F0
80
80
F0
80
80
F0
ENDCHAR
STARTCHAR 011B
ENCODING 283
SWIDTH 514 0
DWIDTH 5 0
BBX 5 7 0 1
BITMAP
30
00
70
48
F8
40
78
ENDCHAR
STARTCHAR 011C
ENCODING 284
SWIDTH 617 0
DWIDTH 6 0
BBX 5 9 1 0
BITMAP
20
50
78
80
80
80
88
88
78
ENDCHAR
STARTCHAR 011D
ENCODING 285
SWIDTH 514 0
DWIDTH 5 0
BBX 5 9 0 -2
BITMAP
30
00
78
48
88
48
78
08
70
ENDCHAR
STARTCHAR 011E
ENCODING 286
SWIDTH 617 0
DWIDTH 6 0
BBX 5 9 1 0
BITMAP
50
20
78
80
80
80
88
88
78
ENDCHAR
STARTCHAR 011F
ENCODING 287
SWIDTH 514 0
DWIDTH 5 0
BBX 5 9 0 -2
BITMAP
30
00
78
48
88
48
78
08
70
ENDCHAR
STARTCHAR 0120
ENCODING 288
SWIDTH 617 0
DWIDTH 6 0
BBX 5 9 1 0
BITMAP
20
00
78
80
80
80
88
88
78
ENDCHAR
STARTCHAR 0121
ENCODING 289
SWIDTH 514 0
DWIDTH 5 0
BBX 5 9 0 -2
BITMAP
30
00
78
48
88
48
78
08
70
ENDCHAR
STARTCHAR 0122
ENCODING 290
SWIDTH 617 0
DWIDTH 6 0
BBX 5 9 1 -2
BITMAP
78
80
80
80
88
88
78
20
20
ENDCHAR
STARTCHAR 0123
ENCODING 291
SWIDTH 514 0
DWIDTH 5 0
BBX 5 10 0 -2
BITMAP
10
20
00
78
48
88
48
78
08
70
ENDCHAR
STARTCHAR 0124
ENCODING 292
SWIDTH 617 0
DWIDTH 6 0
BBX 5 9 1 0
BITMAP
20
50
88
88
88
F8
88
88
88
ENDCHAR
STARTCHAR 0125
ENCODING 293
SWIDTH 514 0
DWIDTH 5 0
BBX 4 9 1 0
BITMAP
C0
80
80
80
E0
90
90
90
90
ENDCHAR
STARTCHAR 0126
ENCODING 294
SWIDTH 720 0
DWIDTH 7 0
BBX 7 7 0 0
BITMAP
44
FE
44
7C
44
44
44
ENDCHAR
STARTCHAR 0127
ENCODING 295
SWIDTH 514 0
DWIDTH 5 0
BBX 5 8 0 0
BITMAP
40
E0
40
70
48
48
48
48
ENDCHAR
STARTCHAR 0128
ENCODING 296
SWIDTH 205 0
DWIDTH 2 0
BBX 3 9 0 0
BITMAP
A0
40
40
40
40
40
40
40
40
ENDCHAR
STARTCHAR 0129
ENCODING 297
SWIDTH 205 0
DWIDTH 2 0
BBX 3 7 0 0
BITMAP
E0
00
40
40
40
40
40
ENDCHAR
STARTCHAR 012A
ENCODING 298
SWIDTH 205 0
DWIDTH 2 0
BBX 2 8 0 0
BITMAP
C0
40
40
40
40
40
40
40
ENDCHAR
STARTCHAR 012B
ENCODING 299
SWIDTH 205 0
DWIDTH 2 0
BBX 3 7 0 0
BITMAP
E0
00
40
40
40
40
40
ENDCHAR
STARTCHAR 012C
ENCODING 300
SWIDTH 205 0
DWIDTH 2 0
BBX 3 9 0 0
BITMAP
A0
40
40
40
40
40
40
40
40
ENDCHAR
STARTCHAR 012D
ENCODING 301
SWIDTH 205 0
DWIDTH 2 0
BBX 2 7 0 0
BITMAP
C0
00
40
40
40
40
40
ENDCHAR
STARTCHAR 012E
ENCODING 302
SWIDTH 205 0
DWIDTH 2 0
BBX 2 9 0 -2
BITMAP
40
40
40
40
40
40
40
80
C0
ENDCHAR
STARTCHAR 012F
ENCODING 303
SWIDTH 205 0
DWIDTH 2 0
BBX 2 9 0 -2
BITMAP
40
00
40
40
40
40
40
80
C0
ENDCHAR
STARTCHAR 0130
ENCODING 304
SWIDTH 205 0
DWIDTH 2 0
BBX 1 9 1 0
BITMAP
80
00
80
80
80
80
80
80
80
ENDCHAR
STARTCHAR 0131
ENCODING 305
SWIDTH 205 0
DWIDTH 2 0
BBX 1 5 1 0
BITMAP
80
80
80
80
80
ENDCHAR
STARTCHAR 0132
ENCODING 306
SWIDTH 720 0
DWIDTH 7 0
BBX 6 7 1 0
BITMAP
84
84
84
84
84
84
B8
ENDCHAR
STARTCHAR 0133
ENCODING 307
SWIDTH 411 0
DWIDTH 4 0
BBX 3 9 1 -2
BITMAP
A0
00
A0
A0
A0
A0
A0
20
60
ENDCHAR
STARTCHAR 0134
ENCODING 308
SWIDTH 411 0
DWIDTH 4 0
BBX 5 9 0 0
BITMAP
10
28
10
10
10
10
10
10
F0
ENDCHAR
STARTCHAR 0135
ENCODING 309
SWIDTH 205 0
DWIDTH 2 0
BBX 3 9 -1 -2
BITMAP
60
00
20
20
20
20
20
20
C0
ENDCHAR
STARTCHAR 0136
ENCODING 310
SWIDTH 617 0
DWIDTH 6 0
BBX 5 9 1 -2
BITMAP
98
90
A0
C0
A0
90
88
20
40
ENDCHAR
STARTCHAR 0137
ENCODING 311
SWIDTH 514 0
DWIDTH 5 0
BBX 4 10 1 -2
BITMAP
80
80
80
A0
C0
C0
A0
90
40
40
ENDCHAR
STARTCHAR 0138
ENCODING 312
SWIDTH 514 0
DWIDTH 5 0
BBX 4 5 1 0
BITMAP
A0
C0
C0
A0
90
ENDCHAR
STARTCHAR 0139
ENCODING 313
SWIDTH 514 0
DWIDTH 5 0
BBX 4 9 1 0
BITMAP
40
80
80
80
80
80
80
80
F0
ENDCHAR
STARTCHAR 013A
ENCODING 314
SWIDTH 205 0
DWIDTH 2 0
BBX 1 9 1 0
BITMAP
80
80
80
80
80
80
80
80
80
ENDCHAR
STARTCHAR 013B
ENCODING 315
SWIDTH 514 0
DWIDTH 5 0
BBX 4 9 1 -2
BITMAP
80
80
80
80
80
80
F0
40
40
ENDCHAR
STARTCHAR 013C
ENCODING 316
SWIDTH 205 0
DWIDTH 2 0
BBX 2 10 0 -2
BITMAP
40
40
40
40
40
40
40
40
40
C0
ENDCHAR
STARTCHAR 013D
ENCODING 317
SWIDTH 514 0
DWIDTH 5 0
BBX 4 7 1 0
BITMAP
A0
C0
80
80
80
80
F0
ENDCHAR
STARTCHAR 013E
ENCODING 318
SWIDTH 205 0
DWIDTH 2 0
BBX 2 8 1 0
BITMAP
C0
C0
C0
80
80
80
80
80
ENDCHAR
STARTCHAR 013F
ENCODING 319
SWIDTH 514 0
DWIDTH 5 0
BBX 4 7 1 0
BITMAP
80
80
80
A0
80
80
F0
ENDCHAR
STARTCHAR 0140
ENCODING 320
SWIDTH 308 0
DWIDTH 3 0
BBX 3 8 1 0
BITMAP
80
80
80
80
E0
80
80
80
ENDCHAR
STARTCHAR 0141
ENCODING 321
SWIDTH 514 0
DWIDTH 5 0
BBX 5 7 0 0
BITMAP
40
40
40
60
C0
40
78
ENDCHAR
STARTCHAR 0142
ENCODING 322
SWIDTH 205 0
DWIDTH 2 0
BBX 3 7 0 1
BITMAP
40
40
60
C0
40
40
60
ENDCHAR
STARTCHAR 0143
ENCODING 323
SWIDTH 720 0
DWIDTH 7 0
BBX 5 9 1 0
BITMAP
10
20
88
C8
C8
A8
98
88
88
ENDCHAR
STARTCHAR 0144
ENCODING 324
SWIDTH 514 0
DWIDTH 5 0
BBX 4 7 1 1
BITMAP
20
00
E0
90
90
90
90
ENDCHAR
STARTCHAR 0145
ENCODING 325
SWIDTH 720 0
DWIDTH 7 0
BBX 5 9 1 -2
BITMAP
88
C8
C8
A8
98
88
88
20
60
ENDCHAR
STARTCHAR 0146
ENCODING 326
SWIDTH 514 0
DWIDTH 5 0
BBX 4 7 1 -2
BITMAP
E0
90
90
90
90
40
40
ENDCHAR
STARTCHAR 0147
ENCODING 327
SWIDTH 720 0
DWIDTH 7 0
BBX 5 9 1 0
BITMAP
50
20
88
C8
C8
A8
98
88
88
ENDCHAR
STARTCHAR 0148
ENCODING 328
SWIDTH 514 0
DWIDTH 5 0
BBX 4 7 1 1
BITMAP
60
00
E0
90
90
90
90
ENDCHAR
STARTCHAR 0149
ENCODING 329
SWIDTH 514 0
DWIDTH 5 0
BBX 5 8 0 0
BITMAP
80
80
00
70
48
48
48
48
ENDCHAR
STARTCHAR 014A
ENCODING 330
SWIDTH 720 0
DWIDTH 7 0
BBX 5 9 1 -2
BITMAP
88
C8
C8
A8
98
88
88
08
18
ENDCHAR
STARTCHAR 014B
ENCODING 331
SWIDTH 514 0
DWIDTH 5 0
BBX 4 7 1 -2
BITMAP
E0
90
90
90
90
10
20
ENDCHAR
STARTCHAR 014C
ENCODING 332
SWIDTH 720 0
DWIDTH 7 0
BBX 6 8 1 0
BITMAP
30
70
88
84
84
84
8C
78
ENDCHAR
STARTCHAR 014D
ENCODING 333
SWIDTH 514 0
DWIDTH 5 0
BBX 5 7 0 0
BITMAP
70
00
78
48
88
48
70
ENDCHAR
STARTCHAR 014E
ENCODING 334
SWIDTH 720 0
DWIDTH 7 0
BBX 6 9 1 0
BITMAP
50
20
70
88
84
84
84
8C
78
ENDCHAR
STARTCHAR 014F
ENCODING 335
SWIDTH 514 0
DWIDTH 5 0
BBX 5 7 0 0
BITMAP
30
00
78
48
88
48
70
ENDCHAR
STARTCHAR 0150
ENCODING 336
SWIDTH 720 0
DWIDTH 7 0
BBX 6 9 1 0
BITMAP
28
10
70
88
84
84
84
8C
78
ENDCHAR
STARTCHAR 0151
ENCODING 337
SWIDTH 514 0
DWIDTH 5 0
BBX 5 7 0 1
BITMAP
30
00
78
48
88
48
70
ENDCHAR
STARTCHAR 0152
ENCODING 338
SWIDTH 925 0
DWIDTH 9 0
BBX 8 7 1 0
BITMAP
3F
C8
88
8F
88
88
7F
ENDCHAR
STARTCHAR 0153
ENCODING 339
SWIDTH 925 0
DWIDTH 9 0
BBX 9 5 0 0
BITMAP
7700
4880
8F80
4800
7700
ENDCHAR
STARTCHAR 0154
ENCODING 340
SWIDTH 617 0
DWIDTH 6 0
BBX 5 9 1 0
BITMAP
20
40
E0
90
88
90
E0
90
88
ENDCHAR
STARTCHAR 0155
ENCODING 341
SWIDTH 308 0
DWIDTH 3 0
BBX 3 7 1 1
BITMAP
40
00
E0
80
80
80
80
ENDCHAR
STARTCHAR 0156
ENCODING 342
SWIDTH 617 0
DWIDTH 6 0
BBX 5 9 1 -2
BITMAP
E0
90
88
90
E0
90
88
20
40
ENDCHAR
STARTCHAR 0157
ENCODING 343
SWIDTH 308 0
DWIDTH 3 0
BBX 4 7 0 -2
BITMAP
70
40
40
40
40
40
80
ENDCHAR
STARTCHAR 0158
ENCODING 344
SWIDTH 617 0
DWIDTH 6 0
BBX 5 9 1 0
BITMAP
60
00
E0
90
88
90
E0
90
88
ENDCHAR
STARTCHAR 0159
ENCODING 345
SWIDTH 308 0
DWIDTH 3 0
BBX 3 7 1 1
BITMAP
C0
00
E0
80
80
80
80
ENDCHAR
STARTCHAR 015A
ENCODING 346
SWIDTH 514 0
DWIDTH 5 0
BBX 5 9 0 0
BITMAP
10
20
78
40
40
70
18
08
F0
ENDCHAR
STARTCHAR 015B
ENCODING 347
SWIDTH 411 0
DWIDTH 4 0
BBX 4 7 0 1
BITMAP
20
00
70
80
60
10
F0
ENDCHAR
STARTCHAR 015C
ENCODING 348
SWIDTH 514 0
DWIDTH 5 0
BBX 5 9 0 0
BITMAP
20
50
78
40
40
70
18
08
F0
ENDCHAR
STARTCHAR 015D
ENCODING 349
SWIDTH 411 0
DWIDTH 4 0
BBX 4 7 0 0
BITMAP
60
00
70
80
60
10
F0
ENDCHAR
STARTCHAR 015E
ENCODING 350
SWIDTH 514 0
DWIDTH 5 0
BBX 5 9 0 -2
BITMAP
78
40
40
70
18
08
F0
20
20
ENDCHAR
STARTCHAR 015F
ENCODING 351
SWIDTH 411 0
DWIDTH 4 0
BBX 4 7 0 -2
BITMAP
70
80
60
10
F0
20
60
ENDCHAR
STARTCHAR 0160
ENCODING 352
SWIDTH 514 0
DWIDTH 5 0
BBX 5 9 0 0
BITMAP
50
20
78
40
40
70
18
08
F0
ENDCHAR
STARTCHAR 0161
ENCODING 353
SWIDTH 411 0
DWIDTH 4 0
BBX 4 7 0 1
BITMAP
60
00
70
80
60
10
F0
ENDCHAR
STARTCHAR 0162
ENCODING 354
SWIDTH 514 0
DWIDTH 5 0
BBX 5 9 0 -2
BITMAP
F8
20
20
20
20
20
20
20
20
ENDCHAR
STARTCHAR 0163
ENCODING 355
SWIDTH 308 0
DWIDTH 3 0
BBX 3 9 1 -2
BITMAP
80
80
E0
80
80
80
E0
40
C0
ENDCHAR
STARTCHAR 0164
ENCODING 356
SWIDTH 514 0
DWIDTH 5 0
BBX 5 9 0 0
BITMAP
50
20
F8
20
20
20
20
20
20
ENDCHAR
STARTCHAR 0165
ENCODING 357
SWIDTH 308 0
DWIDTH 3 0
BBX 3 8 1 0
BITMAP
40
C0
80
E0
80
80
80
E0
ENDCHAR
STARTCHAR 0166
ENCODING 358
SWIDTH 514 0
DWIDTH 5 0
BBX 5 7 0 0
BITMAP
F8
20
20
70
20
20
20
ENDCHAR
STARTCHAR 0167
ENCODING 359
SWIDTH 308 0
DWIDTH 3 0
BBX 3 7 1 0
BITMAP
80
80
E0
80
E0
80
E0
ENDCHAR
STARTCHAR 0168
ENCODING 360
SWIDTH 617 0
DWIDTH 6 0
BBX 5 9 1 0
BITMAP
50
20
88
88
88
88
88
88
70
ENDCHAR
STARTCHAR 0169
ENCODING 361
SWIDTH 514 0
DWIDTH 5 0
BBX 4 7 1 0
BITMAP
E0
00
90
90
90
90
F0
ENDCHAR
STARTCHAR 016A
ENCODING 362
SWIDTH 617 0
DWIDTH 6 0
BBX 5 8 1 0
BITMAP
60
88
88
88
88
88
88
70
ENDCHAR
STARTCHAR 016B
ENCODING 363
SWIDTH 514 0
DWIDTH 5 0
BBX 4 7 1 0
BITMAP
E0
00
90
90
90
90
F0
ENDCHAR
STARTCHAR 016C
ENCODING 364
SWIDTH 617 0
DWIDTH 6 0
BBX 5 9 1 0
BITMAP
50
20
88
88
88
88
88
88
70
ENDCHAR
STARTCHAR 016D
ENCODING 365
SWIDTH 514 0
DWIDTH 5 0
BBX 4 7 1 0
BITMAP
60
00
90
90
90
90
F0
ENDCHAR
STARTCHAR 016E
ENCODING 366
SWIDTH 617 0
DWIDTH 6 0
BBX 5 9 1 0
BITMAP
60
20
88
88
88
88
88
88
70
ENDCHAR
STARTCHAR 016F
ENCODING 367
SWIDTH 514 0
DWIDTH 5 0
BBX 4 8 1 0
BITMAP
40
A0
40
90
90
90
90
F0
ENDCHAR
STARTCHAR 0170
ENCODING 368
SWIDTH 617 0
DWIDTH 6 0
BBX 5 9 1 0
BITMAP
30
40
88
88
88
88
88
88
70
ENDCHAR
STARTCHAR 0171
ENCODING 369
SWIDTH 514 0
DWIDTH 5 0
BBX 4 7 1 1
BITMAP
60
00
90
90
90
90
F0
ENDCHAR
STARTCHAR 0172
ENCODING 370
SWIDTH 617 0
DWIDTH 6 0
BBX 5 9 1 -2
BITMAP
88
88
88
88
88
88
70
20
30
ENDCHAR
STARTCHAR 0173
ENCODING 371
SWIDTH 514 0
DWIDTH 5 0
BBX 4 7 1 -2
BITMAP
90
90
90
90
F0
20
30
ENDCHAR
STARTCHAR 0174
ENCODING 372
SWIDTH 925 0
DWIDTH 9 0
BBX 9 9 0 0
BITMAP
0800
1400
8080
8880
5900
5500
5500
6500
2200
ENDCHAR
STARTCHAR 0175
ENCODING 373
SWIDTH 720 0
DWIDTH 7 0
BBX 7 7 0 0
BITMAP
18
00
92
5A
6A
6C
24
ENDCHAR
STARTCHAR 0176
ENCODING 374
SWIDTH 514 0
DWIDTH 5 0
BBX 6 9 0 0
BITMAP
20
10
84
48
50
30
20
20
20
ENDCHAR
STARTCHAR 0177
ENCODING 375
SWIDTH 411 0
DWIDTH 4 0
BBX 5 9 0 -2
BITMAP
20
00
88
50
50
50
20
20
C0
ENDCHAR
STARTCHAR 0178
ENCODING 376
SWIDTH 514 0
DWIDTH 5 0
BBX 6 9 0 0
BITMAP
10
00
84
48
50
30
20
20
20
ENDCHAR
STARTCHAR 0179
ENCODING 377
SWIDTH 514 0
DWIDTH 5 0
BBX 5 9 0 0
BITMAP
10
20
F8
08
10
20
40
40
F8
ENDCHAR
STARTCHAR 017A
ENCODING 378
SWIDTH 411 0
DWIDTH 4 0
BBX 4 7 0 1
BITMAP
20
00
F0
20
20
40
F0
ENDCHAR
STARTCHAR 017B
ENCODING 379
SWIDTH 514 0
DWIDTH 5 0
BBX 5 9 0 0
BITMAP
20
00
F8
08
10
20
40
40
F8
ENDCHAR
STARTCHAR 017C
ENCODING 380
SWIDTH 411 0
DWIDTH 4 0
BBX 4 7 0 0
BITMAP
20
00
F0
20
20
40
F0
ENDCHAR
STARTCHAR 017D
ENCODING 381
SWIDTH 514 0
DWIDTH 5 0
BBX 5 9 0 0
BITMAP
10
20
F8
08
10
20
40
40
F8
ENDCHAR
STARTCHAR 017E
ENCODING 382
SWIDTH 411 0
DWIDTH 4 0
BBX 4 7 0 1
BITMAP
60
00
F0
20
20
40
F0
ENDCHAR
STARTCHAR 017F
ENCODING 383
SWIDTH 205 0
DWIDTH 2 0
BBX 2 8 1 0
BITMAP
40
80
80
80
80
80
80
80
ENDCHAR
STARTCHAR 0180
ENCODING 384
SWIDTH 514 0
DWIDTH 5 0
BBX 5 8 0 0
BITMAP
40
E0
40
78
48
48
48
70
ENDCHAR
STARTCHAR 0181
ENCODING 385
SWIDTH 720 0
DWIDTH 7 0
BBX 7 7 0 0
BITMAP
78
A4
24
3C
22
22
3C
ENDCHAR
STARTCHAR 0182
ENCODING 386
SWIDTH 617 0
DWIDTH 6 0
BBX 5 7 1 0
BITMAP
F0
80
80
F0
88
88
F0
ENDCHAR
STARTCHAR 0183
ENCODING 387
SWIDTH 514 0
DWIDTH 5 0
BBX 4 8 1 0
BITMAP
F0
80
80
F0
90
90
90
E0
ENDCHAR
STARTCHAR 0184
ENCODING 388
SWIDTH 514 0
DWIDTH 5 0
BBX 5 7 0 1
BITMAP
C0
40
78
48
48
48
70
ENDCHAR
STARTCHAR 0185
ENCODING 389
SWIDTH 617 0
DWIDTH 6 0
BBX 5 7 1 0
BITMAP
80
80
80
F0
88
88
F0
ENDCHAR
STARTCHAR 0186
ENCODING 390
SWIDTH 617 0
DWIDTH 6 0
BBX 5 7 0 0
BITMAP
F0
08
08
08
08
08
F0
ENDCHAR
STARTCHAR 0187
ENCODING 391
SWIDTH 617 0
DWIDTH 6 0
BBX 6 8 1 0
BITMAP
04
78
80
80
80
80
80
78
ENDCHAR
STARTCHAR 0188
ENCODING 392
SWIDTH 411 0
DWIDTH 4 0
BBX 5 6 0 0
BITMAP
08
70
40
80
40
70
ENDCHAR
STARTCHAR 0189
ENCODING 393
SWIDTH 720 0
DWIDTH 7 0
BBX 6 7 0 0
BITMAP
78
44
44
E4
44
44
78
ENDCHAR
STARTCHAR 018A
ENCODING 394
SWIDTH 720 0
DWIDTH 7 0
BBX 7 7 0 0
BITMAP
78
A6
22
22
22
22
3C
ENDCHAR
STARTCHAR 018B
ENCODING 395
SWIDTH 617 0
DWIDTH 6 0
BBX 5 7 0 0
BITMAP
78
08
08
78
88
48
78
ENDCHAR
STARTCHAR 018C
ENCODING 396
SWIDTH 514 0
DWIDTH 5 0
BBX 5 8 0 0
BITMAP
78
08
08
78
48
88
48
78
ENDCHAR
STARTCHAR 018D
ENCODING 397
SWIDTH 514 0
DWIDTH 5 0
BBX 5 7 0 -2
BITMAP
78
48
88
48
30
10
70
ENDCHAR
STARTCHAR 018E
ENCODING 398
SWIDTH 514 0
DWIDTH 5 0
BBX 5 7 0 0
BITMAP
78
08
08
78
08
08
F8
ENDCHAR
STARTCHAR 018F
ENCODING 399
SWIDTH 617 0
DWIDTH 6 0
BBX 5 7 1 0
BITMAP
F0
08
08
F8
88
88
F0
ENDCHAR
STARTCHAR 0190
ENCODING 400
SWIDTH 514 0
DWIDTH 5 0
BBX 4 7 1 0
BITMAP
70
80
80
60
80
80
F0
ENDCHAR
STARTCHAR 0191
ENCODING 401
SWIDTH 514 0
DWIDTH 5 0
BBX 5 9 0 -2
BITMAP
78
40
40
78
40
40
40
40
80
ENDCHAR
STARTCHAR 0192
ENCODING 402
SWIDTH 308 0
DWIDTH 3 0
BBX 5 10 -1 -2
BITMAP
10
20
20
38
20
20
20
20
20
C0
ENDCHAR
STARTCHAR 0193
ENCODING 403
SWIDTH 617 0
DWIDTH 6 0
BBX 6 8 1 0
BITMAP
04
78
80
80
80
88
88
78
ENDCHAR
STARTCHAR 0194
ENCODING 404
SWIDTH 617 0
DWIDTH 6 0
BBX 6 9 0 -2
BITMAP
84
44
48
28
30
10
30
28
30
ENDCHAR
STARTCHAR 0195
ENCODING 405
SWIDTH 822 0
DWIDTH 8 0
BBX 7 8 1 0
BITMAP
80
80
80
E2
92
92
92
9C
ENDCHAR
STARTCHAR 0196
ENCODING 406
SWIDTH 308 0
DWIDTH 3 0
BBX 2 7 1 0
BITMAP
80
80
80
80
80
80
C0
ENDCHAR
STARTCHAR 0197
ENCODING 407
SWIDTH 308 0
DWIDTH 3 0
BBX 3 7 0 0
BITMAP
40
40
40
E0
40
40
40
ENDCHAR
STARTCHAR 0198
ENCODING 408
SWIDTH 617 0
DWIDTH 6 0
BBX 5 7 1 0
BITMAP
98
A0
C0
C0
A0
90
88
ENDCHAR
STARTCHAR 0199
ENCODING 409
SWIDTH 514 0
DWIDTH 5 0
BBX 4 8 1 0
BITMAP
40
80
80
A0
C0
C0
A0
90
ENDCHAR
STARTCHAR 019A
ENCODING 410
SWIDTH 205 0
DWIDTH 2 0
BBX 2 7 1 1
BITMAP
80
80
80
80
80
80
C0
ENDCHAR
STARTCHAR 019B
ENCODING 411
SWIDTH 411 0
DWIDTH 4 0
BBX 5 8 0 0
BITMAP
80
70
60
20
50
50
50
88
ENDCHAR
STARTCHAR 019C
ENCODING 412
SWIDTH 925 0
DWIDTH 9 0
BBX 8 7 1 0
BITMAP
91
91
91
91
91
91
FF
ENDCHAR
STARTCHAR 019D
ENCODING 413
SWIDTH 720 0
DWIDTH 7 0
BBX 6 9 0 -2
BITMAP
44
64
64
54
4C
44
44
40
80
ENDCHAR
STARTCHAR 019E
ENCODING 414
SWIDTH 514 0
DWIDTH 5 0
BBX 4 7 1 -2
BITMAP
E0
90
90
90
90
10
10
ENDCHAR
STARTCHAR 019F
ENCODING 415
SWIDTH 720 0
DWIDTH 7 0
BBX 6 7 1 0
BITMAP
70
88
84
FC
84
8C
78
ENDCHAR
STARTCHAR 01A0
ENCODING 416
SWIDTH 720 0
DWIDTH 7 0
BBX 6 8 1 0
BITMAP
04
74
88
84
84
84
8C
78
ENDCHAR
STARTCHAR 01A1
ENCODING 417
SWIDTH 514 0
DWIDTH 5 0
BBX 6 6 0 0
BITMAP
04
78
48
88
48
70
ENDCHAR
STARTCHAR 01A2
ENCODING 418
SWIDTH 925 0
DWIDTH 9 0
BBX 8 7 1 0
BITMAP
76
89
85
85
85
89
79
ENDCHAR
STARTCHAR 01A3
ENCODING 419
SWIDTH 720 0
DWIDTH 7 0
BBX 7 7 0 -2
BITMAP
7E
4A
8A
4A
72
02
02
ENDCHAR
STARTCHAR 01A4
ENCODING 420
SWIDTH 617 0
DWIDTH 6 0
BBX 7 7 0 0
BITMAP
78
A4
22
24
38
20
20
ENDCHAR
STARTCHAR 01A5
ENCODING 421
SWIDTH 514 0
DWIDTH 5 0
BBX 4 10 1 -2
BITMAP
40
80
80
F0
90
90
90
F0
80
80
ENDCHAR
STARTCHAR 01A6
ENCODING 422
SWIDTH 617 0
DWIDTH 6 0
BBX 5 9 1 -1
BITMAP
80
E0
90
88
90
E0
90
88
08
ENDCHAR
STARTCHAR 01A7
ENCODING 423
SWIDTH 514 0
DWIDTH 5 0
BBX 5 7 0 0
BITMAP
70
08
18
70
C0
80
78
ENDCHAR
STARTCHAR 01A8
ENCODING 424
SWIDTH 411 0
DWIDTH 4 0
BBX 4 5 0 0
BITMAP
70
10
60
80
70
ENDCHAR
STARTCHAR 01A9
ENCODING 425
SWIDTH 514 0
DWIDTH 5 0
BBX 5 7 0 0
BITMAP
F8
40
20
10
20
40
F8
ENDCHAR
STARTCHAR 01AA
ENCODING 426
SWIDTH 205 0
DWIDTH 2 0
BBX 4 10 -1 -2
BITMAP
40
A0
E0
20
20
20
20
20
20
30
ENDCHAR
STARTCHAR 01AB
ENCODING 427
SWIDTH 308 0
DWIDTH 3 0
BBX 3 9 1 -2
BITMAP
80
80
E0
80
80
80
E0
20
40
ENDCHAR
STARTCHAR 01AC
ENCODING 428
SWIDTH 514 0
DWIDTH 5 0
BBX 6 7 0 0
BITMAP
7C
A0
20
20
20
20
20
ENDCHAR
STARTCHAR 01AD
ENCODING 429
SWIDTH 308 0
DWIDTH 3 0
BBX 3 8 1 0
BITMAP
40
80
80
E0
80
80
80
E0
ENDCHAR
STARTCHAR 01AE
ENCODING 430
SWIDTH 514 0
DWIDTH 5 0
BBX 5 9 0 -2
BITMAP
F8
20
20
20
20
20
20
20
10
ENDCHAR
STARTCHAR 01AF
ENCODING 431
SWIDTH 617 0
DWIDTH 6 0
BBX 6 8 1 0
BITMAP
04
8C
88
88
88
88
88
70
ENDCHAR
STARTCHAR 01B0
ENCODING 432
SWIDTH 514 0
DWIDTH 5 0
BBX 5 6 1 0
BITMAP
08
90
90
90
90
F0
ENDCHAR
STARTCHAR 01B1
ENCODING 433
SWIDTH 720 0
DWIDTH 7 0
BBX 7 7 0 0
BITMAP
E6
24
42
42
42
42
3C
ENDCHAR
STARTCHAR 01B2
ENCODING 434
SWIDTH 617 0
DWIDTH 6 0
BBX 5 7 1 0
BITMAP
B0
88
88
88
88
88
F0
ENDCHAR
STARTCHAR 01B3
ENCODING 435
SWIDTH 617 0
DWIDTH 6 0
BBX 6 7 0 0
BITMAP
84
48
50
30
20
20
20
ENDCHAR
STARTCHAR 01B4
ENCODING 436
SWIDTH 514 0
DWIDTH 5 0
BBX 5 7 0 -2
BITMAP
88
50
50
50
20
20
C0
ENDCHAR
STARTCHAR 01B5
ENCODING 437
SWIDTH 514 0
DWIDTH 5 0
BBX 5 7 0 0
BITMAP
F8
08
10
78
40
40
F8
ENDCHAR
STARTCHAR 01B6
ENCODING 438
SWIDTH 411 0
DWIDTH 4 0
BBX 4 5 0 0
BITMAP
F0
20
70
40
F0
ENDCHAR
STARTCHAR 01B7
ENCODING 439
SWIDTH 514 0
DWIDTH 5 0
BBX 5 7 0 0
BITMAP
78
10
20
30
08
08
F0
ENDCHAR
STARTCHAR 01B8
ENCODING 440
SWIDTH 514 0
DWIDTH 5 0
BBX 4 7 1 0
BITMAP
F0
80
40
E0
80
80
F0
ENDCHAR
STARTCHAR 01B9
ENCODING 441
SWIDTH 411 0
DWIDTH 4 0
BBX 5 7 0 -2
BITMAP
70
40
20
60
80
40
78
ENDCHAR
STARTCHAR 01BA
ENCODING 442
SWIDTH 411 0
DWIDTH 4 0
BBX 4 7 0 -2
BITMAP
F0
20
60
10
10
E0
80
ENDCHAR
STARTCHAR 01BB
ENCODING 443
SWIDTH 514 0
DWIDTH 5 0
BBX 4 7 1 0
BITMAP
E0
20
20
F0
40
80
F0
ENDCHAR
STARTCHAR 01BC
ENCODING 444
SWIDTH 514 0
DWIDTH 5 0
BBX 5 7 0 0
BITMAP
F8
40
40
70
08
08
70
ENDCHAR
STARTCHAR 01BD
ENCODING 445
SWIDTH 411 0
DWIDTH 4 0
BBX 4 5 0 0
BITMAP
F0
40
70
10
70
ENDCHAR
STARTCHAR 01BE
ENCODING 446
SWIDTH 411 0
DWIDTH 4 0
BBX 3 7 1 0
BITMAP
80
80
E0
80
C0
20
E0
ENDCHAR
STARTCHAR 01BF
ENCODING 447
SWIDTH 514 0
DWIDTH 5 0
BBX 4 7 1 -2
BITMAP
E0
90
90
90
E0
80
80
ENDCHAR
STARTCHAR 01C0
ENCODING 448
SWIDTH 205 0
DWIDTH 2 0
BBX 1 10 1 -2
BITMAP
80
80
80
80
80
80
80
80
80
80
ENDCHAR
STARTCHAR 01C1
ENCODING 449
SWIDTH 411 0
DWIDTH 4 0
BBX 3 10 1 -2
BITMAP
A0
A0
A0
A0
A0
A0
A0
A0
A0
A0
ENDCHAR
STARTCHAR 01C2
ENCODING 450
SWIDTH 514 0
DWIDTH 5 0
BBX 4 10 1 -2
BITMAP
40
40
40
40
F0
40
F0
40
40
40
ENDCHAR
STARTCHAR 01C3
ENCODING 451
SWIDTH 205 0
DWIDTH 2 0
BBX 1 7 1 0
BITMAP
80
80
80
80
80
00
80
ENDCHAR
STARTCHAR 01C4
ENCODING 452
SWIDTH 1234 0
DWIDTH 12 0
BBX 11 9 1 0
BITMAP
0040
0080
E3E0
9820
8840
8880
8900
8900
F3E0
ENDCHAR
STARTCHAR 01C5
ENCODING 453
SWIDTH 1131 0
DWIDTH 11 0
BBX 10 7 1 1
BITMAP
E180
9800
8BC0
8880
8880
8900
F3C0
ENDCHAR
STARTCHAR 01C6
ENCODING 454
SWIDTH 1028 0
DWIDTH 10 0
BBX 10 7 0 1
BITMAP
0980
0800
7BC0
4880
8900
4900
7BC0
ENDCHAR
STARTCHAR 01C7
ENCODING 455
SWIDTH 925 0
DWIDTH 9 0
BBX 8 7 1 0
BITMAP
81
81
81
81
81
81
FF
ENDCHAR
STARTCHAR 01C8
ENCODING 456
SWIDTH 720 0
DWIDTH 7 0
BBX 6 9 1 -2
BITMAP
84
80
84
84
84
84
F4
04
18
ENDCHAR
STARTCHAR 01C9
ENCODING 457
SWIDTH 514 0
DWIDTH 5 0
BBX 3 10 1 -2
BITMAP
80
A0
80
A0
A0
A0
A0
A0
20
60
ENDCHAR
STARTCHAR 01CA
ENCODING 458
SWIDTH 1131 0
DWIDTH 11 0
BBX 10 7 1 0
BITMAP
8840
C840
C840
A840
9840
8840
8BC0
ENDCHAR
STARTCHAR 01CB
ENCODING 459
SWIDTH 925 0
DWIDTH 9 0
BBX 8 9 1 -2
BITMAP
89
C8
C9
A9
99
89
89
01
06
ENDCHAR
STARTCHAR 01CC
ENCODING 460
SWIDTH 822 0
DWIDTH 8 0
BBX 6 9 1 -2
BITMAP
04
00
E4
94
94
94
94
04
0C
ENDCHAR
STARTCHAR 01CD
ENCODING 461
SWIDTH 617 0
DWIDTH 6 0
BBX 6 9 0 0
BITMAP
30
10
10
30
28
48
78
44
84
ENDCHAR
STARTCHAR 01CE
ENCODING 462
SWIDTH 514 0
DWIDTH 5 0
BBX 4 7 0 1
BITMAP
20
00
70
10
70
90
70
ENDCHAR
STARTCHAR 01CF
ENCODING 463
SWIDTH 205 0
DWIDTH 2 0
BBX 3 9 0 0
BITMAP
A0
40
40
40
40
40
40
40
40
ENDCHAR
STARTCHAR 01D0
ENCODING 464
SWIDTH 205 0
DWIDTH 2 0
BBX 2 7 0 1
BITMAP
C0
00
40
40
40
40
40
ENDCHAR
STARTCHAR 01D1
ENCODING 465
SWIDTH 720 0
DWIDTH 7 0
BBX 6 9 1 0
BITMAP
10
20
70
88
84
84
84
8C
78
ENDCHAR
STARTCHAR 01D2
ENCODING 466
SWIDTH 514 0
DWIDTH 5 0
BBX 5 7 0 1
BITMAP
30
00
78
48
88
48
70
ENDCHAR
STARTCHAR 01D3
ENCODING 467
SWIDTH 617 0
DWIDTH 6 0
BBX 5 9 1 0
BITMAP
50
20
88
88
88
88
88
88
70
ENDCHAR
STARTCHAR 01D4
ENCODING 468
SWIDTH 514 0
DWIDTH 5 0
BBX 4 7 1 1
BITMAP
60
00
90
90
90
90
F0
ENDCHAR
STARTCHAR 01D5
ENCODING 469
SWIDTH 617 0
DWIDTH 6 0
BBX 5 9 1 0
BITMAP
20
50
88
88
88
88
88
88
70
ENDCHAR
STARTCHAR 01D6
ENCODING 470
SWIDTH 514 0
DWIDTH 5 0
BBX 4 8 1 0
BITMAP
60
A0
00
90
90
90
90
F0
ENDCHAR
STARTCHAR 01D7
ENCODING 471
SWIDTH 617 0
DWIDTH 6 0
BBX 5 9 1 0
BITMAP
20
10
88
88
88
88
88
88
70
ENDCHAR
STARTCHAR 01D8
ENCODING 472
SWIDTH 514 0
DWIDTH 5 0
BBX 4 8 1 0
BITMAP
20
A0
00
90
90
90
90
F0
ENDCHAR
STARTCHAR 01D9
ENCODING 473
SWIDTH 617 0
DWIDTH 6 0
BBX 5 9 1 0
BITMAP
20
10
88
88
88
88
88
88
70
ENDCHAR
STARTCHAR 01DA
ENCODING 474
SWIDTH 514 0
DWIDTH 5 0
BBX 4 8 1 0
BITMAP
60
A0
00
90
90
90
90
F0
ENDCHAR
STARTCHAR 01DB
ENCODING 475
SWIDTH 617 0
DWIDTH 6 0
BBX 5 9 1 0
BITMAP
40
10
88
88
88
88
88
88
70
ENDCHAR
STARTCHAR 01DC
ENCODING 476
SWIDTH 514 0
DWIDTH 5 0
BBX 4 8 1 0
BITMAP
40
A0
00
90
90
90
90
F0
ENDCHAR
STARTCHAR 01DD
ENCODING 477
SWIDTH 514 0
DWIDTH 5 0
BBX 5 5 0 0
BITMAP
70
08
F8
48
70
ENDCHAR
STARTCHAR 01DE
ENCODING 478
SWIDTH 617 0
DWIDTH 6 0
BBX 6 9 0 0
BITMAP
30
28
10
30
28
48
78
44
84
ENDCHAR
STARTCHAR 01DF
ENCODING 479
SWIDTH 514 0
DWIDTH 5 0
BBX 4 8 0 0
BITMAP
70
50
00
70
10
70
90
70
ENDCHAR
STARTCHAR 01E0
ENCODING 480
SWIDTH 617 0
DWIDTH 6 0
BBX 6 9 0 0
BITMAP
30
10
10
30
28
48
78
44
84
ENDCHAR
STARTCHAR 01E1
ENCODING 481
SWIDTH 514 0
DWIDTH 5 0
BBX 4 8 0 0
BITMAP
70
20
00
70
10
70
90
70
ENDCHAR
STARTCHAR 01E2
ENCODING 482
SWIDTH 925 0
DWIDTH 9 0
BBX 9 8 0 0
BITMAP
0600
0F00
1400
1400
2700
7C00
4400
8780
ENDCHAR
STARTCHAR 01E3
ENCODING 483
SWIDTH 822 0
DWIDTH 8 0
BBX 8 7 0 0
BITMAP
18
00
7E
11
7F
88
7E
ENDCHAR
STARTCHAR 01E4
ENCODING 484
SWIDTH 617 0
DWIDTH 6 0
BBX 6 7 1 0
BITMAP
78
80
80
88
9C
88
78
ENDCHAR
STARTCHAR 01E5
ENCODING 485
SWIDTH 514 0
DWIDTH 5 0
BBX 6 7 0 -2
BITMAP
78
48
9C
48
78
08
70
ENDCHAR
STARTCHAR 01E6
ENCODING 486
SWIDTH 617 0
DWIDTH 6 0
BBX 5 9 1 0
BITMAP
50
20
78
80
80
80
88
88
78
ENDCHAR
STARTCHAR 01E7
ENCODING 487
SWIDTH 514 0
DWIDTH 5 0
BBX 5 9 0 -1
BITMAP
30
00
78
48
88
48
78
08
70
ENDCHAR
STARTCHAR 01E8
ENCODING 488
SWIDTH 617 0
DWIDTH 6 0
BBX 5 9 1 0
BITMAP
60
00
98
90
A0
C0
A0
90
88
ENDCHAR
STARTCHAR 01E9
ENCODING 489
SWIDTH 514 0
DWIDTH 5 0
BBX 4 9 1 0
BITMAP
80
80
80
80
A0
C0
C0
A0
90
ENDCHAR
STARTCHAR 01EA
ENCODING 490
SWIDTH 720 0
DWIDTH 7 0
BBX 6 9 1 -2
BITMAP
70
88
84
84
84
8C
78
20
30
ENDCHAR
STARTCHAR 01EB
ENCODING 491
SWIDTH 514 0
DWIDTH 5 0
BBX 5 7 0 -2
BITMAP
78
48
88
48
70
20
30
ENDCHAR
STARTCHAR 01EC
ENCODING 492
SWIDTH 720 0
DWIDTH 7 0
BBX 6 10 1 -2
BITMAP
30
70
88
84
84
84
8C
78
20
30
ENDCHAR
STARTCHAR 01ED
ENCODING 493
SWIDTH 514 0
DWIDTH 5 0
BBX 5 9 0 -2
BITMAP
70
00
78
48
88
48
70
20
30
ENDCHAR
STARTCHAR 01EE
ENCODING 494
SWIDTH 514 0
DWIDTH 5 0
BBX 5 9 0 0
BITMAP
50
20
78
10
20
30
08
08
F0
ENDCHAR
STARTCHAR 01EF
ENCODING 495
SWIDTH 411 0
DWIDTH 4 0
BBX 4 9 0 -1
BITMAP
60
00
F0
20
40
30
10
10
E0
ENDCHAR
STARTCHAR 01F0
ENCODING 496
SWIDTH 205 0
DWIDTH 2 0
BBX 3 9 -1 -1
BITMAP
60
00
20
20
20
20
20
20
C0
ENDCHAR
STARTCHAR 01F1
ENCODING 497
SWIDTH 1234 0
DWIDTH 12 0
BBX 11 7 1 0
BITMAP
E3E0
9820
8840
8880
8900
8900
F3E0
ENDCHAR
STARTCHAR 01F2
ENCODING 498
SWIDTH 1131 0
DWIDTH 11 0
BBX 10 7 1 0
BITMAP
E000
9800
8BC0
8880
8880
8900
F3C0
ENDCHAR
STARTCHAR 01F3
ENCODING 499
SWIDTH 1028 0
DWIDTH 10 0
BBX 10 7 0 1
BITMAP
0800
0800
7BC0
4880
8900
4900
7BC0
ENDCHAR
STARTCHAR 01F4
ENCODING 500
SWIDTH 617 0
DWIDTH 6 0
BBX 5 9 1 0
BITMAP
10
20
78
80
80
80
88
88
78
ENDCHAR
STARTCHAR 01F5
ENCODING 501
SWIDTH 514 0
DWIDTH 5 0
BBX 5 10 0 -2
BITMAP
10
10
00
78
48
88
48
78
08
70
ENDCHAR
STARTCHAR 01F6
ENCODING 502
SWIDTH 1028 0
DWIDTH 10 0
BBX 9 7 1 0
BITMAP
8800
8800
8880
F880
8880
8900
8700
ENDCHAR
STARTCHAR 01F7
ENCODING 503
SWIDTH 617 0
DWIDTH 6 0
BBX 5 9 1 -2
BITMAP
F0
98
88
88
90
A0
C0
80
80
ENDCHAR
STARTCHAR 01F8
ENCODING 504
SWIDTH 720 0
DWIDTH 7 0
BBX 5 9 1 0
BITMAP
40
20
88
C8
C8
A8
98
88
88
ENDCHAR
STARTCHAR 01F9
ENCODING 505
SWIDTH 514 0
DWIDTH 5 0
BBX 4 7 1 1
BITMAP
40
00
E0
90
90
90
90
ENDCHAR
STARTCHAR 01FA
ENCODING 506
SWIDTH 617 0
DWIDTH 6 0
BBX 6 9 0 0
BITMAP
30
30
10
30
28
48
78
44
84
ENDCHAR
STARTCHAR 01FB
ENCODING 507
SWIDTH 514 0
DWIDTH 5 0
BBX 4 8 0 1
BITMAP
20
60
00
70
10
70
90
70
ENDCHAR
STARTCHAR 01FC
ENCODING 508
SWIDTH 925 0
DWIDTH 9 0
BBX 9 9 0 0
BITMAP
0200
0400
0F00
1400
1400
2700
7C00
4400
8780
ENDCHAR
STARTCHAR 01FD
ENCODING 509
SWIDTH 822 0
DWIDTH 8 0
BBX 8 7 0 1
BITMAP
08
00
7E
11
7F
88
7E
ENDCHAR
STARTCHAR 01FE
ENCODING 510
SWIDTH 720 0
DWIDTH 7 0
BBX 6 9 1 0
BITMAP
10
20
74
88
94
A4
A4
CC
F8
ENDCHAR
STARTCHAR 01FF
ENCODING 511
SWIDTH 514 0
DWIDTH 5 0
BBX 5 8 0 0
BITMAP
10
10
00
78
58
A8
48
70
ENDCHAR
STARTCHAR 0200
ENCODING 512
SWIDTH 617 0
DWIDTH 6 0
BBX 6 9 0 0
BITMAP
50
20
10
30
28
48
78
44
84
ENDCHAR
STARTCHAR 0201
ENCODING 513
SWIDTH 514 0
DWIDTH 5 0
BBX 4 7 0 1
BITMAP
60
00
70
10
70
90
70
ENDCHAR
STARTCHAR 0202
ENCODING 514
SWIDTH 617 0
DWIDTH 6 0
BBX 6 9 0 0
BITMAP
30
00
10
30
28
48
78
44
84
ENDCHAR
STARTCHAR 0203
ENCODING 515
SWIDTH 514 0
DWIDTH 5 0
BBX 4 7 0 0
BITMAP
70
00
70
10
70
90
70
ENDCHAR
STARTCHAR 0204
ENCODING 516
SWIDTH 514 0
DWIDTH 5 0
BBX 4 9 1 0
BITMAP
A0
40
F0
80
80
F0
80
80
F0
ENDCHAR
STARTCHAR 0205
ENCODING 517
SWIDTH 514 0
DWIDTH 5 0
BBX 5 7 0 1
BITMAP
50
00
70
48
F8
40
78
ENDCHAR
STARTCHAR 0206
ENCODING 518
SWIDTH 514 0
DWIDTH 5 0
BBX 4 9 1 0
BITMAP
60
00
F0
80
80
F0
80
80
F0
ENDCHAR
STARTCHAR 0207
ENCODING 519
SWIDTH 514 0
DWIDTH 5 0
BBX 5 7 0 0
BITMAP
70
00
70
48
F8
40
78
ENDCHAR
STARTCHAR 0208
ENCODING 520
SWIDTH 205 0
DWIDTH 2 0
BBX 4 9 -1 0
BITMAP
A0
50
20
20
20
20
20
20
20
ENDCHAR
STARTCHAR 0209
ENCODING 521
SWIDTH 205 0
DWIDTH 2 0
BBX 2 7 0 1
BITMAP
C0
00
40
40
40
40
40
ENDCHAR
STARTCHAR 020A
ENCODING 522
SWIDTH 205 0
DWIDTH 2 0
BBX 3 9 0 0
BITMAP
C0
A0
40
40
40
40
40
40
40
ENDCHAR
STARTCHAR 020B
ENCODING 523
SWIDTH 205 0
DWIDTH 2 0
BBX 2 7 0 0
BITMAP
C0
00
40
40
40
40
40
ENDCHAR
STARTCHAR 020C
ENCODING 524
SWIDTH 720 0
DWIDTH 7 0
BBX 6 9 1 0
BITMAP
60
10
70
88
84
84
84
8C
78
ENDCHAR
STARTCHAR 020D
ENCODING 525
SWIDTH 514 0
DWIDTH 5 0
BBX 5 7 0 1
BITMAP
50
00
78
48
88
48
70
ENDCHAR
STARTCHAR 020E
ENCODING 526
SWIDTH 720 0
DWIDTH 7 0
BBX 6 9 1 0
BITMAP
30
50
70
88
84
84
84
8C
78
ENDCHAR
STARTCHAR 020F
ENCODING 527
SWIDTH 514 0
DWIDTH 5 0
BBX 5 7 0 0
BITMAP
70
00
78
48
88
48
70
ENDCHAR
STARTCHAR 0210
ENCODING 528
SWIDTH 617 0
DWIDTH 6 0
BBX 5 9 1 0
BITMAP
C0
20
E0
90
88
90
E0
90
88
ENDCHAR
STARTCHAR 0211
ENCODING 529
SWIDTH 308 0
DWIDTH 3 0
BBX 4 7 0 1
BITMAP
A0
00
70
40
40
40
40
ENDCHAR
STARTCHAR 0212
ENCODING 530
SWIDTH 617 0
DWIDTH 6 0
BBX 5 9 1 0
BITMAP
60
00
E0
90
88
90
E0
90
88
ENDCHAR
STARTCHAR 0213
ENCODING 531
SWIDTH 308 0
DWIDTH 3 0
BBX 3 7 1 0
BITMAP
C0
00
E0
80
80
80
80
ENDCHAR
STARTCHAR 0214
ENCODING 532
SWIDTH 617 0
DWIDTH 6 0
BBX 5 9 1 0
BITMAP
A0
50
88
88
88
88
88
88
70
ENDCHAR
STARTCHAR 0215
ENCODING 533
SWIDTH 514 0
DWIDTH 5 0
BBX 4 7 1 1
BITMAP
A0
00
90
90
90
90
F0
ENDCHAR
STARTCHAR 0216
ENCODING 534
SWIDTH 617 0
DWIDTH 6 0
BBX 5 9 1 0
BITMAP
60
50
88
88
88
88
88
88
70
ENDCHAR
STARTCHAR 0217
ENCODING 535
SWIDTH 514 0
DWIDTH 5 0
BBX 4 7 1 0
BITMAP
E0
00
90
90
90
90
F0
ENDCHAR
STARTCHAR 0218
ENCODING 536
SWIDTH 514 0
DWIDTH 5 0
BBX 5 9 0 -2
BITMAP
78
40
40
70
18
08
F0
20
20
ENDCHAR
STARTCHAR 0219
ENCODING 537
SWIDTH 411 0
DWIDTH 4 0
BBX 4 7 0 -2
BITMAP
70
80
60
10
F0
20
40
ENDCHAR
STARTCHAR 021A
ENCODING 538
SWIDTH 514 0
DWIDTH 5 0
BBX 5 9 0 -2
BITMAP
F8
20
20
20
20
20
20
20
20
ENDCHAR
STARTCHAR 021B
ENCODING 539
SWIDTH 308 0
DWIDTH 3 0
BBX 3 9 1 -2
BITMAP
80
80
E0
80
80
80
E0
40
80
ENDCHAR
STARTCHAR 021C
ENCODING 540
SWIDTH 514 0
DWIDTH 5 0
BBX 5 9 0 -2
BITMAP
F0
10
10
10
30
08
08
10
E0
ENDCHAR
STARTCHAR 021D
ENCODING 541
SWIDTH 411 0
DWIDTH 4 0
BBX 4 7 0 -2
BITMAP
E0
10
20
20
10
30
C0
ENDCHAR
STARTCHAR 021E
ENCODING 542
SWIDTH 617 0
DWIDTH 6 0
BBX 5 9 1 0
BITMAP
50
20
88
88
88
F8
88
88
88
ENDCHAR
STARTCHAR 021F
ENCODING 543
SWIDTH 514 0
DWIDTH 5 0
BBX 4 9 1 0
BITMAP
80
80
80
80
E0
90
90
90
90
ENDCHAR
STARTCHAR 0220
ENCODING 544
SWIDTH 617 0
DWIDTH 6 0
BBX 5 9 1 -2
BITMAP
F0
98
88
88
88
88
88
08
08
ENDCHAR
STARTCHAR 0221
ENCODING 545
SWIDTH 720 0
DWIDTH 7 0
BBX 7 9 0 -1
BITMAP
08
08
78
48
88
48
7E
0A
16
ENDCHAR
STARTCHAR 0222
ENCODING 546
SWIDTH 617 0
DWIDTH 6 0
BBX 5 7 1 0
BITMAP
80
88
90
F0
88
88
F0
ENDCHAR
STARTCHAR 0223
ENCODING 547
SWIDTH 514 0
DWIDTH 5 0
BBX 5 8 0 0
BITMAP
48
48
48
70
48
88
48
78
ENDCHAR
STARTCHAR 0224
ENCODING 548
SWIDTH 514 0
DWIDTH 5 0
BBX 5 9 0 -2
BITMAP
F8
08
10
20
40
40
F8
08
18
ENDCHAR
STARTCHAR 0225
ENCODING 549
SWIDTH 411 0
DWIDTH 4 0
BBX 4 7 0 -2
BITMAP
F0
20
20
40
F0
10
30
ENDCHAR
STARTCHAR 0226
ENCODING 550
SWIDTH 617 0
DWIDTH 6 0
BBX 6 9 0 0
BITMAP
10
00
10
30
28
48
78
44
84
ENDCHAR
STARTCHAR 0227
ENCODING 551
SWIDTH 514 0
DWIDTH 5 0
BBX 4 7 0 0
BITMAP
20
00
70
10
70
90
70
ENDCHAR
STARTCHAR 0228
ENCODING 552
SWIDTH 514 0
DWIDTH 5 0
BBX 4 9 1 -2
BITMAP
F0
80
80
F0
80
80
F0
40
60
ENDCHAR
STARTCHAR 0229
ENCODING 553
SWIDTH 514 0
DWIDTH 5 0
BBX 5 7 0 -2
BITMAP
70
48
F8
40
78
20
20
ENDCHAR
STARTCHAR 022A
ENCODING 554
SWIDTH 720 0
DWIDTH 7 0
BBX 6 9 1 0
BITMAP
30
50
70
88
84
84
84
8C
78
ENDCHAR
STARTCHAR 022B
ENCODING 555
SWIDTH 514 0
DWIDTH 5 0
BBX 5 8 0 0
BITMAP
30
50
00
78
48
88
48
70
ENDCHAR
STARTCHAR 022C
ENCODING 556
SWIDTH 720 0
DWIDTH 7 0
BBX 6 9 1 0
BITMAP
30
70
70
88
84
84
84
8C
78
ENDCHAR
STARTCHAR 022D
ENCODING 557
SWIDTH 514 0
DWIDTH 5 0
BBX 5 8 0 0
BITMAP
30
30
00
78
48
88
48
70
ENDCHAR
STARTCHAR 022E
ENCODING 558
SWIDTH 720 0
DWIDTH 7 0
BBX 6 9 1 0
BITMAP
20
00
70
88
84
84
84
8C
78
ENDCHAR
STARTCHAR 022F
ENCODING 559
SWIDTH 514 0
DWIDTH 5 0
BBX 5 7 0 0
BITMAP
20
00
78
48
88
48
70
ENDCHAR
STARTCHAR 0230
ENCODING 560
SWIDTH 720 0
DWIDTH 7 0
BBX 6 9 1 0
BITMAP
30
20
70
88
84
84
84
8C
78
ENDCHAR
STARTCHAR 0231
ENCODING 561
SWIDTH 514 0
DWIDTH 5 0
BBX 5 8 0 0
BITMAP
30
20
00
78
48
88
48
70
ENDCHAR
STARTCHAR 0232
ENCODING 562
SWIDTH 514 0
DWIDTH 5 0
BBX 6 8 0 0
BITMAP
30
84
48
50
30
20
20
20
ENDCHAR
STARTCHAR 0233
ENCODING 563
SWIDTH 411 0
DWIDTH 4 0
BBX 5 9 0 -2
BITMAP
70
00
88
50
50
50
20
20
C0
ENDCHAR
STARTCHAR 0234
ENCODING 564
SWIDTH 308 0
DWIDTH 3 0
BBX 4 9 0 -1
BITMAP
40
40
40
40
40
40
70
50
B0
ENDCHAR
STARTCHAR 0235
ENCODING 565
SWIDTH 617 0
DWIDTH 6 0
BBX 6 7 1 -2
BITMAP
E0
90
90
90
9C
14
2C
ENDCHAR
STARTCHAR 0236
ENCODING 566
SWIDTH 308 0
DWIDTH 3 0
BBX 4 9 0 -2
BITMAP
40
40
70
40
40
40
70
50
B0
ENDCHAR
STARTCHAR 0237
ENCODING 567
SWIDTH 205 0
DWIDTH 2 0
BBX 3 7 -1 -2
BITMAP
20
20
20
20
20
20
C0
ENDCHAR
STARTCHAR 0238
ENCODING 568
SWIDTH 822 0
DWIDTH 8 0
BBX 9 7 0 1
BITMAP
0800
0800
7F00
4900
8880
4900
7F00
ENDCHAR
STARTCHAR 0239
ENCODING 569
SWIDTH 822 0
DWIDTH 8 0
BBX 9 7 0 -2
BITMAP
7F00
4900
8880
4900
7F00
0800
0800
ENDCHAR
STARTCHAR 023A
ENCODING 570
SWIDTH 617 0
DWIDTH 6 0
BBX 6 8 0 0
BITMAP
18
38
28
58
58
64
A4
20
ENDCHAR
STARTCHAR 023B
ENCODING 571
SWIDTH 617 0
DWIDTH 6 0
BBX 5 7 1 0
BITMAP
78
90
A0
A0
A0
C0
78
ENDCHAR
STARTCHAR 023C
ENCODING 572
SWIDTH 411 0
DWIDTH 4 0
BBX 4 7 0 -1
BITMAP
10
70
60
A0
60
70
40
ENDCHAR
STARTCHAR 023D
ENCODING 573
SWIDTH 514 0
DWIDTH 5 0
BBX 5 7 0 0
BITMAP
40
40
40
E0
40
40
78
ENDCHAR
STARTCHAR 023E
ENCODING 574
SWIDTH 617 0
DWIDTH 6 0
BBX 6 7 0 0
BITMAP
FC
28
30
30
20
60
A0
ENDCHAR
STARTCHAR 023F
ENCODING 575
SWIDTH 411 0
DWIDTH 4 0
BBX 4 7 0 -2
BITMAP
70
80
60
10
F0
40
30
ENDCHAR
STARTCHAR 0240
ENCODING 576
SWIDTH 411 0
DWIDTH 4 0
BBX 5 7 0 -2
BITMAP
F0
20
20
40
C0
20
18
ENDCHAR
STARTCHAR 0241
ENCODING 577
SWIDTH 411 0
DWIDTH 4 0
BBX 4 7 0 0
BITMAP
F0
10
10
20
40
40
40
ENDCHAR
STARTCHAR 0242
ENCODING 578
SWIDTH 411 0
DWIDTH 4 0
BBX 4 5 0 0
BITMAP
F0
10
20
40
40
ENDCHAR
STARTCHAR 0243
ENCODING 579
SWIDTH 617 0
DWIDTH 6 0
BBX 5 7 1 0
BITMAP
F0
98
90
F0
88
C8
F0
ENDCHAR
STARTCHAR 0244
ENCODING 580
SWIDTH 617 0
DWIDTH 6 0
BBX 7 7 0 0
BITMAP
44
44
44
FE
44
44
38
ENDCHAR
STARTCHAR 0245
ENCODING 581
SWIDTH 617 0
DWIDTH 6 0
BBX 6 7 0 0
BITMAP
10
30
28
48
48
44
84
ENDCHAR
STARTCHAR 0246
ENCODING 582
SWIDTH 514 0
DWIDTH 5 0
BBX 4 8 1 -1
BITMAP
F0
90
A0
F0
A0
C0
F0
80
ENDCHAR
STARTCHAR 0247
ENCODING 583
SWIDTH 514 0
DWIDTH 5 0
BBX 4 7 1 -1
BITMAP
20
F0
D0
F0
C0
F0
80
ENDCHAR
STARTCHAR 0248
ENCODING 584
SWIDTH 514 0
DWIDTH 5 0
BBX 5 7 0 0
BITMAP
10
10
10
38
10
10
F0
ENDCHAR
STARTCHAR 0249
ENCODING 585
SWIDTH 205 0
DWIDTH 2 0
BBX 3 9 0 -2
BITMAP
40
00
40
40
E0
40
40
40
80
ENDCHAR
STARTCHAR 024A
ENCODING 586
SWIDTH 720 0
DWIDTH 7 0
BBX 7 9 1 -2
BITMAP
70
88
84
84
84
8C
7C
04
06
ENDCHAR
STARTCHAR 024B
ENCODING 587
SWIDTH 514 0
DWIDTH 5 0
BBX 6 7 0 -2
BITMAP
78
48
88
48
78
08
0C
ENDCHAR
STARTCHAR 024C
ENCODING 588
SWIDTH 617 0
DWIDTH 6 0
BBX 5 7 1 0
BITMAP
E0
98
88
90
F0
90
88
ENDCHAR
STARTCHAR 024D
ENCODING 589
SWIDTH 308 0
DWIDTH 3 0
BBX 4 5 0 0
BITMAP
70
40
E0
40
40
ENDCHAR
STARTCHAR 024E
ENCODING 590
SWIDTH 617 0
DWIDTH 6 0
BBX 6 7 0 0
BITMAP
84
48
78
30
20
20
20
ENDCHAR
STARTCHAR 024F
ENCODING 591
SWIDTH 514 0
DWIDTH 5 0
BBX 5 7 0 -2
BITMAP
88
50
F8
50
20
20
C0
ENDCHAR
STARTCHAR 0292
ENCODING 658
SWIDTH 411 0
DWIDTH 4 0
BBX 4 7 0 -2
BITMAP
F0
20
40
30
10
10
E0
ENDCHAR
STARTCHAR 02BC
ENCODING 700
SWIDTH 308 0
DWIDTH 3 0
BBX 1 2 1 5
BITMAP
80
80
ENDCHAR
STARTCHAR 02C6
ENCODING 710
SWIDTH 308 0
DWIDTH 3 0
BBX 2 1 1 6
BITMAP
C0
ENDCHAR
STARTCHAR 02C7
ENCODING 711
SWIDTH 308 0
DWIDTH 3 0
BBX 2 1 1 7
BITMAP
C0
ENDCHAR
STARTCHAR 02C9
ENCODING 713
SWIDTH 308 0
DWIDTH 3 0
BBX 3 1 0 6
BITMAP
E0
ENDCHAR
STARTCHAR 02D8
ENCODING 728
SWIDTH 308 0
DWIDTH 3 0
BBX 2 1 1 6
BITMAP
C0
ENDCHAR
STARTCHAR 02D9
ENCODING 729
SWIDTH 308 0
DWIDTH 3 0
BBX 1 1 1 6
BITMAP
80
ENDCHAR
STARTCHAR 02DA
ENCODING 730
SWIDTH 308 0
DWIDTH 3 0
BBX 2 2 1 6
BITMAP
80
C0
ENDCHAR
STARTCHAR 02DB
ENCODING 731
SWIDTH 308 0
DWIDTH 3 0
BBX 1 2 1 -2
BITMAP
80
80
ENDCHAR
STARTCHAR 02DC
ENCODING 732
SWIDTH 308 0
DWIDTH 3 0
BBX 3 1 0 6
BITMAP
E0
ENDCHAR
STARTCHAR 02DD
ENCODING 733
SWIDTH 308 0
DWIDTH 3 0
BBX 2 2 1 6
BITMAP
80
C0
ENDCHAR
STARTCHAR 0311
ENCODING 785
SWIDTH 308 0
DWIDTH 3 0
BBX 2 1 1 6
BITMAP
C0
ENDCHAR
STARTCHAR 0384
ENCODING 900
SWIDTH 308 0
DWIDTH 3 0
BBX 1 2 2 6
BITMAP
80
80
ENDCHAR
STARTCHAR 0385
ENCODING 901
SWIDTH 308 0
DWIDTH 3 0
BBX 4 1 0 7
BITMAP
D0
ENDCHAR
STARTCHAR 0386
ENCODING 902
SWIDTH 617 0
DWIDTH 6 0
BBX 6 7 0 0
BITMAP
50
70
28
48
78
44
84
ENDCHAR
STARTCHAR 0388
ENCODING 904
SWIDTH 617 0
DWIDTH 6 0
BBX 6 7 0 0
BITMAP
FC
C0
40
78
40
40
7C
ENDCHAR
STARTCHAR 0389
ENCODING 905
SWIDTH 720 0
DWIDTH 7 0
BBX 7 7 0 0
BITMAP
C2
C2
42
7E
42
42
42
ENDCHAR
STARTCHAR 038A
ENCODING 906
SWIDTH 308 0
DWIDTH 3 0
BBX 2 7 0 0
BITMAP
C0
C0
40
40
40
40
40
ENDCHAR
STARTCHAR 038C
ENCODING 908
SWIDTH 720 0
DWIDTH 7 0
BBX 7 7 0 0
BITMAP
BC
E6
42
42
42
42
3C
ENDCHAR
STARTCHAR 038E
ENCODING 910
SWIDTH 720 0
DWIDTH 7 0
BBX 7 7 0 0
BITMAP
C2
A4
14
18
08
08
08
ENDCHAR
STARTCHAR 038F
ENCODING 911
SWIDTH 720 0
DWIDTH 7 0
BBX 7 7 0 0
BITMAP
BC
E2
42
42
42
22
66
ENDCHAR
STARTCHAR 0390
ENCODING 912
SWIDTH 205 0
DWIDTH 2 0
BBX 4 7 -1 1
BITMAP
B0
00
20
20
20
20
20
ENDCHAR
STARTCHAR 0391
ENCODING 913
SWIDTH 617 0
DWIDTH 6 0
BBX 6 7 0 0
BITMAP
10
30
28
48
78
44
84
ENDCHAR
STARTCHAR 0392
ENCODING 914
SWIDTH 617 0
DWIDTH 6 0
BBX 5 7 1 0
BITMAP
E0
90
90
F0
88
88
F0
ENDCHAR
STARTCHAR 0393
ENCODING 915
SWIDTH 411 0
DWIDTH 4 0
BBX 4 7 1 0
BITMAP
F0
80
80
80
80
80
80
ENDCHAR
STARTCHAR 0394
ENCODING 916
SWIDTH 617 0
DWIDTH 6 0
BBX 6 7 0 0
BITMAP
10
30
28
48
48
44
FC
ENDCHAR
STARTCHAR 0395
ENCODING 917
SWIDTH 514 0
DWIDTH 5 0
BBX 4 7 1 0
BITMAP
F0
80
80
F0
80
80
F0
ENDCHAR
STARTCHAR 0396
ENCODING 918
SWIDTH 514 0
DWIDTH 5 0
BBX 5 7 0 0
BITMAP
F8
08
10
20
40
40
F8
ENDCHAR
STARTCHAR 0397
ENCODING 919
SWIDTH 617 0
DWIDTH 6 0
BBX 5 7 1 0
BITMAP
88
88
88
F8
88
88
88
ENDCHAR
STARTCHAR 0398
ENCODING 920
SWIDTH 720 0
DWIDTH 7 0
BBX 6 7 1 0
BITMAP
70
88
84
F4
84
8C
78
ENDCHAR
STARTCHAR 0399
ENCODING 921
SWIDTH 205 0
DWIDTH 2 0
BBX 1 7 1 0
BITMAP
80
80
80
80
80
80
80
ENDCHAR
STARTCHAR 039A
ENCODING 922
SWIDTH 617 0
DWIDTH 6 0
BBX 5 7 1 0
BITMAP
98
90
A0
C0
A0
90
88
ENDCHAR
STARTCHAR 039B
ENCODING 923
SWIDTH 617 0
DWIDTH 6 0
BBX 6 7 0 0
BITMAP
10
30
28
48
48
44
84
ENDCHAR
STARTCHAR 039C
ENCODING 924
SWIDTH 822 0
DWIDTH 8 0
BBX 7 7 1 0
BITMAP
84
C4
CA
AA
B2
92
82
ENDCHAR
STARTCHAR 039D
ENCODING 925
SWIDTH 720 0
DWIDTH 7 0
BBX 5 7 1 0
BITMAP
88
C8
C8
A8
98
88
88
ENDCHAR
STARTCHAR 039E
ENCODING 926
SWIDTH 514 0
DWIDTH 5 0
BBX 5 7 0 0
BITMAP
F8
00
00
70
00
00
F8
ENDCHAR
STARTCHAR 039F
ENCODING 927
SWIDTH 720 0
DWIDTH 7 0
BBX 6 7 1 0
BITMAP
70
88
84
84
84
8C
78
ENDCHAR
STARTCHAR 03A0
ENCODING 928
SWIDTH 617 0
DWIDTH 6 0
BBX 5 7 1 0
BITMAP
F8
88
88
88
88
88
88
ENDCHAR
STARTCHAR 03A1
ENCODING 929
SWIDTH 514 0
DWIDTH 5 0
BBX 5 7 1 0
BITMAP
E0
90
88
90
E0
80
80
ENDCHAR
STARTCHAR 03A3
ENCODING 931
SWIDTH 514 0
DWIDTH 5 0
BBX 5 7 0 0
BITMAP
F8
40
20
10
20
40
F8
ENDCHAR
STARTCHAR 03A4
ENCODING 932
SWIDTH 514 0
DWIDTH 5 0
BBX 5 7 0 0
BITMAP
F8
20
20
20
20
20
20
ENDCHAR
STARTCHAR 03A5
ENCODING 933
SWIDTH 514 0
DWIDTH 5 0
BBX 6 7 0 0
BITMAP
84
48
50
30
20
20
20
ENDCHAR
STARTCHAR 03A6
ENCODING 934
SWIDTH 822 0
DWIDTH 8 0
BBX 7 7 1 0
BITMAP
10
FC
92
92
92
7C
10
ENDCHAR
STARTCHAR 03A7
ENCODING 935
SWIDTH 617 0
DWIDTH 6 0
BBX 6 7 0 0
BITMAP
C4
48
30
30
30
48
C4
ENDCHAR
STARTCHAR 03A8
ENCODING 936
SWIDTH 720 0
DWIDTH 7 0
BBX 6 7 1 0
BITMAP
A4
A4
A4
A4
FC
20
20
ENDCHAR
STARTCHAR 03A9
ENCODING 937
SWIDTH 720 0
DWIDTH 7 0
BBX 7 7 0 0
BITMAP
38
44
42
42
42
44
E6
ENDCHAR
STARTCHAR 03AA
ENCODING 938
SWIDTH 205 0
DWIDTH 2 0
BBX 3 9 0 0
BITMAP
A0
00
40
40
40
40
40
40
40
ENDCHAR
STARTCHAR 03AB
ENCODING 939
SWIDTH 514 0
DWIDTH 5 0
BBX 6 9 0 0
BITMAP
10
00
84
48
50
30
20
20
20
ENDCHAR
STARTCHAR 03AC
ENCODING 940
SWIDTH 514 0
DWIDTH 5 0
BBX 6 8 0 0
BITMAP
10
10
00
78
48
88
48
7C
ENDCHAR
STARTCHAR 03AD
ENCODING 941
SWIDTH 411 0
DWIDTH 4 0
BBX 4 7 1 1
BITMAP
40
00
E0
80
E0
80
F0
ENDCHAR
STARTCHAR 03AE
ENCODING 942
SWIDTH 514 0
DWIDTH 5 0
BBX 4 9 1 -1
BITMAP
40
00
E0
90
90
90
90
10
10
ENDCHAR
STARTCHAR 03AF
ENCODING 943
SWIDTH 205 0
DWIDTH 2 0
BBX 1 7 1 1
BITMAP
80
00
80
80
80
80
80
ENDCHAR
STARTCHAR 03B0
ENCODING 944
SWIDTH 514 0
DWIDTH 5 0
BBX 4 7 1 1
BITMAP
D0
00
90
90
90
90
E0
ENDCHAR
STARTCHAR 03B1
ENCODING 945
SWIDTH 514 0
DWIDTH 5 0
BBX 6 5 0 0
BITMAP
78
48
88
48
7C
ENDCHAR
STARTCHAR 03B2
ENCODING 946
SWIDTH 514 0
DWIDTH 5 0
BBX 4 10 1 -2
BITMAP
40
B0
90
A0
90
90
90
F0
80
80
ENDCHAR
STARTCHAR 03B3
ENCODING 947
SWIDTH 411 0
DWIDTH 4 0
BBX 5 7 0 -2
BITMAP
88
50
50
60
20
20
20
ENDCHAR
STARTCHAR 03B4
ENCODING 948
SWIDTH 514 0
DWIDTH 5 0
BBX 5 8 0 0
BITMAP
10
68
20
30
48
88
48
78
ENDCHAR
STARTCHAR 03B5
ENCODING 949
SWIDTH 411 0
DWIDTH 4 0
BBX 4 5 1 0
BITMAP
E0
80
E0
80
F0
ENDCHAR
STARTCHAR 03B6
ENCODING 950
SWIDTH 411 0
DWIDTH 4 0
BBX 4 9 0 -2
BITMAP
70
20
40
40
80
40
70
10
10
ENDCHAR
STARTCHAR 03B7
ENCODING 951
SWIDTH 514 0
DWIDTH 5 0
BBX 4 7 1 -2
BITMAP
E0
90
90
90
90
10
10
ENDCHAR
STARTCHAR 03B8
ENCODING 952
SWIDTH 514 0
DWIDTH 5 0
BBX 4 8 1 0
BITMAP
40
B0
90
90
F0
90
90
E0
ENDCHAR
STARTCHAR 03B9
ENCODING 953
SWIDTH 205 0
DWIDTH 2 0
BBX 1 5 1 0
BITMAP
80
80
80
80
80
ENDCHAR
STARTCHAR 03BA
ENCODING 954
SWIDTH 514 0
DWIDTH 5 0
BBX 4 5 1 0
BITMAP
A0
C0
C0
A0
90
ENDCHAR
STARTCHAR 03BB
ENCODING 955
SWIDTH 411 0
DWIDTH 4 0
BBX 5 8 0 0
BITMAP
80
40
20
20
50
50
50
88
ENDCHAR
STARTCHAR 03BC
ENCODING 956
SWIDTH 514 0
DWIDTH 5 0
BBX 4 7 1 -2
BITMAP
90
90
90
90
F0
80
80
ENDCHAR
STARTCHAR 03BD
ENCODING 957
SWIDTH 411 0
DWIDTH 4 0
BBX 5 5 0 0
BITMAP
88
50
50
50
20
ENDCHAR
STARTCHAR 03BE
ENCODING 958
SWIDTH 411 0
DWIDTH 4 0
BBX 4 10 0 -2
BITMAP
30
40
40
60
40
80
40
70
10
10
ENDCHAR
STARTCHAR 03BF
ENCODING 959
SWIDTH 514 0
DWIDTH 5 0
BBX 5 5 0 0
BITMAP
78
48
88
48
70
ENDCHAR
STARTCHAR 03C0
ENCODING 960
SWIDTH 514 0
DWIDTH 5 0
BBX 4 5 1 0
BITMAP
F0
90
90
90
90
ENDCHAR
STARTCHAR 03C1
ENCODING 961
SWIDTH 514 0
DWIDTH 5 0
BBX 4 7 1 -2
BITMAP
F0
90
90
90
F0
80
80
ENDCHAR
STARTCHAR 03C2
ENCODING 962
SWIDTH 411 0
DWIDTH 4 0
BBX 4 7 0 -2
BITMAP
70
40
80
40
70
10
10
ENDCHAR
STARTCHAR 03C3
ENCODING 963
SWIDTH 514 0
DWIDTH 5 0
BBX 6 5 0 0
BITMAP
7C
48
88
48
70
ENDCHAR
STARTCHAR 03C4
ENCODING 964
SWIDTH 411 0
DWIDTH 4 0
BBX 4 5 0 0
BITMAP
F0
40
40
40
30
ENDCHAR
STARTCHAR 03C5
ENCODING 965
SWIDTH 514 0
DWIDTH 5 0
BBX 4 5 1 0
BITMAP
90
90
90
90
E0
ENDCHAR
STARTCHAR 03C6
ENCODING 966
SWIDTH 720 0
DWIDTH 7 0
BBX 7 7 0 -2
BITMAP
7C
52
92
52
3C
10
10
ENDCHAR
STARTCHAR 03C7
ENCODING 967
SWIDTH 411 0
DWIDTH 4 0
BBX 5 5 0 0
BITMAP
50
50
20
50
88
ENDCHAR
STARTCHAR 03C8
ENCODING 968
SWIDTH 720 0
DWIDTH 7 0
BBX 6 7 1 -2
BITMAP
A4
A4
A4
A4
78
20
20
ENDCHAR
STARTCHAR 03C9
ENCODING 969
SWIDTH 822 0
DWIDTH 8 0
BBX 7 5 1 0
BITMAP
84
94
92
92
FC
ENDCHAR
STARTCHAR 03CA
ENCODING 970
SWIDTH 205 0
DWIDTH 2 0
BBX 3 7 0 0
BITMAP
A0
00
40
40
40
40
40
ENDCHAR
STARTCHAR 03CB
ENCODING 971
SWIDTH 514 0
DWIDTH 5 0
BBX 4 7 1 0
BITMAP
A0
00
90
90
90
90
E0
ENDCHAR
STARTCHAR 03CC
ENCODING 972
SWIDTH 514 0
DWIDTH 5 0
BBX 5 7 0 1
BITMAP
20
00
78
48
88
48
70
ENDCHAR
STARTCHAR 03CD
ENCODING 973
SWIDTH 514 0
DWIDTH 5 0
BBX 4 7 1 1
BITMAP
40
00
90
90
90
90
E0
ENDCHAR
STARTCHAR 03CE
ENCODING 974
SWIDTH 822 0
DWIDTH 8 0
BBX 7 8 1 0
BITMAP
10
10
00
84
94
92
92
FC
ENDCHAR
STARTCHAR 0400
ENCODING 1024
SWIDTH 514 0
DWIDTH 5 0
BBX 4 9 1 0
BITMAP
40
20
F0
80
80
F0
80
80
F0
ENDCHAR
STARTCHAR 0401
ENCODING 1025
SWIDTH 514 0
DWIDTH 5 0
BBX 4 9 1 0
BITMAP
20
00
F0
80
80
F0
80
80
F0
ENDCHAR
STARTCHAR 0402
ENCODING 1026
SWIDTH 720 0
DWIDTH 7 0
BBX 7 7 0 0
BITMAP
F8
20
20
3C
22
22
2C
ENDCHAR
STARTCHAR 0403
ENCODING 1027
SWIDTH 411 0
DWIDTH 4 0
BBX 4 9 1 0
BITMAP
20
40
F0
80
80
80
80
80
80
ENDCHAR
STARTCHAR 0404
ENCODING 1028
SWIDTH 617 0
DWIDTH 6 0
BBX 5 7 1 0
BITMAP
78
80
80
F0
80
80
78
ENDCHAR
STARTCHAR 0405
ENCODING 1029
SWIDTH 514 0
DWIDTH 5 0
BBX 5 7 0 0
BITMAP
78
40
40
70
18
08
F0
ENDCHAR
STARTCHAR 0406
ENCODING 1030
SWIDTH 205 0
DWIDTH 2 0
BBX 1 7 1 0
BITMAP
80
80
80
80
80
80
80
ENDCHAR
STARTCHAR 0407
ENCODING 1031
SWIDTH 205 0
DWIDTH 2 0
BBX 3 9 0 0
BITMAP
A0
00
40
40
40
40
40
40
40
ENDCHAR
STARTCHAR 0408
ENCODING 1032
SWIDTH 411 0
DWIDTH 4 0
BBX 4 7 0 0
BITMAP
10
10
10
10
10
10
F0
ENDCHAR
STARTCHAR 0409
ENCODING 1033
SWIDTH 1028 0
DWIDTH 10 0
BBX 10 7 0 0
BITMAP
3C00
2400
2400
2780
2440
6440
C780
ENDCHAR
STARTCHAR 040A
ENCODING 1034
SWIDTH 925 0
DWIDTH 9 0
BBX 9 7 1 0
BITMAP
8800
8800
8800
FF00
8880
8980
8F00
ENDCHAR
STARTCHAR 040B
ENCODING 1035
SWIDTH 720 0
DWIDTH 7 0
BBX 7 7 0 0
BITMAP
F8
20
20
3C
22
22
22
ENDCHAR
STARTCHAR 040C
ENCODING 1036
SWIDTH 617 0
DWIDTH 6 0
BBX 5 9 1 0
BITMAP
20
00
98
90
A0
C0
A0
90
88
ENDCHAR
STARTCHAR 040D
ENCODING 1037
SWIDTH 720 0
DWIDTH 7 0
BBX 5 9 1 0
BITMAP
40
20
88
98
98
A8
C8
C8
88
ENDCHAR
STARTCHAR 040E
ENCODING 1038
SWIDTH 514 0
DWIDTH 5 0
BBX 6 8 0 1
BITMAP
30
84
48
48
30
30
10
60
ENDCHAR
STARTCHAR 040F
ENCODING 1039
SWIDTH 617 0
DWIDTH 6 0
BBX 5 9 1 -2
BITMAP
88
88
88
88
88
88
F8
20
20
ENDCHAR
STARTCHAR 0410
ENCODING 1040
SWIDTH 617 0
DWIDTH 6 0
BBX 6 7 0 0
BITMAP
10
30
28
48
78
44
84
ENDCHAR
STARTCHAR 0411
ENCODING 1041
SWIDTH 617 0
DWIDTH 6 0
BBX 5 7 1 0
BITMAP
F0
80
80
F0
88
88
F0
ENDCHAR
STARTCHAR 0412
ENCODING 1042
SWIDTH 617 0
DWIDTH 6 0
BBX 5 7 1 0
BITMAP
E0
90
90
F0
88
88
F0
ENDCHAR
STARTCHAR 0413
ENCODING 1043
SWIDTH 411 0
DWIDTH 4 0
BBX 4 7 1 0
BITMAP
F0
80
80
80
80
80
80
ENDCHAR
STARTCHAR 0414
ENCODING 1044
SWIDTH 720 0
DWIDTH 7 0
BBX 7 9 0 -2
BITMAP
3C
24
24
24
24
44
FE
82
82
ENDCHAR
STARTCHAR 0415
ENCODING 1045
SWIDTH 514 0
DWIDTH 5 0
BBX 4 7 1 0
BITMAP
F0
80
80
F0
80
80
F0
ENDCHAR
STARTCHAR 0416
ENCODING 1046
SWIDTH 822 0
DWIDTH 8 0
BBX 7 7 1 0
BITMAP
92
94
5C
38
54
96
92
ENDCHAR
STARTCHAR 0417
ENCODING 1047
SWIDTH 514 0
DWIDTH 5 0
BBX 5 7 0 0
BITMAP
70
08
08
70
08
08
F8
ENDCHAR
STARTCHAR 0418
ENCODING 1048
SWIDTH 720 0
DWIDTH 7 0
BBX 5 7 1 0
BITMAP
88
98
98
A8
C8
C8
88
ENDCHAR
STARTCHAR 0419
ENCODING 1049
SWIDTH 720 0
DWIDTH 7 0
BBX 5 9 1 0
BITMAP
50
20
88
98
98
A8
C8
C8
88
ENDCHAR
STARTCHAR 041A
ENCODING 1050
SWIDTH 617 0
DWIDTH 6 0
BBX 5 7 1 0
BITMAP
98
90
A0
C0
A0
90
88
ENDCHAR
STARTCHAR 041B
ENCODING 1051
SWIDTH 617 0
DWIDTH 6 0
BBX 6 7 0 0
BITMAP
3C
24
24
24
24
64
C4
ENDCHAR
STARTCHAR 041C
ENCODING 1052
SWIDTH 822 0
DWIDTH 8 0
BBX 7 7 1 0
BITMAP
84
C4
CA
AA
B2
92
82
ENDCHAR
STARTCHAR 041D
ENCODING 1053
SWIDTH 617 0
DWIDTH 6 0
BBX 5 7 1 0
BITMAP
88
88
88
F8
88
88
88
ENDCHAR
STARTCHAR 041E
ENCODING 1054
SWIDTH 720 0
DWIDTH 7 0
BBX 6 7 1 0
BITMAP
70
88
84
84
84
8C
78
ENDCHAR
STARTCHAR 041F
ENCODING 1055
SWIDTH 617 0
DWIDTH 6 0
BBX 5 7 1 0
BITMAP
F8
88
88
88
88
88
88
ENDCHAR
STARTCHAR 0420
ENCODING 1056
SWIDTH 514 0
DWIDTH 5 0
BBX 5 7 1 0
BITMAP
E0
90
88
90
E0
80
80
ENDCHAR
STARTCHAR 0421
ENCODING 1057
SWIDTH 617 0
DWIDTH 6 0
BBX 5 7 1 0
BITMAP
78
80
80
80
80
80
78
ENDCHAR
STARTCHAR 0422
ENCODING 1058
SWIDTH 514 0
DWIDTH 5 0
BBX 5 7 0 0
BITMAP
F8
20
20
20
20
20
20
ENDCHAR
STARTCHAR 0423
ENCODING 1059
SWIDTH 514 0
DWIDTH 5 0
BBX 6 7 0 0
BITMAP
84
48
48
30
30
10
60
ENDCHAR
STARTCHAR 0424
ENCODING 1060
SWIDTH 822 0
DWIDTH 8 0
BBX 7 7 1 0
BITMAP
10
FC
92
92
92
7C
10
ENDCHAR
STARTCHAR 0425
ENCODING 1061
SWIDTH 617 0
DWIDTH 6 0
BBX 6 7 0 0
BITMAP
C4
48
30
30
30
48
C4
ENDCHAR
STARTCHAR 0426
ENCODING 1062
SWIDTH 617 0
DWIDTH 6 0
BBX 6 9 1 -2
BITMAP
88
88
88
88
88
88
FC
04
04
ENDCHAR
STARTCHAR 0427
ENCODING 1063
SWIDTH 617 0
DWIDTH 6 0
BBX 4 7 1 0
BITMAP
90
90
90
90
70
10
10
ENDCHAR
STARTCHAR 0428
ENCODING 1064
SWIDTH 925 0
DWIDTH 9 0
BBX 8 7 1 0
BITMAP
91
91
91
91
91
91
FF
ENDCHAR
STARTCHAR 0429
ENCODING 1065
SWIDTH 925 0
DWIDTH 9 0
BBX 9 9 1 -2
BITMAP
9100
9100
9100
9100
9100
9100
FF80
0080
0080
ENDCHAR
STARTCHAR 042A
ENCODING 1066
SWIDTH 720 0
DWIDTH 7 0
BBX 7 7 0 0
BITMAP
E0
20
20
3C
22
22
3C
ENDCHAR
STARTCHAR 042B
ENCODING 1067
SWIDTH 822 0
DWIDTH 8 0
BBX 6 7 1 0
BITMAP
80
84
84
F4
94
94
F4
ENDCHAR
STARTCHAR 042C
ENCODING 1068
SWIDTH 514 0
DWIDTH 5 0
BBX 5 7 1 0
BITMAP
80
80
80
F0
88
88
F0
ENDCHAR
STARTCHAR 042D
ENCODING 1069
SWIDTH 617 0
DWIDTH 6 0
BBX 5 7 0 0
BITMAP
F0
08
08
78
08
08
F0
ENDCHAR
STARTCHAR 042E
ENCODING 1070
SWIDTH 1028 0
DWIDTH 10 0
BBX 8 7 1 0
BITMAP
8E
91
A1
E1
A1
91
9E
ENDCHAR
STARTCHAR 042F
ENCODING 1071
SWIDTH 617 0
DWIDTH 6 0
BBX 4 7 1 0
BITMAP
70
90
90
D0
70
90
90
ENDCHAR
STARTCHAR 0430
ENCODING 1072
SWIDTH 514 0
DWIDTH 5 0
BBX 4 5 0 0
BITMAP
70
10
70
90
70
ENDCHAR
STARTCHAR 0431
ENCODING 1073
SWIDTH 514 0
DWIDTH 5 0
BBX 4 7 1 1
BITMAP
60
80
F0
90
90
90
F0
ENDCHAR
STARTCHAR 0432
ENCODING 1074
SWIDTH 514 0
DWIDTH 5 0
BBX 4 5 1 0
BITMAP
E0
90
E0
90
F0
ENDCHAR
STARTCHAR 0433
ENCODING 1075
SWIDTH 411 0
DWIDTH 4 0
BBX 3 5 1 0
BITMAP
E0
80
80
80
80
ENDCHAR
STARTCHAR 0434
ENCODING 1076
SWIDTH 514 0
DWIDTH 5 0
BBX 6 6 0 -1
BITMAP
38
48
48
48
FC
84
ENDCHAR
STARTCHAR 0435
ENCODING 1077
SWIDTH 514 0
DWIDTH 5 0
BBX 5 5 0 0
BITMAP
70
48
F8
40
78
ENDCHAR
STARTCHAR 0436
ENCODING 1078
SWIDTH 720 0
DWIDTH 7 0
BBX 7 5 0 0
BITMAP
52
34
38
54
92
ENDCHAR
STARTCHAR 0437
ENCODING 1079
SWIDTH 411 0
DWIDTH 4 0
BBX 4 5 0 0
BITMAP
70
10
70
10
F0
ENDCHAR
STARTCHAR 0438
ENCODING 1080
SWIDTH 514 0
DWIDTH 5 0
BBX 4 5 1 0
BITMAP
90
B0
D0
D0
90
ENDCHAR
STARTCHAR 0439
ENCODING 1081
SWIDTH 514 0
DWIDTH 5 0
BBX 4 7 1 0
BITMAP
60
00
90
B0
D0
D0
90
ENDCHAR
STARTCHAR 043A
ENCODING 1082
SWIDTH 514 0
DWIDTH 5 0
BBX 4 5 1 0
BITMAP
A0
C0
C0
A0
90
ENDCHAR
STARTCHAR 043B
ENCODING 1083
SWIDTH 514 0
DWIDTH 5 0
BBX 5 5 0 0
BITMAP
38
28
48
48
C8
ENDCHAR
STARTCHAR 043C
ENCODING 1084
SWIDTH 720 0
DWIDTH 7 0
BBX 5 5 1 0
BITMAP
88
D8
D8
A8
88
ENDCHAR
STARTCHAR 043D
ENCODING 1085
SWIDTH 514 0
DWIDTH 5 0
BBX 4 5 1 0
BITMAP
90
90
F0
90
90
ENDCHAR
STARTCHAR 043E
ENCODING 1086
SWIDTH 514 0
DWIDTH 5 0
BBX 5 5 0 0
BITMAP
78
48
88
48
70
ENDCHAR
STARTCHAR 043F
ENCODING 1087
SWIDTH 514 0
DWIDTH 5 0
BBX 4 5 1 0
BITMAP
F0
90
90
90
90
ENDCHAR
STARTCHAR 0440
ENCODING 1088
SWIDTH 514 0
DWIDTH 5 0
BBX 4 7 1 -2
BITMAP
E0
90
90
90
F0
80
80
ENDCHAR
STARTCHAR 0441
ENCODING 1089
SWIDTH 411 0
DWIDTH 4 0
BBX 4 5 0 0
BITMAP
70
40
80
40
70
ENDCHAR
STARTCHAR 0442
ENCODING 1090
SWIDTH 411 0
DWIDTH 4 0
BBX 4 5 0 0
BITMAP
F0
20
20
20
20
ENDCHAR
STARTCHAR 0443
ENCODING 1091
SWIDTH 411 0
DWIDTH 4 0
BBX 5 7 0 -2
BITMAP
88
50
50
50
20
20
C0
ENDCHAR
STARTCHAR 0444
ENCODING 1092
SWIDTH 720 0
DWIDTH 7 0
BBX 7 9 0 -1
BITMAP
10
10
7C
52
92
52
3C
10
10
ENDCHAR
STARTCHAR 0445
ENCODING 1093
SWIDTH 411 0
DWIDTH 4 0
BBX 5 5 0 0
BITMAP
50
50
20
50
88
ENDCHAR
STARTCHAR 0446
ENCODING 1094
SWIDTH 514 0
DWIDTH 5 0
BBX 4 6 1 -1
BITMAP
90
90
90
90
F0
10
ENDCHAR
STARTCHAR 0447
ENCODING 1095
SWIDTH 514 0
DWIDTH 5 0
BBX 4 5 0 0
BITMAP
90
90
70
10
10
ENDCHAR
STARTCHAR 0448
ENCODING 1096
SWIDTH 822 0
DWIDTH 8 0
BBX 6 5 1 0
BITMAP
A4
A4
A4
A4
FC
ENDCHAR
STARTCHAR 0449
ENCODING 1097
SWIDTH 822 0
DWIDTH 8 0
BBX 7 6 1 -1
BITMAP
A4
A4
A4
A4
FE
02
ENDCHAR
STARTCHAR 044A
ENCODING 1098
SWIDTH 514 0
DWIDTH 5 0
BBX 6 5 0 0
BITMAP
C0
40
78
44
78
ENDCHAR
STARTCHAR 044B
ENCODING 1099
SWIDTH 720 0
DWIDTH 7 0
BBX 6 5 1 0
BITMAP
84
84
F4
94
E4
ENDCHAR
STARTCHAR 044C
ENCODING 1100
SWIDTH 514 0
DWIDTH 5 0
BBX 4 5 1 0
BITMAP
80
80
F0
90
E0
ENDCHAR
STARTCHAR 044D
ENCODING 1101
SWIDTH 411 0
DWIDTH 4 0
BBX 4 5 0 0
BITMAP
70
10
70
10
F0
ENDCHAR
STARTCHAR 044E
ENCODING 1102
SWIDTH 720 0
DWIDTH 7 0
BBX 6 5 1 0
BITMAP
BC
A4
E4
A4
9C
ENDCHAR
STARTCHAR 044F
ENCODING 1103
SWIDTH 514 0
DWIDTH 5 0
BBX 5 5 0 0
BITMAP
78
48
78
48
88
ENDCHAR
STARTCHAR 0450
ENCODING 1104
SWIDTH 514 0
DWIDTH 5 0
BBX 5 7 0 1
BITMAP
20
00
70
48
F8
40
78
ENDCHAR
STARTCHAR 0451
ENCODING 1105
SWIDTH 514 0
DWIDTH 5 0
BBX 5 7 0 0
BITMAP
50
00
70
48
F8
40
78
ENDCHAR
STARTCHAR 0452
ENCODING 1106
SWIDTH 514 0
DWIDTH 5 0
BBX 5 10 0 -2
BITMAP
40
E0
40
70
48
48
48
48
08
10
ENDCHAR
STARTCHAR 0453
ENCODING 1107
SWIDTH 411 0
DWIDTH 4 0
BBX 3 7 1 1
BITMAP
40
00
E0
80
80
80
80
ENDCHAR
STARTCHAR 0454
ENCODING 1108
SWIDTH 411 0
DWIDTH 4 0
BBX 3 5 1 0
BITMAP
E0
80
C0
80
E0
ENDCHAR
STARTCHAR 0455
ENCODING 1109
SWIDTH 411 0
DWIDTH 4 0
BBX 4 5 0 0
BITMAP
70
80
60
10
F0
ENDCHAR
STARTCHAR 0456
ENCODING 1110
SWIDTH 205 0
DWIDTH 2 0
BBX 1 7 1 0
BITMAP
80
00
80
80
80
80
80
ENDCHAR
STARTCHAR 0457
ENCODING 1111
SWIDTH 205 0
DWIDTH 2 0
BBX 3 7 0 0
BITMAP
A0
00
40
40
40
40
40
ENDCHAR
STARTCHAR 0458
ENCODING 1112
SWIDTH 205 0
DWIDTH 2 0
BBX 3 9 -1 -2
BITMAP
20
00
20
20
20
20
20
20
C0
ENDCHAR
STARTCHAR 0459
ENCODING 1113
SWIDTH 822 0
DWIDTH 8 0
BBX 8 5 0 0
BITMAP
38
28
4F
49
CF
ENDCHAR
STARTCHAR 045A
ENCODING 1114
SWIDTH 822 0
DWIDTH 8 0
BBX 7 5 1 0
BITMAP
90
90
FE
92
9E
ENDCHAR
STARTCHAR 045B
ENCODING 1115
SWIDTH 514 0
DWIDTH 5 0
BBX 5 8 0 0
BITMAP
40
E0
40
70
48
48
48
48
ENDCHAR
STARTCHAR 045C
ENCODING 1116
SWIDTH 514 0
DWIDTH 5 0
BBX 4 7 1 1
BITMAP
40
00
A0
C0
C0
A0
90
ENDCHAR
STARTCHAR 045D
ENCODING 1117
SWIDTH 514 0
DWIDTH 5 0
BBX 4 7 1 1
BITMAP
40
00
90
B0
D0
D0
90
ENDCHAR
STARTCHAR 045E
ENCODING 1118
SWIDTH 411 0
DWIDTH 4 0
BBX 5 9 0 -2
BITMAP
70
00
88
50
50
50
20
20
C0
ENDCHAR
STARTCHAR 045F
ENCODING 1119
SWIDTH 514 0
DWIDTH 5 0
BBX 4 6 1 -1
BITMAP
90
90
90
90
F0
40
ENDCHAR
STARTCHAR 0462
ENCODING 1122
SWIDTH 720 0
DWIDTH 7 0
BBX 6 7 1 0
BITMAP
40
E0
40
78
44
44
78
ENDCHAR
STARTCHAR 0463
ENCODING 1123
SWIDTH 514 0
DWIDTH 5 0
BBX 6 7 0 1
BITMAP
40
40
F0
40
78
44
78
ENDCHAR
STARTCHAR 0472
ENCODING 1138
SWIDTH 720 0
DWIDTH 7 0
BBX 6 7 1 0
BITMAP
70
88
84
E4
9C
8C
78
ENDCHAR
STARTCHAR 0473
ENCODING 1139
SWIDTH 514 0
DWIDTH 5 0
BBX 5 5 0 0
BITMAP
78
48
F8
48
70
ENDCHAR
STARTCHAR 0474
ENCODING 1140
SWIDTH 720 0
DWIDTH 7 0
BBX 7 7 0 0
BITMAP
86
44
48
48
28
30
10
ENDCHAR
STARTCHAR 0475
ENCODING 1141
SWIDTH 514 0
DWIDTH 5 0
BBX 5 5 0 0
BITMAP
88
50
50
60
20
ENDCHAR
STARTCHAR 048A
ENCODING 1162
SWIDTH 720 0
DWIDTH 7 0
BBX 6 11 1 -2
BITMAP
50
20
88
98
98
A8
C8
C8
8C
04
08
ENDCHAR
STARTCHAR 048B
ENCODING 1163
SWIDTH 514 0
DWIDTH 5 0
BBX 5 8 1 -2
BITMAP
60
00
90
B0
D0
D0
98
08
ENDCHAR
STARTCHAR 048C
ENCODING 1164
SWIDTH 617 0
DWIDTH 6 0
BBX 6 7 0 0
BITMAP
40
E0
40
78
44
44
78
ENDCHAR
STARTCHAR 048D
ENCODING 1165
SWIDTH 514 0
DWIDTH 5 0
BBX 5 5 0 0
BITMAP
E0
40
78
48
70
ENDCHAR
STARTCHAR 048E
ENCODING 1166
SWIDTH 514 0
DWIDTH 5 0
BBX 5 7 1 0
BITMAP
E0
90
88
B0
E0
90
80
ENDCHAR
STARTCHAR 048F
ENCODING 1167
SWIDTH 514 0
DWIDTH 5 0
BBX 4 7 1 -2
BITMAP
E0
90
90
B0
F0
90
80
ENDCHAR
STARTCHAR 0490
ENCODING 1168
SWIDTH 411 0
DWIDTH 4 0
BBX 4 8 1 0
BITMAP
10
F0
80
80
80
80
80
80
ENDCHAR
STARTCHAR 0491
ENCODING 1169
SWIDTH 411 0
DWIDTH 4 0
BBX 3 6 1 0
BITMAP
20
E0
80
80
80
80
ENDCHAR
STARTCHAR 0492
ENCODING 1170
SWIDTH 514 0
DWIDTH 5 0
BBX 5 7 0 0
BITMAP
78
40
40
E0
40
40
40
ENDCHAR
STARTCHAR 0493
ENCODING 1171
SWIDTH 411 0
DWIDTH 4 0
BBX 4 5 0 0
BITMAP
70
40
E0
40
40
ENDCHAR
STARTCHAR 0494
ENCODING 1172
SWIDTH 617 0
DWIDTH 6 0
BBX 5 9 1 -2
BITMAP
F0
80
80
F0
98
88
88
10
20
ENDCHAR
STARTCHAR 0495
ENCODING 1173
SWIDTH 514 0
DWIDTH 5 0
BBX 4 7 1 -2
BITMAP
E0
80
E0
90
90
10
60
ENDCHAR
STARTCHAR 0496
ENCODING 1174
SWIDTH 822 0
DWIDTH 8 0
BBX 8 9 1 -2
BITMAP
92
94
5C
38
54
96
93
01
01
ENDCHAR
STARTCHAR 0497
ENCODING 1175
SWIDTH 720 0
DWIDTH 7 0
BBX 7 6 0 -1
BITMAP
52
34
38
54
92
02
ENDCHAR
STARTCHAR 0498
ENCODING 1176
SWIDTH 514 0
DWIDTH 5 0
BBX 5 9 0 -2
BITMAP
70
08
08
70
08
08
F8
20
20
ENDCHAR
STARTCHAR 0499
ENCODING 1177
SWIDTH 411 0
DWIDTH 4 0
BBX 4 7 0 -2
BITMAP
70
10
70
10
F0
20
60
ENDCHAR
STARTCHAR 049A
ENCODING 1178
SWIDTH 617 0
DWIDTH 6 0
BBX 5 9 1 -2
BITMAP
98
90
A0
C0
A0
90
88
08
08
ENDCHAR
STARTCHAR 049B
ENCODING 1179
SWIDTH 514 0
DWIDTH 5 0
BBX 4 6 1 -1
BITMAP
A0
C0
C0
A0
90
10
ENDCHAR
STARTCHAR 049C
ENCODING 1180
SWIDTH 617 0
DWIDTH 6 0
BBX 5 7 1 0
BITMAP
88
90
D0
E0
D0
88
88
ENDCHAR
STARTCHAR 049D
ENCODING 1181
SWIDTH 617 0
DWIDTH 6 0
BBX 5 5 1 0
BITMAP
90
E0
E0
D0
88
ENDCHAR
STARTCHAR 049E
ENCODING 1182
SWIDTH 617 0
DWIDTH 6 0
BBX 6 7 0 0
BITMAP
44
E8
50
60
50
48
44
ENDCHAR
STARTCHAR 049F
ENCODING 1183
SWIDTH 514 0
DWIDTH 5 0
BBX 5 5 0 0
BITMAP
F8
70
60
50
48
ENDCHAR
STARTCHAR 04A0
ENCODING 1184
SWIDTH 720 0
DWIDTH 7 0
BBX 7 7 0 0
BITMAP
E2
24
28
30
28
24
22
ENDCHAR
STARTCHAR 04A1
ENCODING 1185
SWIDTH 514 0
DWIDTH 5 0
BBX 5 5 0 0
BITMAP
C8
50
70
58
48
ENDCHAR
STARTCHAR 04A2
ENCODING 1186
SWIDTH 720 0
DWIDTH 7 0
BBX 6 9 1 -2
BITMAP
88
88
88
F8
88
88
8C
04
04
ENDCHAR
STARTCHAR 04A3
ENCODING 1187
SWIDTH 514 0
DWIDTH 5 0
BBX 5 6 1 -1
BITMAP
90
90
F0
90
98
08
ENDCHAR
STARTCHAR 04A4
ENCODING 1188
SWIDTH 720 0
DWIDTH 7 0
BBX 7 7 1 0
BITMAP
8E
88
88
F8
88
88
88
ENDCHAR
STARTCHAR 04A5
ENCODING 1189
SWIDTH 617 0
DWIDTH 6 0
BBX 5 5 1 0
BITMAP
98
90
F0
90
90
ENDCHAR
STARTCHAR 04A6
ENCODING 1190
SWIDTH 1028 0
DWIDTH 10 0
BBX 9 9 1 -2
BITMAP
F800
8800
8800
8F00
8980
8880
8880
0100
0200
ENDCHAR
STARTCHAR 04A7
ENCODING 1191
SWIDTH 822 0
DWIDTH 8 0
BBX 7 7 1 -2
BITMAP
F0
90
9E
92
92
02
04
ENDCHAR
STARTCHAR 04A8
ENCODING 1192
SWIDTH 720 0
DWIDTH 7 0
BBX 6 9 1 -2
BITMAP
70
80
9C
A4
A4
A4
78
10
0C
ENDCHAR
STARTCHAR 04A9
ENCODING 1193
SWIDTH 514 0
DWIDTH 5 0
BBX 5 6 0 -1
BITMAP
70
58
A8
68
78
18
ENDCHAR
STARTCHAR 04AA
ENCODING 1194
SWIDTH 617 0
DWIDTH 6 0
BBX 5 9 1 -2
BITMAP
78
80
80
80
80
80
78
20
60
ENDCHAR
STARTCHAR 04AB
ENCODING 1195
SWIDTH 411 0
DWIDTH 4 0
BBX 4 7 0 -2
BITMAP
70
40
80
40
70
20
20
ENDCHAR
STARTCHAR 04AC
ENCODING 1196
SWIDTH 514 0
DWIDTH 5 0
BBX 5 9 0 -2
BITMAP
F8
20
20
20
20
20
30
10
10
ENDCHAR
STARTCHAR 04AD
ENCODING 1197
SWIDTH 411 0
DWIDTH 4 0
BBX 4 6 0 -1
BITMAP
F0
20
20
20
20
20
ENDCHAR
STARTCHAR 04AE
ENCODING 1198
SWIDTH 514 0
DWIDTH 5 0
BBX 6 7 0 0
BITMAP
84
48
50
30
20
20
20
ENDCHAR
STARTCHAR 04AF
ENCODING 1199
SWIDTH 411 0
DWIDTH 4 0
BBX 5 7 0 -2
BITMAP
88
50
50
60
20
20
20
ENDCHAR
STARTCHAR 04B0
ENCODING 1200
SWIDTH 514 0
DWIDTH 5 0
BBX 6 7 0 0
BITMAP
84
48
50
30
78
20
20
ENDCHAR
STARTCHAR 04B1
ENCODING 1201
SWIDTH 411 0
DWIDTH 4 0
BBX 5 7 0 -2
BITMAP
88
50
50
60
70
20
20
ENDCHAR
STARTCHAR 04B2
ENCODING 1202
SWIDTH 617 0
DWIDTH 6 0
BBX 6 9 0 -2
BITMAP
C4
48
30
30
30
48
C4
04
04
ENDCHAR
STARTCHAR 04B3
ENCODING 1203
SWIDTH 514 0
DWIDTH 5 0
BBX 5 6 0 -1
BITMAP
50
50
20
50
88
08
ENDCHAR
STARTCHAR 04B4
ENCODING 1204
SWIDTH 822 0
DWIDTH 8 0
BBX 8 9 0 -2
BITMAP
FA
22
22
22
22
22
3F
01
01
ENDCHAR
STARTCHAR 04B5
ENCODING 1205
SWIDTH 617 0
DWIDTH 6 0
BBX 6 6 0 -1
BITMAP
F4
44
44
44
7C
04
ENDCHAR
STARTCHAR 04B6
ENCODING 1206
SWIDTH 617 0
DWIDTH 6 0
BBX 5 9 1 -2
BITMAP
90
90
90
90
70
10
18
08
08
ENDCHAR
STARTCHAR 04B7
ENCODING 1207
SWIDTH 514 0
DWIDTH 5 0
BBX 5 6 0 -1
BITMAP
90
90
70
10
18
08
ENDCHAR
STARTCHAR 04B8
ENCODING 1208
SWIDTH 617 0
DWIDTH 6 0
BBX 4 7 1 0
BITMAP
90
90
90
D0
70
10
10
ENDCHAR
STARTCHAR 04B9
ENCODING 1209
SWIDTH 514 0
DWIDTH 5 0
BBX 4 5 0 0
BITMAP
90
90
70
30
10
ENDCHAR
STARTCHAR 04BA
ENCODING 1210
SWIDTH 617 0
DWIDTH 6 0
BBX 5 7 1 0
BITMAP
80
80
80
F0
88
88
88
ENDCHAR
STARTCHAR 04BB
ENCODING 1211
SWIDTH 514 0
DWIDTH 5 0
BBX 4 8 1 0
BITMAP
80
80
80
E0
90
90
90
90
ENDCHAR
STARTCHAR 04BC
ENCODING 1212
SWIDTH 822 0
DWIDTH 8 0
BBX 8 7 0 0
BITMAP
1C
22
A2
7F
20
20
1E
ENDCHAR
STARTCHAR 04BD
ENCODING 1213
SWIDTH 617 0
DWIDTH 6 0
BBX 6 5 0 0
BITMAP
38
A4
7C
20
3C
ENDCHAR
STARTCHAR 04BE
ENCODING 1214
SWIDTH 822 0
DWIDTH 8 0
BBX 8 9 0 -2
BITMAP
1C
22
A2
7F
20
20
1E
08
08
ENDCHAR
STARTCHAR 04BF
ENCODING 1215
SWIDTH 617 0
DWIDTH 6 0
BBX 6 6 0 -1
BITMAP
38
A4
7C
20
3C
10
ENDCHAR
STARTCHAR 04C0
ENCODING 1216
SWIDTH 205 0
DWIDTH 2 0
BBX 1 7 1 0
BITMAP
80
80
80
80
80
80
80
ENDCHAR
STARTCHAR 04C1
ENCODING 1217
SWIDTH 822 0
DWIDTH 8 0
BBX 7 9 1 0
BITMAP
28
10
92
94
5C
38
54
96
92
ENDCHAR
STARTCHAR 04C2
ENCODING 1218
SWIDTH 720 0
DWIDTH 7 0
BBX 7 7 0 0
BITMAP
38
00
52
34
38
54
92
ENDCHAR
STARTCHAR 04C3
ENCODING 1219
SWIDTH 617 0
DWIDTH 6 0
BBX 5 9 1 -2
BITMAP
98
B0
A0
E0
90
88
88
10
20
ENDCHAR
STARTCHAR 04C4
ENCODING 1220
SWIDTH 514 0
DWIDTH 5 0
BBX 4 7 1 -2
BITMAP
A0
C0
E0
90
90
10
60
ENDCHAR
STARTCHAR 04C5
ENCODING 1221
SWIDTH 720 0
DWIDTH 7 0
BBX 7 9 0 -2
BITMAP
3C
24
24
24
24
64
C6
02
04
ENDCHAR
STARTCHAR 04C6
ENCODING 1222
SWIDTH 514 0
DWIDTH 5 0
BBX 6 6 0 -2
BITMAP
38
28
48
48
CC
04
ENDCHAR
STARTCHAR 04C7
ENCODING 1223
SWIDTH 617 0
DWIDTH 6 0
BBX 5 9 1 -2
BITMAP
88
88
88
F8
88
88
88
08
18
ENDCHAR
STARTCHAR 04C8
ENCODING 1224
SWIDTH 514 0
DWIDTH 5 0
BBX 4 7 1 -2
BITMAP
90
90
F0
90
90
10
20
ENDCHAR
STARTCHAR 04C9
ENCODING 1225
SWIDTH 720 0
DWIDTH 7 0
BBX 6 9 1 -2
BITMAP
88
88
88
F8
88
88
8C
04
08
ENDCHAR
STARTCHAR 04CA
ENCODING 1226
SWIDTH 514 0
DWIDTH 5 0
BBX 5 6 1 -2
BITMAP
90
90
F0
90
98
08
ENDCHAR
STARTCHAR 04CB
ENCODING 1227
SWIDTH 617 0
DWIDTH 6 0
BBX 4 8 1 -2
BITMAP
90
90
90
90
70
10
10
20
ENDCHAR
STARTCHAR 04CC
ENCODING 1228
SWIDTH 514 0
DWIDTH 5 0
BBX 4 6 0 -1
BITMAP
90
90
70
10
10
10
ENDCHAR
STARTCHAR 04CD
ENCODING 1229
SWIDTH 822 0
DWIDTH 8 0
BBX 8 9 1 -2
BITMAP
84
C4
CA
AA
B2
92
83
02
02
ENDCHAR
STARTCHAR 04CE
ENCODING 1230
SWIDTH 720 0
DWIDTH 7 0
BBX 6 6 1 -2
BITMAP
88
D8
D8
A8
84
04
ENDCHAR
STARTCHAR 04CF
ENCODING 1231
SWIDTH 205 0
DWIDTH 2 0
BBX 1 7 1 0
BITMAP
80
80
80
80
80
80
80
ENDCHAR
STARTCHAR 04D0
ENCODING 1232
SWIDTH 617 0
DWIDTH 6 0
BBX 6 9 0 0
BITMAP
28
10
10
30
28
48
78
44
84
ENDCHAR
STARTCHAR 04D1
ENCODING 1233
SWIDTH 514 0
DWIDTH 5 0
BBX 4 7 0 0
BITMAP
70
00
70
10
70
90
70
ENDCHAR
STARTCHAR 04D2
ENCODING 1234
SWIDTH 617 0
DWIDTH 6 0
BBX 6 9 0 0
BITMAP
28
00
10
30
28
48
78
44
84
ENDCHAR
STARTCHAR 04D3
ENCODING 1235
SWIDTH 514 0
DWIDTH 5 0
BBX 4 7 0 0
BITMAP
50
00
70
10
70
90
70
ENDCHAR
STARTCHAR 04D4
ENCODING 1236
SWIDTH 925 0
DWIDTH 9 0
BBX 9 7 0 0
BITMAP
0F00
1400
1400
2700
7C00
4400
8780
ENDCHAR
STARTCHAR 04D5
ENCODING 1237
SWIDTH 822 0
DWIDTH 8 0
BBX 8 5 0 0
BITMAP
7E
11
7F
88
7E
ENDCHAR
STARTCHAR 04D6
ENCODING 1238
SWIDTH 514 0
DWIDTH 5 0
BBX 4 9 1 0
BITMAP
A0
40
F0
80
80
F0
80
80
F0
ENDCHAR
STARTCHAR 04D7
ENCODING 1239
SWIDTH 514 0
DWIDTH 5 0
BBX 5 7 0 0
BITMAP
70
00
70
48
F8
40
78
ENDCHAR
STARTCHAR 04D8
ENCODING 1240
SWIDTH 617 0
DWIDTH 6 0
BBX 5 7 1 0
BITMAP
F0
08
08
F8
88
88
F0
ENDCHAR
STARTCHAR 04D9
ENCODING 1241
SWIDTH 514 0
DWIDTH 5 0
BBX 4 5 1 0
BITMAP
E0
10
F0
90
E0
ENDCHAR
STARTCHAR 04DA
ENCODING 1242
SWIDTH 617 0
DWIDTH 6 0
BBX 5 9 1 0
BITMAP
50
00
F0
08
08
F8
88
88
F0
ENDCHAR
STARTCHAR 04DB
ENCODING 1243
SWIDTH 514 0
DWIDTH 5 0
BBX 4 7 1 0
BITMAP
A0
00
E0
10
F0
90
E0
ENDCHAR
STARTCHAR 04DC
ENCODING 1244
SWIDTH 822 0
DWIDTH 8 0
BBX 7 9 1 0
BITMAP
28
00
92
94
5C
38
54
96
92
ENDCHAR
STARTCHAR 04DD
ENCODING 1245
SWIDTH 720 0
DWIDTH 7 0
BBX 7 7 0 0
BITMAP
28
00
52
34
38
54
92
ENDCHAR
STARTCHAR 04DE
ENCODING 1246
SWIDTH 514 0
DWIDTH 5 0
BBX 5 9 0 0
BITMAP
50
00
70
08
08
70
08
08
F8
ENDCHAR
STARTCHAR 04DF
ENCODING 1247
SWIDTH 411 0
DWIDTH 4 0
BBX 4 7 0 0
BITMAP
50
00
70
10
70
10
F0
ENDCHAR
STARTCHAR 04E0
ENCODING 1248
SWIDTH 514 0
DWIDTH 5 0
BBX 5 7 0 0
BITMAP
78
10
20
30
08
08
F0
ENDCHAR
STARTCHAR 04E1
ENCODING 1249
SWIDTH 411 0
DWIDTH 4 0
BBX 4 7 0 -2
BITMAP
F0
20
40
30
10
10
E0
ENDCHAR
STARTCHAR 04E2
ENCODING 1250
SWIDTH 720 0
DWIDTH 7 0
BBX 5 8 1 0
BITMAP
20
88
98
98
A8
C8
C8
88
ENDCHAR
STARTCHAR 04E3
ENCODING 1251
SWIDTH 514 0
DWIDTH 5 0
BBX 4 7 1 0
BITMAP
60
00
90
B0
D0
D0
90
ENDCHAR
STARTCHAR 04E4
ENCODING 1252
SWIDTH 720 0
DWIDTH 7 0
BBX 5 9 1 0
BITMAP
50
00
88
98
98
A8
C8
C8
88
ENDCHAR
STARTCHAR 04E5
ENCODING 1253
SWIDTH 514 0
DWIDTH 5 0
BBX 4 7 1 0
BITMAP
E0
00
90
B0
D0
D0
90
ENDCHAR
STARTCHAR 04E6
ENCODING 1254
SWIDTH 720 0
DWIDTH 7 0
BBX 6 9 1 0
BITMAP
50
00
70
88
84
84
84
8C
78
ENDCHAR
STARTCHAR 04E7
ENCODING 1255
SWIDTH 514 0
DWIDTH 5 0
BBX 5 7 0 0
BITMAP
70
00
78
48
88
48
70
ENDCHAR
STARTCHAR 04E8
ENCODING 1256
SWIDTH 720 0
DWIDTH 7 0
BBX 6 7 1 0
BITMAP
70
88
84
FC
84
8C
78
ENDCHAR
STARTCHAR 04E9
ENCODING 1257
SWIDTH 514 0
DWIDTH 5 0
BBX 5 5 0 0
BITMAP
78
48
F8
48
70
ENDCHAR
STARTCHAR 04EA
ENCODING 1258
SWIDTH 720 0
DWIDTH 7 0
BBX 6 9 1 0
BITMAP
50
00
70
88
84
FC
84
8C
78
ENDCHAR
STARTCHAR 04EB
ENCODING 1259
SWIDTH 514 0
DWIDTH 5 0
BBX 5 7 0 0
BITMAP
50
00
78
48
F8
48
70
ENDCHAR
STARTCHAR 04EC
ENCODING 1260
SWIDTH 617 0
DWIDTH 6 0
BBX 5 9 0 0
BITMAP
50
00
F0
08
08
78
08
08
F0
ENDCHAR
STARTCHAR 04ED
ENCODING 1261
SWIDTH 411 0
DWIDTH 4 0
BBX 4 7 0 0
BITMAP
60
00
70
10
70
10
F0
ENDCHAR
STARTCHAR 04EE
ENCODING 1262
SWIDTH 514 0
DWIDTH 5 0
BBX 6 8 0 0
BITMAP
30
84
48
48
30
30
10
60
ENDCHAR
STARTCHAR 04EF
ENCODING 1263
SWIDTH 411 0
DWIDTH 4 0
BBX 5 9 0 -2
BITMAP
70
00
88
50
50
50
20
20
C0
ENDCHAR
STARTCHAR 04F0
ENCODING 1264
SWIDTH 514 0
DWIDTH 5 0
BBX 6 7 0 2
BITMAP
84
48
48
30
30
10
60
ENDCHAR
STARTCHAR 04F1
ENCODING 1265
SWIDTH 411 0
DWIDTH 4 0
BBX 5 9 0 -2
BITMAP
50
00
88
50
50
50
20
20
C0
ENDCHAR
STARTCHAR 04F2
ENCODING 1266
SWIDTH 514 0
DWIDTH 5 0
BBX 6 9 0 0
BITMAP
28
30
84
48
48
30
30
10
60
ENDCHAR
STARTCHAR 04F3
ENCODING 1267
SWIDTH 411 0
DWIDTH 4 0
BBX 5 9 0 -1
BITMAP
30
00
88
50
50
50
20
20
C0
ENDCHAR
STARTCHAR 04F4
ENCODING 1268
SWIDTH 617 0
DWIDTH 6 0
BBX 4 7 1 2
BITMAP
90
90
90
90
70
10
10
ENDCHAR
STARTCHAR 04F5
ENCODING 1269
SWIDTH 514 0
DWIDTH 5 0
BBX 4 7 0 0
BITMAP
50
00
90
90
70
10
10
ENDCHAR
STARTCHAR 04F6
ENCODING 1270
SWIDTH 411 0
DWIDTH 4 0
BBX 4 9 1 -2
BITMAP
F0
80
80
80
80
80
C0
40
40
ENDCHAR
STARTCHAR 04F7
ENCODING 1271
SWIDTH 411 0
DWIDTH 4 0
BBX 3 6 1 -1
BITMAP
E0
80
80
80
80
80
ENDCHAR
STARTCHAR 04F8
ENCODING 1272
SWIDTH 822 0
DWIDTH 8 0
BBX 6 9 1 0
BITMAP
20
00
80
84
84
F4
94
94
F4
ENDCHAR
STARTCHAR 04F9
ENCODING 1273
SWIDTH 720 0
DWIDTH 7 0
BBX 6 7 1 0
BITMAP
50
00
84
84
F4
94
E4
ENDCHAR
STARTCHAR 1E80
ENCODING 7808
SWIDTH 925 0
DWIDTH 9 0
BBX 9 9 0 0
BITMAP
1000
0800
8080
8880
5900
5500
5500
6500
2200
ENDCHAR
STARTCHAR 1E81
ENCODING 7809
SWIDTH 720 0
DWIDTH 7 0
BBX 7 7 0 1
BITMAP
10
00
92
5A
6A
6C
24
ENDCHAR
STARTCHAR 1E82
ENCODING 7810
SWIDTH 925 0
DWIDTH 9 0
BBX 9 9 0 0
BITMAP
0400
0800
8080
8880
5900
5500
5500
6500
2200
ENDCHAR
STARTCHAR 1E83
ENCODING 7811
SWIDTH 720 0
DWIDTH 7 0
BBX 7 7 0 1
BITMAP
10
00
92
5A
6A
6C
24
ENDCHAR
STARTCHAR 1E84
ENCODING 7812
SWIDTH 925 0
DWIDTH 9 0
BBX 9 9 0 0
BITMAP
1400
0000
8080
8880
5900
5500
5500
6500
2200
ENDCHAR
STARTCHAR 1E85
ENCODING 7813
SWIDTH 720 0
DWIDTH 7 0
BBX 7 7 0 0
BITMAP
28
00
92
5A
6A
6C
24
ENDCHAR
STARTCHAR 1EF2
ENCODING 7922
SWIDTH 514 0
DWIDTH 5 0
BBX 6 9 0 0
BITMAP
20
00
84
48
50
30
20
20
20
ENDCHAR
STARTCHAR 1EF3
ENCODING 7923
SWIDTH 411 0
DWIDTH 4 0
BBX 5 9 0 -1
BITMAP
20
00
88
50
50
50
20
20
C0
ENDCHAR
STARTCHAR 1F00
ENCODING 7936
SWIDTH 514 0
DWIDTH 5 0
BBX 6 7 0 1
BITMAP
10
00
78
48
88
48
7C
ENDCHAR
STARTCHAR 1F01
ENCODING 7937
SWIDTH 514 0
DWIDTH 5 0
BBX 6 8 0 0
BITMAP
20
20
00
78
48
88
48
7C
ENDCHAR
STARTCHAR 1F02
ENCODING 7938
SWIDTH 514 0
DWIDTH 5 0
BBX 6 8 0 0
BITMAP
10
30
00
78
48
88
48
7C
ENDCHAR
STARTCHAR 1F03
ENCODING 7939
SWIDTH 514 0
DWIDTH 5 0
BBX 6 8 0 0
BITMAP
40
50
00
78
48
88
48
7C
ENDCHAR
STARTCHAR 1F04
ENCODING 7940
SWIDTH 514 0
DWIDTH 5 0
BBX 6 8 0 0
BITMAP
20
30
00
78
48
88
48
7C
ENDCHAR
STARTCHAR 1F05
ENCODING 7941
SWIDTH 514 0
DWIDTH 5 0
BBX 6 7 0 1
BITMAP
50
00
78
48
88
48
7C
ENDCHAR
STARTCHAR 1F06
ENCODING 7942
SWIDTH 514 0
DWIDTH 5 0
BBX 6 8 0 1
BITMAP
30
20
00
78
48
88
48
7C
ENDCHAR
STARTCHAR 1F07
ENCODING 7943
SWIDTH 514 0
DWIDTH 5 0
BBX 6 8 0 1
BITMAP
30
20
00
78
48
88
48
7C
ENDCHAR
STARTCHAR 1F08
ENCODING 7944
SWIDTH 617 0
DWIDTH 6 0
BBX 6 7 0 0
BITMAP
50
70
28
48
78
44
84
ENDCHAR
STARTCHAR 1F09
ENCODING 7945
SWIDTH 617 0
DWIDTH 6 0
BBX 6 7 0 0
BITMAP
90
B0
28
48
78
44
84
ENDCHAR
STARTCHAR 1F0A
ENCODING 7946
SWIDTH 720 0
DWIDTH 7 0
BBX 7 7 0 0
BITMAP
C8
B8
14
24
3E
22
42
ENDCHAR
STARTCHAR 1F0B
ENCODING 7947
SWIDTH 720 0
DWIDTH 7 0
BBX 7 7 0 0
BITMAP
C8
B8
14
24
3C
22
42
ENDCHAR
STARTCHAR 1F0C
ENCODING 7948
SWIDTH 720 0
DWIDTH 7 0
BBX 7 7 0 0
BITMAP
B0
D8
28
24
3C
44
42
ENDCHAR
STARTCHAR 1F0D
ENCODING 7949
SWIDTH 720 0
DWIDTH 7 0
BBX 7 7 0 0
BITMAP
A8
D8
14
24
3C
42
42
ENDCHAR
STARTCHAR 1F0E
ENCODING 7950
SWIDTH 617 0
DWIDTH 6 0
BBX 6 7 0 1
BITMAP
D0
B0
28
48
78
44
84
ENDCHAR
STARTCHAR 1F0F
ENCODING 7951
SWIDTH 617 0
DWIDTH 6 0
BBX 6 7 0 1
BITMAP
D0
B0
28
48
7C
44
84
ENDCHAR
STARTCHAR 1F10
ENCODING 7952
SWIDTH 411 0
DWIDTH 4 0
BBX 4 8 1 0
BITMAP
40
40
00
E0
80
E0
80
F0
ENDCHAR
STARTCHAR 1F11
ENCODING 7953
SWIDTH 411 0
DWIDTH 4 0
BBX 4 8 1 0
BITMAP
40
40
00
E0
80
E0
80
F0
ENDCHAR
STARTCHAR 1F12
ENCODING 7954
SWIDTH 411 0
DWIDTH 4 0
BBX 4 8 1 0
BITMAP
80
A0
00
E0
80
E0
80
F0
ENDCHAR
STARTCHAR 1F13
ENCODING 7955
SWIDTH 411 0
DWIDTH 4 0
BBX 4 8 1 0
BITMAP
80
A0
00
E0
80
E0
80
F0
ENDCHAR
STARTCHAR 1F14
ENCODING 7956
SWIDTH 411 0
DWIDTH 4 0
BBX 4 8 1 0
BITMAP
40
60
00
E0
80
E0
80
F0
ENDCHAR
STARTCHAR 1F15
ENCODING 7957
SWIDTH 411 0
DWIDTH 4 0
BBX 4 8 1 0
BITMAP
80
A0
00
E0
80
E0
80
F0
ENDCHAR
STARTCHAR 1F18
ENCODING 7960
SWIDTH 617 0
DWIDTH 6 0
BBX 6 7 0 0
BITMAP
FC
C0
40
78
40
40
7C
ENDCHAR
STARTCHAR 1F19
ENCODING 7961
SWIDTH 617 0
DWIDTH 6 0
BBX 6 7 0 0
BITMAP
FC
C0
40
78
40
40
7C
ENDCHAR
STARTCHAR 1F1A
ENCODING 7962
SWIDTH 822 0
DWIDTH 8 0
BBX 8 7 0 0
BITMAP
DE
B0
10
1E
10
10
1F
ENDCHAR
STARTCHAR 1F1B
ENCODING 7963
SWIDTH 720 0
DWIDTH 7 0
BBX 8 7 0 0
BITMAP
DE
B0
10
1E
10
10
1F
ENDCHAR
STARTCHAR 1F1C
ENCODING 7964
SWIDTH 720 0
DWIDTH 7 0
BBX 7 7 0 0
BITMAP
BE
D0
10
1E
10
10
1E
ENDCHAR
STARTCHAR 1F1D
ENCODING 7965
SWIDTH 822 0
DWIDTH 8 0
BBX 8 7 0 0
BITMAP
BE
D0
10
1E
10
10
1F
ENDCHAR
STARTCHAR 1F20
ENCODING 7968
SWIDTH 514 0
DWIDTH 5 0
BBX 4 9 1 -1
BITMAP
40
00
E0
90
90
90
90
10
10
ENDCHAR
STARTCHAR 1F21
ENCODING 7969
SWIDTH 514 0
DWIDTH 5 0
BBX 4 10 1 -2
BITMAP
40
40
00
E0
90
90
90
90
10
10
ENDCHAR
STARTCHAR 1F22
ENCODING 7970
SWIDTH 514 0
DWIDTH 5 0
BBX 4 10 1 -2
BITMAP
20
A0
00
E0
90
90
90
90
10
10
ENDCHAR
STARTCHAR 1F23
ENCODING 7971
SWIDTH 514 0
DWIDTH 5 0
BBX 4 10 1 -2
BITMAP
80
A0
00
E0
90
90
90
90
10
10
ENDCHAR
STARTCHAR 1F24
ENCODING 7972
SWIDTH 514 0
DWIDTH 5 0
BBX 4 10 1 -2
BITMAP
40
60
00
E0
90
90
90
90
10
10
ENDCHAR
STARTCHAR 1F25
ENCODING 7973
SWIDTH 514 0
DWIDTH 5 0
BBX 4 10 1 -2
BITMAP
80
A0
00
E0
90
90
90
90
10
10
ENDCHAR
STARTCHAR 1F26
ENCODING 7974
SWIDTH 514 0
DWIDTH 5 0
BBX 4 11 1 -2
BITMAP
40
20
40
00
E0
90
90
90
90
10
10
ENDCHAR
STARTCHAR 1F27
ENCODING 7975
SWIDTH 514 0
DWIDTH 5 0
BBX 4 11 1 -2
BITMAP
40
20
40
00
E0
90
90
90
90
10
10
ENDCHAR
STARTCHAR 1F28
ENCODING 7976
SWIDTH 720 0
DWIDTH 7 0
BBX 7 7 0 0
BITMAP
C2
C2
42
7E
42
42
42
ENDCHAR
STARTCHAR 1F29
ENCODING 7977
SWIDTH 720 0
DWIDTH 7 0
BBX 7 7 0 0
BITMAP
C2
C2
42
7E
42
42
42
ENDCHAR
STARTCHAR 1F2A
ENCODING 7978
SWIDTH 925 0
DWIDTH 9 0
BBX 8 7 0 0
BITMAP
D0
B1
11
1F
11
11
11
ENDCHAR
STARTCHAR 1F2B
ENCODING 7979
SWIDTH 925 0
DWIDTH 9 0
BBX 8 7 0 0
BITMAP
D1
B1
11
1F
11
11
11
ENDCHAR
STARTCHAR 1F2C
ENCODING 7980
SWIDTH 925 0
DWIDTH 9 0
BBX 8 7 0 0
BITMAP
B1
D1
11
1F
11
11
11
ENDCHAR
STARTCHAR 1F2D
ENCODING 7981
SWIDTH 925 0
DWIDTH 9 0
BBX 9 7 0 0
BITMAP
B080
D080
1080
1F80
1080
1080
1080
ENDCHAR
STARTCHAR 1F2E
ENCODING 7982
SWIDTH 822 0
DWIDTH 8 0
BBX 8 7 0 1
BITMAP
C1
A1
21
1F
21
21
21
ENDCHAR
STARTCHAR 1F2F
ENCODING 7983
SWIDTH 822 0
DWIDTH 8 0
BBX 8 7 0 1
BITMAP
C1
A1
21
1F
21
21
21
ENDCHAR
STARTCHAR 1F30
ENCODING 7984
SWIDTH 205 0
DWIDTH 2 0
BBX 1 8 1 0
BITMAP
80
80
00
80
80
80
80
80
ENDCHAR
STARTCHAR 1F31
ENCODING 7985
SWIDTH 205 0
DWIDTH 2 0
BBX 2 7 0 1
BITMAP
80
40
40
40
40
40
40
ENDCHAR
STARTCHAR 1F32
ENCODING 7986
SWIDTH 205 0
DWIDTH 2 0
BBX 3 8 0 0
BITMAP
80
A0
00
40
40
40
40
40
ENDCHAR
STARTCHAR 1F33
ENCODING 7987
SWIDTH 205 0
DWIDTH 2 0
BBX 3 8 -1 0
BITMAP
20
A0
00
20
20
20
20
20
ENDCHAR
STARTCHAR 1F34
ENCODING 7988
SWIDTH 205 0
DWIDTH 2 0
BBX 3 8 0 0
BITMAP
A0
A0
00
40
40
40
40
40
ENDCHAR
STARTCHAR 1F35
ENCODING 7989
SWIDTH 205 0
DWIDTH 2 0
BBX 2 7 0 1
BITMAP
C0
00
40
40
40
40
40
ENDCHAR
STARTCHAR 1F36
ENCODING 7990
SWIDTH 205 0
DWIDTH 2 0
BBX 3 9 0 0
BITMAP
40
A0
40
00
40
40
40
40
40
ENDCHAR
STARTCHAR 1F37
ENCODING 7991
SWIDTH 205 0
DWIDTH 2 0
BBX 3 9 0 0
BITMAP
40
A0
40
00
40
40
40
40
40
ENDCHAR
STARTCHAR 1F38
ENCODING 7992
SWIDTH 308 0
DWIDTH 3 0
BBX 2 7 0 0
BITMAP
C0
C0
40
40
40
40
40
ENDCHAR
STARTCHAR 1F39
ENCODING 7993
SWIDTH 308 0
DWIDTH 3 0
BBX 2 7 0 0
BITMAP
C0
C0
40
40
40
40
40
ENDCHAR
STARTCHAR 1F3A
ENCODING 7994
SWIDTH 514 0
DWIDTH 5 0
BBX 4 7 0 0
BITMAP
D0
B0
10
10
10
10
10
ENDCHAR
STARTCHAR 1F3B
ENCODING 7995
SWIDTH 411 0
DWIDTH 4 0
BBX 4 7 0 0
BITMAP
D0
B0
10
10
10
10
10
ENDCHAR
STARTCHAR 1F3C
ENCODING 7996
SWIDTH 411 0
DWIDTH 4 0
BBX 4 7 0 0
BITMAP
B0
D0
10
10
10
10
10
ENDCHAR
STARTCHAR 1F3D
ENCODING 7997
SWIDTH 514 0
DWIDTH 5 0
BBX 4 7 0 0
BITMAP
B0
D0
10
10
10
10
10
ENDCHAR
STARTCHAR 1F3E
ENCODING 7998
SWIDTH 411 0
DWIDTH 4 0
BBX 3 7 0 1
BITMAP
C0
A0
20
20
20
20
20
ENDCHAR
STARTCHAR 1F3F
ENCODING 7999
SWIDTH 411 0
DWIDTH 4 0
BBX 3 7 0 1
BITMAP
C0
A0
20
20
20
20
20
ENDCHAR
STARTCHAR 1F40
ENCODING 8000
SWIDTH 514 0
DWIDTH 5 0
BBX 5 7 0 1
BITMAP
20
00
78
48
88
48
70
ENDCHAR
STARTCHAR 1F41
ENCODING 8001
SWIDTH 514 0
DWIDTH 5 0
BBX 5 8 0 0
BITMAP
20
20
00
78
48
88
48
70
ENDCHAR
STARTCHAR 1F42
ENCODING 8002
SWIDTH 514 0
DWIDTH 5 0
BBX 5 8 0 0
BITMAP
10
50
00
78
48
88
48
70
ENDCHAR
STARTCHAR 1F43
ENCODING 8003
SWIDTH 514 0
DWIDTH 5 0
BBX 5 8 0 0
BITMAP
40
50
00
78
48
88
48
70
ENDCHAR
STARTCHAR 1F44
ENCODING 8004
SWIDTH 514 0
DWIDTH 5 0
BBX 5 8 0 0
BITMAP
20
30
00
78
48
88
48
70
ENDCHAR
STARTCHAR 1F45
ENCODING 8005
SWIDTH 514 0
DWIDTH 5 0
BBX 5 7 0 1
BITMAP
50
00
78
48
88
48
70
ENDCHAR
STARTCHAR 1F48
ENCODING 8008
SWIDTH 720 0
DWIDTH 7 0
BBX 7 7 0 0
BITMAP
B8
C6
42
42
42
42
3C
ENDCHAR
STARTCHAR 1F49
ENCODING 8009
SWIDTH 822 0
DWIDTH 8 0
BBX 7 7 0 0
BITMAP
9C
A2
42
42
42
62
3C
ENDCHAR
STARTCHAR 1F4A
ENCODING 8010
SWIDTH 925 0
DWIDTH 9 0
BBX 9 7 0 0
BITMAP
CF00
B880
1080
1080
1080
1080
0F00
ENDCHAR
STARTCHAR 1F4B
ENCODING 8011
SWIDTH 925 0
DWIDTH 9 0
BBX 9 7 0 0
BITMAP
CF00
B180
1080
1080
1080
1080
0F00
ENDCHAR
STARTCHAR 1F4C
ENCODING 8012
SWIDTH 925 0
DWIDTH 9 0
BBX 9 7 0 0
BITMAP
AE00
D100
2100
2080
2180
1100
1E00
ENDCHAR
STARTCHAR 1F4D
ENCODING 8013
SWIDTH 925 0
DWIDTH 9 0
BBX 9 7 0 0
BITMAP
AE00
D100
1080
2080
2080
1100
0F00
ENDCHAR
STARTCHAR 1F50
ENCODING 8016
SWIDTH 514 0
DWIDTH 5 0
BBX 4 7 1 1
BITMAP
40
00
90
90
90
90
E0
ENDCHAR
STARTCHAR 1F51
ENCODING 8017
SWIDTH 514 0
DWIDTH 5 0
BBX 4 8 1 0
BITMAP
40
40
00
90
90
90
90
E0
ENDCHAR
STARTCHAR 1F52
ENCODING 8018
SWIDTH 514 0
DWIDTH 5 0
BBX 4 8 1 0
BITMAP
20
A0
00
90
90
90
90
E0
ENDCHAR
STARTCHAR 1F53
ENCODING 8019
SWIDTH 514 0
DWIDTH 5 0
BBX 4 8 1 0
BITMAP
80
A0
00
90
90
90
90
E0
ENDCHAR
STARTCHAR 1F54
ENCODING 8020
SWIDTH 514 0
DWIDTH 5 0
BBX 4 8 1 0
BITMAP
40
60
00
90
90
90
90
E0
ENDCHAR
STARTCHAR 1F55
ENCODING 8021
SWIDTH 514 0
DWIDTH 5 0
BBX 4 8 1 0
BITMAP
80
A0
00
90
90
90
90
E0
ENDCHAR
STARTCHAR 1F56
ENCODING 8022
SWIDTH 514 0
DWIDTH 5 0
BBX 4 9 1 0
BITMAP
40
20
40
00
90
90
90
90
E0
ENDCHAR
STARTCHAR 1F57
ENCODING 8023
SWIDTH 514 0
DWIDTH 5 0
BBX 4 9 1 0
BITMAP
40
20
40
00
90
90
90
90
E0
ENDCHAR
STARTCHAR 1F59
ENCODING 8025
SWIDTH 617 0
DWIDTH 6 0
BBX 7 7 0 0
BITMAP
C2
A4
24
18
10
10
10
ENDCHAR
STARTCHAR 1F5B
ENCODING 8027
SWIDTH 822 0
DWIDTH 8 0
BBX 8 7 0 0
BITMAP
D1
B1
0A
04
04
04
04
ENDCHAR
STARTCHAR 1F5D
ENCODING 8029
SWIDTH 822 0
DWIDTH 8 0
BBX 9 7 0 0
BITMAP
B080
C900
0900
0600
0200
0200
0200
ENDCHAR
STARTCHAR 1F5F
ENCODING 8031
SWIDTH 822 0
DWIDTH 8 0
BBX 8 7 0 1
BITMAP
D1
92
0A
0C
04
04
04
ENDCHAR
STARTCHAR 1F60
ENCODING 8032
SWIDTH 822 0
DWIDTH 8 0
BBX 7 8 1 0
BITMAP
10
10
00
84
94
92
92
FC
ENDCHAR
STARTCHAR 1F61
ENCODING 8033
SWIDTH 822 0
DWIDTH 8 0
BBX 7 7 1 1
BITMAP
20
00
84
94
92
92
FC
ENDCHAR
STARTCHAR 1F62
ENCODING 8034
SWIDTH 822 0
DWIDTH 8 0
BBX 7 8 1 0
BITMAP
20
30
00
84
94
92
92
FC
ENDCHAR
STARTCHAR 1F63
ENCODING 8035
SWIDTH 822 0
DWIDTH 8 0
BBX 7 8 1 0
BITMAP
40
50
00
84
94
92
92
FC
ENDCHAR
STARTCHAR 1F64
ENCODING 8036
SWIDTH 822 0
DWIDTH 8 0
BBX 7 8 1 0
BITMAP
20
28
00
84
94
92
92
FC
ENDCHAR
STARTCHAR 1F65
ENCODING 8037
SWIDTH 822 0
DWIDTH 8 0
BBX 7 7 1 1
BITMAP
50
00
84
94
92
92
FC
ENDCHAR
STARTCHAR 1F66
ENCODING 8038
SWIDTH 822 0
DWIDTH 8 0
BBX 7 8 1 1
BITMAP
20
10
00
84
94
92
92
FC
ENDCHAR
STARTCHAR 1F67
ENCODING 8039
SWIDTH 822 0
DWIDTH 8 0
BBX 7 8 1 1
BITMAP
20
20
10
84
94
92
92
FC
ENDCHAR
STARTCHAR 1F68
ENCODING 8040
SWIDTH 720 0
DWIDTH 7 0
BBX 7 7 0 0
BITMAP
B8
C6
42
42
42
44
66
ENDCHAR
STARTCHAR 1F69
ENCODING 8041
SWIDTH 822 0
DWIDTH 8 0
BBX 8 7 0 0
BITMAP
9C
A2
42
42
42
22
77
ENDCHAR
STARTCHAR 1F6A
ENCODING 8042
SWIDTH 925 0
DWIDTH 9 0
BBX 9 7 0 0
BITMAP
CF00
B880
1080
1080
1080
0880
1980
ENDCHAR
STARTCHAR 1F6B
ENCODING 8043
SWIDTH 925 0
DWIDTH 9 0
BBX 9 7 0 0
BITMAP
CF00
B180
1080
1080
1080
1100
1980
ENDCHAR
STARTCHAR 1F6C
ENCODING 8044
SWIDTH 925 0
DWIDTH 9 0
BBX 9 7 0 0
BITMAP
AE00
D100
2100
2100
2100
1100
3B80
ENDCHAR
STARTCHAR 1F6D
ENCODING 8045
SWIDTH 925 0
DWIDTH 9 0
BBX 9 7 0 0
BITMAP
AE00
D100
1080
2080
1080
1100
3B80
ENDCHAR
STARTCHAR 1F6E
ENCODING 8046
SWIDTH 822 0
DWIDTH 8 0
BBX 8 7 0 1
BITMAP
DC
A2
21
41
21
22
77
ENDCHAR
STARTCHAR 1F6F
ENCODING 8047
SWIDTH 822 0
DWIDTH 8 0
BBX 8 7 0 1
BITMAP
DE
A3
21
21
21
22
33
ENDCHAR
STARTCHAR 1F70
ENCODING 8048
SWIDTH 514 0
DWIDTH 5 0
BBX 6 7 0 1
BITMAP
20
00
78
48
88
48
7C
ENDCHAR
STARTCHAR 1F71
ENCODING 8049
SWIDTH 514 0
DWIDTH 5 0
BBX 6 7 0 1
BITMAP
10
00
78
48
88
48
7C
ENDCHAR
STARTCHAR 1F72
ENCODING 8050
SWIDTH 411 0
DWIDTH 4 0
BBX 4 7 1 1
BITMAP
40
00
E0
80
E0
80
F0
ENDCHAR
STARTCHAR 1F73
ENCODING 8051
SWIDTH 411 0
DWIDTH 4 0
BBX 4 7 1 1
BITMAP
40
00
E0
80
E0
80
F0
ENDCHAR
STARTCHAR 1F74
ENCODING 8052
SWIDTH 514 0
DWIDTH 5 0
BBX 4 9 1 -1
BITMAP
40
00
E0
90
90
90
90
10
10
ENDCHAR
STARTCHAR 1F75
ENCODING 8053
SWIDTH 514 0
DWIDTH 5 0
BBX 4 9 1 -1
BITMAP
60
00
E0
90
90
90
90
10
10
ENDCHAR
STARTCHAR 1F76
ENCODING 8054
SWIDTH 205 0
DWIDTH 2 0
BBX 2 7 0 1
BITMAP
C0
00
40
40
40
40
40
ENDCHAR
STARTCHAR 1F77
ENCODING 8055
SWIDTH 205 0
DWIDTH 2 0
BBX 1 7 1 1
BITMAP
80
00
80
80
80
80
80
ENDCHAR
STARTCHAR 1F78
ENCODING 8056
SWIDTH 514 0
DWIDTH 5 0
BBX 5 7 0 1
BITMAP
20
00
78
48
88
48
70
ENDCHAR
STARTCHAR 1F79
ENCODING 8057
SWIDTH 514 0
DWIDTH 5 0
BBX 5 7 0 1
BITMAP
30
00
78
48
88
48
70
ENDCHAR
STARTCHAR 1F7A
ENCODING 8058
SWIDTH 514 0
DWIDTH 5 0
BBX 4 7 1 1
BITMAP
40
00
90
90
90
90
E0
ENDCHAR
STARTCHAR 1F7B
ENCODING 8059
SWIDTH 514 0
DWIDTH 5 0
BBX 4 7 1 1
BITMAP
60
00
90
90
90
90
E0
ENDCHAR
STARTCHAR 1F7C
ENCODING 8060
SWIDTH 822 0
DWIDTH 8 0
BBX 7 7 1 1
BITMAP
20
00
84
94
92
92
FC
ENDCHAR
STARTCHAR 1F7D
ENCODING 8061
SWIDTH 822 0
DWIDTH 8 0
BBX 7 7 1 1
BITMAP
10
00
84
94
92
92
FC
ENDCHAR
STARTCHAR 1F80
ENCODING 8064
SWIDTH 514 0
DWIDTH 5 0
BBX 6 9 0 -1
BITMAP
10
00
78
48
88
48
7C
00
10
ENDCHAR
STARTCHAR 1F81
ENCODING 8065
SWIDTH 514 0
DWIDTH 5 0
BBX 6 10 0 -2
BITMAP
20
20
00
78
48
88
48
7C
00
10
ENDCHAR
STARTCHAR 1F82
ENCODING 8066
SWIDTH 514 0
DWIDTH 5 0
BBX 6 10 0 -2
BITMAP
10
30
00
78
48
88
48
7C
00
10
ENDCHAR
STARTCHAR 1F83
ENCODING 8067
SWIDTH 514 0
DWIDTH 5 0
BBX 6 10 0 -2
BITMAP
40
50
00
78
48
88
48
7C
00
10
ENDCHAR
STARTCHAR 1F84
ENCODING 8068
SWIDTH 514 0
DWIDTH 5 0
BBX 6 10 0 -2
BITMAP
20
30
00
78
48
88
48
7C
00
10
ENDCHAR
STARTCHAR 1F85
ENCODING 8069
SWIDTH 514 0
DWIDTH 5 0
BBX 6 9 0 -1
BITMAP
50
00
78
48
88
48
7C
00
10
ENDCHAR
STARTCHAR 1F86
ENCODING 8070
SWIDTH 514 0
DWIDTH 5 0
BBX 6 10 0 -1
BITMAP
30
20
00
78
48
88
48
7C
00
10
ENDCHAR
STARTCHAR 1F87
ENCODING 8071
SWIDTH 514 0
DWIDTH 5 0
BBX 6 10 0 -1
BITMAP
10
20
00
78
48
88
48
7C
00
10
ENDCHAR
STARTCHAR 1F88
ENCODING 8072
SWIDTH 925 0
DWIDTH 9 0
BBX 9 7 0 0
BITMAP
5000
7000
2900
4900
7900
4500
8580
ENDCHAR
STARTCHAR 1F89
ENCODING 8073
SWIDTH 925 0
DWIDTH 9 0
BBX 9 7 0 0
BITMAP
D000
B000
2900
4900
7900
4500
8580
ENDCHAR
STARTCHAR 1F8A
ENCODING 8074
SWIDTH 1028 0
DWIDTH 10 0
BBX 10 7 0 0
BITMAP
C800
B800
1480
2480
3E80
2280
4240
ENDCHAR
STARTCHAR 1F8B
ENCODING 8075
SWIDTH 1028 0
DWIDTH 10 0
BBX 10 7 0 0
BITMAP
C800
B800
1480
2480
3C80
2280
42C0
ENDCHAR
STARTCHAR 1F8C
ENCODING 8076
SWIDTH 925 0
DWIDTH 9 0
BBX 9 7 0 0
BITMAP
B000
D800
2880
2480
3C80
4480
4280
ENDCHAR
STARTCHAR 1F8D
ENCODING 8077
SWIDTH 1028 0
DWIDTH 10 0
BBX 10 7 0 0
BITMAP
A800
D800
1480
2480
3C80
4280
42C0
ENDCHAR
STARTCHAR 1F8E
ENCODING 8078
SWIDTH 925 0
DWIDTH 9 0
BBX 9 7 0 1
BITMAP
D000
B000
2900
4900
7900
4500
8580
ENDCHAR
STARTCHAR 1F8F
ENCODING 8079
SWIDTH 925 0
DWIDTH 9 0
BBX 9 7 0 1
BITMAP
D000
B000
2900
4900
7D00
4500
8480
ENDCHAR
STARTCHAR 1F90
ENCODING 8080
SWIDTH 514 0
DWIDTH 5 0
BBX 4 9 1 -1
BITMAP
40
00
E0
90
90
90
90
90
90
ENDCHAR
STARTCHAR 1F91
ENCODING 8081
SWIDTH 514 0
DWIDTH 5 0
BBX 4 10 1 -2
BITMAP
40
40
00
E0
90
90
90
90
90
90
ENDCHAR
STARTCHAR 1F92
ENCODING 8082
SWIDTH 514 0
DWIDTH 5 0
BBX 4 10 1 -2
BITMAP
20
A0
00
E0
90
90
90
90
90
90
ENDCHAR
STARTCHAR 1F93
ENCODING 8083
SWIDTH 514 0
DWIDTH 5 0
BBX 4 10 1 -2
BITMAP
80
A0
00
E0
90
90
90
90
90
90
ENDCHAR
STARTCHAR 1F94
ENCODING 8084
SWIDTH 514 0
DWIDTH 5 0
BBX 4 10 1 -2
BITMAP
40
60
00
E0
90
90
90
90
90
90
ENDCHAR
STARTCHAR 1F95
ENCODING 8085
SWIDTH 514 0
DWIDTH 5 0
BBX 4 10 1 -2
BITMAP
80
A0
00
E0
90
90
90
90
90
90
ENDCHAR
STARTCHAR 1F96
ENCODING 8086
SWIDTH 514 0
DWIDTH 5 0
BBX 4 11 1 -2
BITMAP
40
20
40
00
E0
90
90
90
90
90
90
ENDCHAR
STARTCHAR 1F97
ENCODING 8087
SWIDTH 514 0
DWIDTH 5 0
BBX 4 11 1 -2
BITMAP
40
20
40
00
E0
90
90
90
90
90
90
ENDCHAR
STARTCHAR 1F98
ENCODING 8088
SWIDTH 1028 0
DWIDTH 10 0
BBX 10 7 0 0
BITMAP
C200
C200
4280
7E80
4280
4280
42C0
ENDCHAR
STARTCHAR 1F99
ENCODING 8089
SWIDTH 1028 0
DWIDTH 10 0
BBX 10 7 0 0
BITMAP
C200
C200
4280
7E80
4280
4280
42C0
ENDCHAR
STARTCHAR 1F9A
ENCODING 8090
SWIDTH 1234 0
DWIDTH 12 0
BBX 12 7 0 0
BITMAP
D000
B100
1120
1F20
1120
1120
1130
ENDCHAR
STARTCHAR 1F9B
ENCODING 8091
SWIDTH 1131 0
DWIDTH 11 0
BBX 12 7 0 0
BITMAP
D100
B100
1120
1F20
1120
1120
1130
ENDCHAR
STARTCHAR 1F9C
ENCODING 8092
SWIDTH 1131 0
DWIDTH 11 0
BBX 12 7 0 0
BITMAP
B100
D100
1120
1F20
1120
1120
1130
ENDCHAR
STARTCHAR 1F9D
ENCODING 8093
SWIDTH 1234 0
DWIDTH 12 0
BBX 12 7 0 0
BITMAP
B080
D080
10A0
1FA0
10A0
10A0
10B0
ENDCHAR
STARTCHAR 1F9E
ENCODING 8094
SWIDTH 1131 0
DWIDTH 11 0
BBX 11 7 0 1
BITMAP
C100
A100
2140
1F40
2140
2140
2120
ENDCHAR
STARTCHAR 1F9F
ENCODING 8095
SWIDTH 1131 0
DWIDTH 11 0
BBX 11 7 0 1
BITMAP
C100
A100
2140
1F40
2140
2140
2120
ENDCHAR
STARTCHAR 1FA0
ENCODING 8096
SWIDTH 822 0
DWIDTH 8 0
BBX 7 10 1 -2
BITMAP
10
10
00
84
94
92
92
FC
10
10
ENDCHAR
STARTCHAR 1FA1
ENCODING 8097
SWIDTH 822 0
DWIDTH 8 0
BBX 7 9 1 -1
BITMAP
20
00
84
94
92
92
FC
10
10
ENDCHAR
STARTCHAR 1FA2
ENCODING 8098
SWIDTH 822 0
DWIDTH 8 0
BBX 7 10 1 -2
BITMAP
20
30
00
84
94
92
92
FC
10
10
ENDCHAR
STARTCHAR 1FA3
ENCODING 8099
SWIDTH 822 0
DWIDTH 8 0
BBX 7 10 1 -2
BITMAP
40
50
00
84
94
92
92
FC
10
10
ENDCHAR
STARTCHAR 1FA4
ENCODING 8100
SWIDTH 822 0
DWIDTH 8 0
BBX 7 10 1 -2
BITMAP
20
28
00
84
94
92
92
FC
10
10
ENDCHAR
STARTCHAR 1FA5
ENCODING 8101
SWIDTH 822 0
DWIDTH 8 0
BBX 7 9 1 -1
BITMAP
50
00
84
94
92
92
FC
10
10
ENDCHAR
STARTCHAR 1FA6
ENCODING 8102
SWIDTH 822 0
DWIDTH 8 0
BBX 7 10 1 -1
BITMAP
20
10
00
84
94
92
92
FC
10
10
ENDCHAR
STARTCHAR 1FA7
ENCODING 8103
SWIDTH 822 0
DWIDTH 8 0
BBX 7 10 1 -1
BITMAP
20
20
10
84
94
92
92
FC
10
10
ENDCHAR
STARTCHAR 1FA8
ENCODING 8104
SWIDTH 1028 0
DWIDTH 10 0
BBX 10 7 0 0
BITMAP
B800
C600
4280
4280
4280
4480
6640
ENDCHAR
STARTCHAR 1FA9
ENCODING 8105
SWIDTH 1028 0
DWIDTH 10 0
BBX 10 7 0 0
BITMAP
9C00
A200
4240
4240
4240
2240
7740
ENDCHAR
STARTCHAR 1FAA
ENCODING 8106
SWIDTH 1234 0
DWIDTH 12 0
BBX 12 7 0 0
BITMAP
CF00
B880
1090
1090
1090
0890
1990
ENDCHAR
STARTCHAR 1FAB
ENCODING 8107
SWIDTH 1234 0
DWIDTH 12 0
BBX 12 7 0 0
BITMAP
CF00
B180
10A0
10A0
10A0
1120
1990
ENDCHAR
STARTCHAR 1FAC
ENCODING 8108
SWIDTH 1131 0
DWIDTH 11 0
BBX 12 7 0 0
BITMAP
AE00
D100
2120
2120
2120
1120
3BB0
ENDCHAR
STARTCHAR 1FAD
ENCODING 8109
SWIDTH 1234 0
DWIDTH 12 0
BBX 12 7 0 0
BITMAP
AE00
D100
10A0
20A0
10A0
1120
3BB0
ENDCHAR
STARTCHAR 1FAE
ENCODING 8110
SWIDTH 1131 0
DWIDTH 11 0
BBX 11 7 0 1
BITMAP
DC00
A200
2140
4140
2140
2240
7760
ENDCHAR
STARTCHAR 1FAF
ENCODING 8111
SWIDTH 1131 0
DWIDTH 11 0
BBX 11 7 0 1
BITMAP
DE00
A300
2140
2140
2140
2240
3320
ENDCHAR
STARTCHAR 1FB0
ENCODING 8112
SWIDTH 514 0
DWIDTH 5 0
BBX 6 7 0 0
BITMAP
30
00
78
48
88
48
7C
ENDCHAR
STARTCHAR 1FB1
ENCODING 8113
SWIDTH 514 0
DWIDTH 5 0
BBX 6 7 0 0
BITMAP
30
00
78
48
88
48
7C
ENDCHAR
STARTCHAR 1FB2
ENCODING 8114
SWIDTH 514 0
DWIDTH 5 0
BBX 6 9 0 -1
BITMAP
20
00
78
48
88
48
7C
00
10
ENDCHAR
STARTCHAR 1FB3
ENCODING 8115
SWIDTH 514 0
DWIDTH 5 0
BBX 6 7 0 -2
BITMAP
78
48
88
48
7C
00
10
ENDCHAR
STARTCHAR 1FB4
ENCODING 8116
SWIDTH 514 0
DWIDTH 5 0
BBX 6 9 0 -1
BITMAP
10
00
78
48
88
48
7C
00
10
ENDCHAR
STARTCHAR 1FB6
ENCODING 8118
SWIDTH 514 0
DWIDTH 5 0
BBX 6 7 0 0
BITMAP
30
00
78
48
88
48
7C
ENDCHAR
STARTCHAR 1FB7
ENCODING 8119
SWIDTH 514 0
DWIDTH 5 0
BBX 6 9 0 -2
BITMAP
30
00
78
48
88
48
7C
00
10
ENDCHAR
STARTCHAR 1FB8
ENCODING 8120
SWIDTH 617 0
DWIDTH 6 0
BBX 6 9 0 0
BITMAP
28
10
10
30
28
48
78
44
84
ENDCHAR
STARTCHAR 1FB9
ENCODING 8121
SWIDTH 617 0
DWIDTH 6 0
BBX 6 8 0 0
BITMAP
30
10
30
28
48
78
44
84
ENDCHAR
STARTCHAR 1FBA
ENCODING 8122
SWIDTH 617 0
DWIDTH 6 0
BBX 6 7 0 0
BITMAP
90
B0
28
48
78
44
84
ENDCHAR
STARTCHAR 1FBB
ENCODING 8123
SWIDTH 617 0
DWIDTH 6 0
BBX 6 7 0 0
BITMAP
50
B0
28
48
78
44
84
ENDCHAR
STARTCHAR 1FBC
ENCODING 8124
SWIDTH 925 0
DWIDTH 9 0
BBX 9 7 0 0
BITMAP
1000
3000
2900
4900
7900
4500
8580
ENDCHAR
STARTCHAR 1FBD
ENCODING 8125
SWIDTH 308 0
DWIDTH 3 0
BBX 1 1 1 7
BITMAP
80
ENDCHAR
STARTCHAR 1FBE
ENCODING 8126
SWIDTH 205 0
DWIDTH 2 0
BBX 1 2 1 -2
BITMAP
80
80
ENDCHAR
STARTCHAR 1FBF
ENCODING 8127
SWIDTH 308 0
DWIDTH 3 0
BBX 1 1 1 7
BITMAP
80
ENDCHAR
STARTCHAR 1FC0
ENCODING 8128
SWIDTH 308 0
DWIDTH 3 0
BBX 2 1 1 6
BITMAP
C0
ENDCHAR
STARTCHAR 1FC1
ENCODING 8129
SWIDTH 308 0
DWIDTH 3 0
BBX 3 2 0 6
BITMAP
60
A0
ENDCHAR
STARTCHAR 1FC2
ENCODING 8130
SWIDTH 514 0
DWIDTH 5 0
BBX 4 9 1 -1
BITMAP
40
00
E0
90
90
90
90
90
90
ENDCHAR
STARTCHAR 1FC3
ENCODING 8131
SWIDTH 514 0
DWIDTH 5 0
BBX 4 7 1 -2
BITMAP
E0
90
90
90
90
90
90
ENDCHAR
STARTCHAR 1FC4
ENCODING 8132
SWIDTH 514 0
DWIDTH 5 0
BBX 4 9 1 -1
BITMAP
60
00
E0
90
90
90
90
90
90
ENDCHAR
STARTCHAR 1FC6
ENCODING 8134
SWIDTH 514 0
DWIDTH 5 0
BBX 4 9 1 -2
BITMAP
E0
00
E0
90
90
90
90
10
10
ENDCHAR
STARTCHAR 1FC7
ENCODING 8135
SWIDTH 514 0
DWIDTH 5 0
BBX 4 9 1 -2
BITMAP
E0
00
E0
90
90
90
90
90
90
ENDCHAR
STARTCHAR 1FC8
ENCODING 8136
SWIDTH 617 0
DWIDTH 6 0
BBX 6 7 0 0
BITMAP
BC
A0
20
3C
20
20
3C
ENDCHAR
STARTCHAR 1FC9
ENCODING 8137
SWIDTH 617 0
DWIDTH 6 0
BBX 6 7 0 0
BITMAP
3C
A0
20
3C
20
20
3C
ENDCHAR
STARTCHAR 1FCA
ENCODING 8138
SWIDTH 822 0
DWIDTH 8 0
BBX 7 7 0 0
BITMAP
A2
A2
22
3E
22
22
22
ENDCHAR
STARTCHAR 1FCB
ENCODING 8139
SWIDTH 822 0
DWIDTH 8 0
BBX 7 7 0 0
BITMAP
22
A2
22
3E
22
22
22
ENDCHAR
STARTCHAR 1FCC
ENCODING 8140
SWIDTH 925 0
DWIDTH 9 0
BBX 8 7 1 0
BITMAP
88
88
89
F9
89
89
89
ENDCHAR
STARTCHAR 1FCD
ENCODING 8141
SWIDTH 308 0
DWIDTH 3 0
BBX 3 2 0 6
BITMAP
20
A0
ENDCHAR
STARTCHAR 1FCE
ENCODING 8142
SWIDTH 308 0
DWIDTH 3 0
BBX 3 1 0 7
BITMAP
A0
ENDCHAR
STARTCHAR 1FCF
ENCODING 8143
SWIDTH 308 0
DWIDTH 3 0
BBX 2 3 1 6
BITMAP
80
40
80
ENDCHAR
STARTCHAR 1FD0
ENCODING 8144
SWIDTH 205 0
DWIDTH 2 0
BBX 2 7 0 0
BITMAP
C0
00
40
40
40
40
40
ENDCHAR
STARTCHAR 1FD1
ENCODING 8145
SWIDTH 205 0
DWIDTH 2 0
BBX 3 7 0 0
BITMAP
E0
00
40
40
40
40
40
ENDCHAR
STARTCHAR 1FD2
ENCODING 8146
SWIDTH 205 0
DWIDTH 2 0
BBX 4 7 -1 1
BITMAP
B0
00
20
20
20
20
20
ENDCHAR
STARTCHAR 1FD3
ENCODING 8147
SWIDTH 205 0
DWIDTH 2 0
BBX 4 7 -1 1
BITMAP
B0
00
20
20
20
20
20
ENDCHAR
STARTCHAR 1FD6
ENCODING 8150
SWIDTH 205 0
DWIDTH 2 0
BBX 2 7 0 0
BITMAP
C0
00
40
40
40
40
40
ENDCHAR
STARTCHAR 1FD7
ENCODING 8151
SWIDTH 205 0
DWIDTH 2 0
BBX 3 8 0 0
BITMAP
E0
A0
00
40
40
40
40
40
ENDCHAR
STARTCHAR 1FD8
ENCODING 8152
SWIDTH 205 0
DWIDTH 2 0
BBX 3 9 0 0
BITMAP
A0
40
40
40
40
40
40
40
40
ENDCHAR
STARTCHAR 1FD9
ENCODING 8153
SWIDTH 205 0
DWIDTH 2 0
BBX 2 8 0 0
BITMAP
C0
40
40
40
40
40
40
40
ENDCHAR
STARTCHAR 1FDA
ENCODING 8154
SWIDTH 308 0
DWIDTH 3 0
BBX 3 7 0 0
BITMAP
A0
A0
20
20
20
20
20
ENDCHAR
STARTCHAR 1FDB
ENCODING 8155
SWIDTH 308 0
DWIDTH 3 0
BBX 3 7 0 0
BITMAP
20
A0
20
20
20
20
20
ENDCHAR
STARTCHAR 1FDD
ENCODING 8157
SWIDTH 308 0
DWIDTH 3 0
BBX 3 2 0 6
BITMAP
80
A0
ENDCHAR
STARTCHAR 1FDE
ENCODING 8158
SWIDTH 308 0
DWIDTH 3 0
BBX 3 2 0 6
BITMAP
80
A0
ENDCHAR
STARTCHAR 1FDF
ENCODING 8159
SWIDTH 308 0
DWIDTH 3 0
BBX 2 3 1 6
BITMAP
80
40
80
ENDCHAR
STARTCHAR 1FE0
ENCODING 8160
SWIDTH 514 0
DWIDTH 5 0
BBX 4 7 1 0
BITMAP
60
00
90
90
90
90
E0
ENDCHAR
STARTCHAR 1FE1
ENCODING 8161
SWIDTH 514 0
DWIDTH 5 0
BBX 4 7 1 0
BITMAP
E0
00
90
90
90
90
E0
ENDCHAR
STARTCHAR 1FE2
ENCODING 8162
SWIDTH 514 0
DWIDTH 5 0
BBX 4 7 1 1
BITMAP
D0
00
90
90
90
90
E0
ENDCHAR
STARTCHAR 1FE3
ENCODING 8163
SWIDTH 514 0
DWIDTH 5 0
BBX 4 7 1 1
BITMAP
D0
00
90
90
90
90
E0
ENDCHAR
STARTCHAR 1FE4
ENCODING 8164
SWIDTH 514 0
DWIDTH 5 0
BBX 4 9 1 -1
BITMAP
20
00
F0
90
90
90
F0
80
80
ENDCHAR
STARTCHAR 1FE5
ENCODING 8165
SWIDTH 514 0
DWIDTH 5 0
BBX 4 10 1 -2
BITMAP
40
40
00
F0
90
90
90
F0
80
80
ENDCHAR
STARTCHAR 1FE6
ENCODING 8166
SWIDTH 514 0
DWIDTH 5 0
BBX 4 7 1 0
BITMAP
E0
00
90
90
90
90
E0
ENDCHAR
STARTCHAR 1FE7
ENCODING 8167
SWIDTH 514 0
DWIDTH 5 0
BBX 4 8 1 0
BITMAP
60
A0
00
90
90
90
90
E0
ENDCHAR
STARTCHAR 1FE8
ENCODING 8168
SWIDTH 514 0
DWIDTH 5 0
BBX 6 8 0 1
BITMAP
30
84
48
50
30
20
20
20
ENDCHAR
STARTCHAR 1FE9
ENCODING 8169
SWIDTH 514 0
DWIDTH 5 0
BBX 6 8 0 0
BITMAP
30
84
48
50
30
20
20
20
ENDCHAR
STARTCHAR 1FEA
ENCODING 8170
SWIDTH 720 0
DWIDTH 7 0
BBX 7 7 0 0
BITMAP
A2
A4
14
18
08
08
08
ENDCHAR
STARTCHAR 1FEB
ENCODING 8171
SWIDTH 720 0
DWIDTH 7 0
BBX 7 7 0 0
BITMAP
22
92
14
0C
08
08
08
ENDCHAR
STARTCHAR 1FEC
ENCODING 8172
SWIDTH 617 0
DWIDTH 6 0
BBX 6 7 0 0
BITMAP
F8
C4
44
4C
70
40
40
ENDCHAR
STARTCHAR 1FED
ENCODING 8173
SWIDTH 308 0
DWIDTH 3 0
BBX 4 1 0 7
BITMAP
D0
ENDCHAR
STARTCHAR 1FEE
ENCODING 8174
SWIDTH 308 0
DWIDTH 3 0
BBX 4 1 0 7
BITMAP
D0
ENDCHAR
STARTCHAR 1FEF
ENCODING 8175
SWIDTH 308 0
DWIDTH 3 0
BBX 1 1 1 7
BITMAP
80
ENDCHAR
STARTCHAR 1FF2
ENCODING 8178
SWIDTH 822 0
DWIDTH 8 0
BBX 7 9 1 -1
BITMAP
20
00
84
94
92
92
FC
10
10
ENDCHAR
STARTCHAR 1FF3
ENCODING 8179
SWIDTH 822 0
DWIDTH 8 0
BBX 7 7 1 -2
BITMAP
84
94
92
92
FC
10
10
ENDCHAR
STARTCHAR 1FF4
ENCODING 8180
SWIDTH 822 0
DWIDTH 8 0
BBX 7 9 1 -1
BITMAP
10
00
84
94
92
92
FC
10
10
ENDCHAR
STARTCHAR 1FF6
ENCODING 8182
SWIDTH 822 0
DWIDTH 8 0
BBX 7 7 1 0
BITMAP
30
00
84
94
92
92
FC
ENDCHAR
STARTCHAR 1FF7
ENCODING 8183
SWIDTH 822 0
DWIDTH 8 0
BBX 7 9 1 -2
BITMAP
30
00
84
94
92
92
FC
10
10
ENDCHAR
STARTCHAR 1FF8
ENCODING 8184
SWIDTH 822 0
DWIDTH 8 0
BBX 8 7 0 0
BITMAP
9C
A2
21
21
21
23
1E
ENDCHAR
STARTCHAR 1FF9
ENCODING 8185
SWIDTH 822 0
DWIDTH 8 0
BBX 8 7 0 0
BITMAP
1C
A2
42
41
42
22
3C
ENDCHAR
STARTCHAR 1FFA
ENCODING 8186
SWIDTH 822 0
DWIDTH 8 0
BBX 8 7 0 0
BITMAP
9C
A2
21
21
21
22
77
ENDCHAR
STARTCHAR 1FFB
ENCODING 8187
SWIDTH 822 0
DWIDTH 8 0
BBX 8 7 0 0
BITMAP
1C
A2
42
42
42
22
77
ENDCHAR
STARTCHAR 1FFC
ENCODING 8188
SWIDTH 1028 0
DWIDTH 10 0
BBX 10 7 0 0
BITMAP
3800
4400
4280
4280
4280
4480
E640
ENDCHAR
STARTCHAR 1FFD
ENCODING 8189
SWIDTH 308 0
DWIDTH 3 0
BBX 2 1 1 7
BITMAP
C0
ENDCHAR
STARTCHAR 1FFE
ENCODING 8190
SWIDTH 308 0
DWIDTH 3 0
BBX 1 2 1 6
BITMAP
80
80
ENDCHAR
STARTCHAR 2013
ENCODING 8211
SWIDTH 411 0
DWIDTH 4 0
BBX 4 1 0 2
BITMAP
F0
ENDCHAR
STARTCHAR 2014
ENCODING 8212
SWIDTH 925 0
DWIDTH 9 0
BBX 9 1 0 2
BITMAP
FF80
ENDCHAR
STARTCHAR 2015
ENCODING 8213
SWIDTH 925 0
DWIDTH 9 0
BBX 9 1 0 2
BITMAP
FF80
ENDCHAR
STARTCHAR 2018
ENCODING 8216
SWIDTH 205 0
DWIDTH 2 0
BBX 1 2 1 5
BITMAP
80
80
ENDCHAR
STARTCHAR 2019
ENCODING 8217
SWIDTH 205 0
DWIDTH 2 0
BBX 2 2 0 5
BITMAP
40
80
ENDCHAR
STARTCHAR 201A
ENCODING 8218
SWIDTH 205 0
DWIDTH 2 0
BBX 2 2 0 -1
BITMAP
40
80
ENDCHAR
STARTCHAR 201C
ENCODING 8220
SWIDTH 411 0
DWIDTH 4 0
BBX 2 2 1 5
BITMAP
C0
C0
ENDCHAR
STARTCHAR 201D
ENCODING 8221
SWIDTH 411 0
DWIDTH 4 0
BBX 3 2 0 5
BITMAP
60
A0
ENDCHAR
STARTCHAR 201E
ENCODING 8222
SWIDTH 411 0
DWIDTH 4 0
BBX 3 2 0 -1
BITMAP
60
A0
ENDCHAR
STARTCHAR 2020
ENCODING 8224
SWIDTH 411 0
DWIDTH 4 0
BBX 4 8 0 -1
BITMAP
20
20
F0
20
20
20
20
20
ENDCHAR
STARTCHAR 2021
ENCODING 8225
SWIDTH 411 0
DWIDTH 4 0
BBX 4 8 0 -1
BITMAP
20
20
F0
20
20
F0
20
20
ENDCHAR
STARTCHAR 2022
ENCODING 8226
SWIDTH 308 0
DWIDTH 3 0
BBX 2 3 1 2
BITMAP
80
C0
C0
ENDCHAR
STARTCHAR 2026
ENCODING 8230
SWIDTH 925 0
DWIDTH 9 0
BBX 8 1 1 0
BITMAP
93
ENDCHAR
STARTCHAR 2030
ENCODING 8240
SWIDTH 1131 0
DWIDTH 11 0
BBX 11 7 0 0
BITMAP
6400
9400
9800
6800
17E0
15A0
2760
ENDCHAR
STARTCHAR 2039
ENCODING 8249
SWIDTH 205 0
DWIDTH 2 0
BBX 2 3 0 2
BITMAP
40
C0
40
ENDCHAR
STARTCHAR 203A
ENCODING 8250
SWIDTH 205 0
DWIDTH 2 0
BBX 2 4 0 1
BITMAP
80
40
40
40
ENDCHAR
STARTCHAR 2044
ENCODING 8260
SWIDTH 102 0
DWIDTH 1 0
BBX 4 7 -1 0
BITMAP
10
20
20
40
40
80
80
ENDCHAR
STARTCHAR 2070
ENCODING 8304
SWIDTH 308 0
DWIDTH 3 0
BBX 3 4 0 3
BITMAP
60
A0
A0
60
ENDCHAR
STARTCHAR 2074
ENCODING 8308
SWIDTH 308 0
DWIDTH 3 0
BBX 3 4 0 3
BITMAP
20
60
E0
20
ENDCHAR
STARTCHAR 2075
ENCODING 8309
SWIDTH 308 0
DWIDTH 3 0
BBX 3 4 0 3
BITMAP
60
80
60
E0
ENDCHAR
STARTCHAR 2076
ENCODING 8310
SWIDTH 308 0
DWIDTH 3 0
BBX 3 4 0 3
BITMAP
60
80
E0
60
ENDCHAR
STARTCHAR 2077
ENCODING 8311
SWIDTH 308 0
DWIDTH 3 0
BBX 3 4 0 3
BITMAP
E0
20
40
40
ENDCHAR
STARTCHAR 2078
ENCODING 8312
SWIDTH 308 0
DWIDTH 3 0
BBX 3 4 0 3
BITMAP
60
A0
E0
E0
ENDCHAR
STARTCHAR 2079
ENCODING 8313
SWIDTH 308 0
DWIDTH 3 0
BBX 3 4 0 3
BITMAP
60
A0
60
40
ENDCHAR
STARTCHAR 2080
ENCODING 8320
SWIDTH 308 0
DWIDTH 3 0
BBX 3 4 0 0
BITMAP
60
A0
A0
60
ENDCHAR
STARTCHAR 2081
ENCODING 8321
SWIDTH 308 0
DWIDTH 3 0
BBX 1 2 1 1
BITMAP
80
80
ENDCHAR
STARTCHAR 2082
ENCODING 8322
SWIDTH 308 0
DWIDTH 3 0
BBX 3 4 0 0
BITMAP
E0
20
40
E0
ENDCHAR
STARTCHAR 2083
ENCODING 8323
SWIDTH 308 0
DWIDTH 3 0
BBX 3 4 0 0
BITMAP
E0
20
20
E0
ENDCHAR
STARTCHAR 2084
ENCODING 8324
SWIDTH 308 0
DWIDTH 3 0
BBX 3 4 0 0
BITMAP
20
60
A0
60
ENDCHAR
STARTCHAR 2085
ENCODING 8325
SWIDTH 308 0
DWIDTH 3 0
BBX 3 4 0 0
BITMAP
60
80
60
E0
ENDCHAR
STARTCHAR 2086
ENCODING 8326
SWIDTH 308 0
DWIDTH 3 0
BBX 3 4 0 0
BITMAP
20
C0
E0
60
ENDCHAR
STARTCHAR 2087
ENCODING 8327
SWIDTH 308 0
DWIDTH 3 0
BBX 3 4 0 0
BITMAP
E0
20
40
40
ENDCHAR
STARTCHAR 2088
ENCODING 8328
SWIDTH 308 0
DWIDTH 3 0
BBX 3 4 0 0
BITMAP
60
A0
E0
E0
ENDCHAR
STARTCHAR 2089
ENCODING 8329
SWIDTH 308 0
DWIDTH 3 0
BBX 3 4 0 0
BITMAP
60
A0
60
40
ENDCHAR
STARTCHAR 20AC
ENCODING 8364
SWIDTH 514 0
DWIDTH 5 0
BBX 5 7 0 0
BITMAP
18
20
F8
40
F0
40
38
ENDCHAR
STARTCHAR 20AE
ENCODING 8366
SWIDTH 514 0
DWIDTH 5 0
BBX 5 7 0 0
BITMAP
F8
20
38
60
38
60
20
ENDCHAR
STARTCHAR 20B4
ENCODING 8372
SWIDTH 514 0
DWIDTH 5 0
BBX 5 7 0 0
BITMAP
70
08
F8
30
F8
40
78
ENDCHAR
STARTCHAR 20B9
ENCODING 8377
SWIDTH 514 0
DWIDTH 5 0
BBX 4 7 1 0
BITMAP
F0
20
F0
60
80
40
20
ENDCHAR
STARTCHAR 2113
ENCODING 8467
SWIDTH 411 0
DWIDTH 4 0
BBX 4 8 0 0
BITMAP
20
50
50
50
60
40
C0
70
ENDCHAR
STARTCHAR 2116
ENCODING 8470
SWIDTH 1028 0
DWIDTH 10 0
BBX 9 7 1 0
BITMAP
8980
CA80
CA80
A980
9800
9B80
8800
ENDCHAR
STARTCHAR 2122
ENCODING 8482
SWIDTH 720 0
DWIDTH 7 0
BBX 7 4 0 3
BITMAP
F2
5E
5E
52
ENDCHAR
STARTCHAR 2126
ENCODING 8486
SWIDTH 720 0
DWIDTH 7 0
BBX 7 7 0 0
BITMAP
38
44
42
42
42
44
E6
ENDCHAR
STARTCHAR 212E
ENCODING 8494
SWIDTH 925 0
DWIDTH 9 0
BBX 7 7 1 0
BITMAP
38
C6
82
82
FC
80
7C
ENDCHAR
STARTCHAR 2153
ENCODING 8531
SWIDTH 822 0
DWIDTH 8 0
BBX 7 7 1 0
BITMAP
88
88
90
1E
22
42
4E
ENDCHAR
STARTCHAR 2154
ENCODING 8532
SWIDTH 822 0
DWIDTH 8 0
BBX 8 7 0 0
BITMAP
E0
24
48
EF
11
11
27
ENDCHAR
STARTCHAR 2155
ENCODING 8533
SWIDTH 822 0
DWIDTH 8 0
BBX 7 7 1 0
BITMAP
88
88
90
16
28
46
4E
ENDCHAR
STARTCHAR 2156
ENCODING 8534
SWIDTH 822 0
DWIDTH 8 0
BBX 8 7 0 0
BITMAP
E2
24
48
EB
14
13
27
ENDCHAR
STARTCHAR 2157
ENCODING 8535
SWIDTH 822 0
DWIDTH 8 0
BBX 8 7 0 0
BITMAP
E0
24
28
EB
14
13
27
ENDCHAR
STARTCHAR 2158
ENCODING 8536
SWIDTH 822 0
DWIDTH 8 0
BBX 8 7 0 0
BITMAP
22
64
E8
2B
14
13
27
ENDCHAR
STARTCHAR 2159
ENCODING 8537
SWIDTH 822 0
DWIDTH 8 0
BBX 7 7 1 0
BITMAP
80
88
90
12
2C
2E
46
ENDCHAR
STARTCHAR 215A
ENCODING 8538
SWIDTH 822 0
DWIDTH 8 0
BBX 8 7 0 0
BITMAP
62
84
68
E9
16
17
23
ENDCHAR
STARTCHAR 215B
ENCODING 8539
SWIDTH 822 0
DWIDTH 8 0
BBX 7 7 1 0
BITMAP
88
88
90
16
2A
4E
4E
ENDCHAR
STARTCHAR 215C
ENCODING 8540
SWIDTH 822 0
DWIDTH 8 0
BBX 8 7 0 0
BITMAP
E0
24
28
EB
15
17
27
ENDCHAR
STARTCHAR 215D
ENCODING 8541
SWIDTH 822 0
DWIDTH 8 0
BBX 8 7 0 0
BITMAP
60
84
68
EB
15
17
27
ENDCHAR
STARTCHAR 215E
ENCODING 8542
SWIDTH 822 0
DWIDTH 8 0
BBX 8 7 0 0
BITMAP
E4
28
48
53
15
27
27
ENDCHAR
STARTCHAR 2202
ENCODING 8706
SWIDTH 514 0
DWIDTH 5 0
BBX 5 8 0 0
BITMAP
20
58
08
38
48
88
88
70
ENDCHAR
STARTCHAR 2206
ENCODING 8710
SWIDTH 617 0
DWIDTH 6 0
BBX 6 7 0 0
BITMAP
10
30
28
48
48
44
FC
ENDCHAR
STARTCHAR 220F
ENCODING 8719
SWIDTH 617 0
DWIDTH 6 0
BBX 5 8 1 -1
BITMAP
F8
88
88
88
88
88
88
88
ENDCHAR
STARTCHAR 2211
ENCODING 8721
SWIDTH 514 0
DWIDTH 5 0
BBX 5 8 0 -1
BITMAP
F8
40
40
20
20
40
40
F8
ENDCHAR
STARTCHAR 2212
ENCODING 8722
SWIDTH 514 0
DWIDTH 5 0
BBX 4 1 1 2
BITMAP
F0
ENDCHAR
STARTCHAR 2215
ENCODING 8725
SWIDTH 102 0
DWIDTH 1 0
BBX 4 7 -1 0
BITMAP
10
20
20
40
40
80
80
ENDCHAR
STARTCHAR 2219
ENCODING 8729
SWIDTH 205 0
DWIDTH 2 0
BBX 1 1 1 3
BITMAP
80
ENDCHAR
STARTCHAR 221A
ENCODING 8730
SWIDTH 514 0
DWIDTH 5 0
BBX 5 8 1 0
BITMAP
08
10
10
10
A0
A0
60
60
ENDCHAR
STARTCHAR 221E
ENCODING 8734
SWIDTH 514 0
DWIDTH 5 0
BBX 5 3 0 1
BITMAP
F8
A8
50
ENDCHAR
STARTCHAR 222B
ENCODING 8747
SWIDTH 308 0
DWIDTH 3 0
BBX 4 10 0 -2
BITMAP
10
20
40
40
40
40
40
40
40
80
ENDCHAR
STARTCHAR 2248
ENCODING 8776
SWIDTH 514 0
DWIDTH 5 0
BBX 5 4 0 1
BITMAP
68
98
48
B8
ENDCHAR
STARTCHAR 2260
ENCODING 8800
SWIDTH 514 0
DWIDTH 5 0
BBX 4 5 1 1
BITMAP
20
F0
40
F0
80
ENDCHAR
STARTCHAR 2264
ENCODING 8804
SWIDTH 514 0
DWIDTH 5 0
BBX 4 6 1 0
BITMAP
10
60
80
60
10
F0
ENDCHAR
STARTCHAR 2265
ENCODING 8805
SWIDTH 514 0
DWIDTH 5 0
BBX 4 5 1 1
BITMAP
E0
10
E0
00
F0
ENDCHAR
STARTCHAR 25CA
ENCODING 9674
SWIDTH 514 0
DWIDTH 5 0
BBX 5 7 0 0
BITMAP
20
30
50
88
48
50
20
ENDCHAR
STARTCHAR E0FF
ENCODING 57599
SWIDTH 720 0
DWIDTH 7 0
BBX 7 7 0 0
BITMAP
38
7E
DE
BE
DA
6E
3C
ENDCHAR
STARTCHAR EFFD
ENCODING 61437
SWIDTH 1645 0
DWIDTH 16 0
BBX 16 4 0 0
BITMAP
61B3
A295
A395
6BB7
ENDCHAR
STARTCHAR F000
ENCODING 61440
SWIDTH 925 0
DWIDTH 9 0
BBX 8 7 1 0
BITMAP
EF
09
09
EF
09
A9
4F
ENDCHAR
STARTCHAR F001
ENCODING 61441
SWIDTH 617 0
DWIDTH 6 0
BBX 5 8 1 0
BITMAP
40
98
80
F0
90
90
90
90
ENDCHAR
STARTCHAR F002
ENCODING 61442
SWIDTH 617 0
DWIDTH 6 0
BBX 5 8 1 0
BITMAP
40
90
90
F0
90
90
90
88
ENDCHAR
STARTCHAR F0FF
ENCODING 61695
SWIDTH 411 0
DWIDTH 4 0
BBX 4 5 0 3
BITMAP
20
D0
F0
D0
60
ENDCHAR
STARTCHAR F200
ENCODING 61952
SWIDTH 3497 0
DWIDTH 34 0
BBX 34 8 0 0
BITMAP
0000000100
04000003C0
04000405C0
9392F74AC0
9452944900
9452944800
9452944800
739E937800
ENDCHAR
STARTCHAR F506
ENCODING 62726
SWIDTH 822 0
DWIDTH 8 0
BBX 7 7 1 0
BITMAP
88
88
90
2E
22
44
44
ENDCHAR
STARTCHAR F507
ENCODING 62727
SWIDTH 822 0
DWIDTH 8 0
BBX 8 7 0 0
BITMAP
E0
24
48
EF
11
12
22
ENDCHAR
STARTCHAR F508
ENCODING 62728
SWIDTH 822 0
DWIDTH 8 0
BBX 8 7 0 0
BITMAP
E4
24
28
EF
11
12
22
ENDCHAR
STARTCHAR F509
ENCODING 62729
SWIDTH 822 0
DWIDTH 8 0
BBX 8 7 0 0
BITMAP
24
64
E8
2F
11
12
22
ENDCHAR
STARTCHAR F50A
ENCODING 62730
SWIDTH 822 0
DWIDTH 8 0
BBX 8 7 0 0
BITMAP
64
84
68
EF
11
12
22
ENDCHAR
STARTCHAR F50B
ENCODING 62731
SWIDTH 822 0
DWIDTH 8 0
BBX 8 7 0 0
BITMAP
64
84
E8
6F
11
12
22
ENDCHAR
STARTCHAR F50C
ENCODING 62732
SWIDTH 822 0
DWIDTH 8 0
BBX 7 7 1 0
BITMAP
88
88
90
16
2A
46
44
ENDCHAR
STARTCHAR F50D
ENCODING 62733
SWIDTH 822 0
DWIDTH 8 0
BBX 8 7 0 0
BITMAP
E0
24
48
EB
15
13
22
ENDCHAR
STARTCHAR F50E
ENCODING 62734
SWIDTH 822 0
DWIDTH 8 0
BBX 8 7 0 0
BITMAP
20
64
E8
2B
15
13
22
ENDCHAR
STARTCHAR F50F
ENCODING 62735
SWIDTH 822 0
DWIDTH 8 0
BBX 8 7 0 0
BITMAP
60
84
68
EB
15
13
22
ENDCHAR
STARTCHAR F510
ENCODING 62736
SWIDTH 822 0
DWIDTH 8 0
BBX 8 7 0 0
BITMAP
E4
28
48
53
15
23
22
ENDCHAR
STARTCHAR F511
ENCODING 62737
SWIDTH 822 0
DWIDTH 8 0
BBX 8 7 0 0
BITMAP
60
A4
E8
EB
15
13
22
ENDCHAR
STARTCHAR F800
ENCODING 63488
SWIDTH 514 0
DWIDTH 5 0
BBX 5 7 0 0
BITMAP
30
48
48
88
88
48
70
ENDCHAR
STARTCHAR F801
ENCODING 63489
SWIDTH 308 0
DWIDTH 3 0
BBX 3 7 0 0
BITMAP
20
E0
20
20
20
20
20
ENDCHAR
STARTCHAR F802
ENCODING 63490
SWIDTH 411 0
DWIDTH 4 0
BBX 4 7 0 0
BITMAP
70
10
10
30
60
40
F0
ENDCHAR
STARTCHAR F803
ENCODING 63491
SWIDTH 411 0
DWIDTH 4 0
BBX 4 7 0 0
BITMAP
70
10
10
70
10
10
F0
ENDCHAR
STARTCHAR F804
ENCODING 63492
SWIDTH 514 0
DWIDTH 5 0
BBX 4 7 0 0
BITMAP
10
30
50
50
90
70
10
ENDCHAR
STARTCHAR F805
ENCODING 63493
SWIDTH 411 0
DWIDTH 4 0
BBX 4 7 0 0
BITMAP
70
40
40
70
10
10
F0
ENDCHAR
STARTCHAR F806
ENCODING 63494
SWIDTH 514 0
DWIDTH 5 0
BBX 5 7 0 0
BITMAP
10
60
40
70
88
48
70
ENDCHAR
STARTCHAR F807
ENCODING 63495
SWIDTH 411 0
DWIDTH 4 0
BBX 4 7 0 0
BITMAP
F0
10
20
20
20
40
40
ENDCHAR
STARTCHAR F808
ENCODING 63496
SWIDTH 514 0
DWIDTH 5 0
BBX 5 7 0 0
BITMAP
70
48
48
70
48
88
70
ENDCHAR
STARTCHAR F809
ENCODING 63497
SWIDTH 514 0
DWIDTH 5 0
BBX 5 7 0 0
BITMAP
70
48
88
48
38
10
60
ENDCHAR
STARTCHAR F80A
ENCODING 63498
SWIDTH 308 0
DWIDTH 3 0
BBX 3 4 0 4
BITMAP
60
A0
A0
60
ENDCHAR
STARTCHAR F80B
ENCODING 63499
SWIDTH 308 0
DWIDTH 3 0
BBX 1 3 1 4
BITMAP
80
80
80
ENDCHAR
STARTCHAR F80C
ENCODING 63500
SWIDTH 308 0
DWIDTH 3 0
BBX 3 4 0 4
BITMAP
E0
20
40
E0
ENDCHAR
STARTCHAR F80D
ENCODING 63501
SWIDTH 308 0
DWIDTH 3 0
BBX 3 4 0 4
BITMAP
E0
60
20
E0
ENDCHAR
STARTCHAR F80E
ENCODING 63502
SWIDTH 308 0
DWIDTH 3 0
BBX 3 4 0 4
BITMAP
20
60
E0
20
ENDCHAR
STARTCHAR F80F
ENCODING 63503
SWIDTH 308 0
DWIDTH 3 0
BBX 3 4 0 4
BITMAP
60
40
20
E0
ENDCHAR
STARTCHAR F810
ENCODING 63504
SWIDTH 308 0
DWIDTH 3 0
BBX 3 4 0 4
BITMAP
60
C0
A0
60
ENDCHAR
STARTCHAR F811
ENCODING 63505
SWIDTH 308 0
DWIDTH 3 0
BBX 3 4 0 4
BITMAP
E0
40
40
40
ENDCHAR
STARTCHAR F812
ENCODING 63506
SWIDTH 308 0
DWIDTH 3 0
BBX 3 4 0 4
BITMAP
60
60
A0
60
ENDCHAR
STARTCHAR F813
ENCODING 63507
SWIDTH 308 0
DWIDTH 3 0
BBX 3 4 0 4
BITMAP
60
A0
60
40
ENDCHAR
STARTCHAR F814
ENCODING 63508
SWIDTH 308 0
DWIDTH 3 0
BBX 3 4 0 -1
BITMAP
40
A0
A0
E0
ENDCHAR
STARTCHAR F815
ENCODING 63509
SWIDTH 308 0
DWIDTH 3 0
BBX 1 3 1 0
BITMAP
80
80
80
ENDCHAR
STARTCHAR F816
ENCODING 63510
SWIDTH 308 0
DWIDTH 3 0
BBX 3 4 0 -1
BITMAP
40
20
40
E0
ENDCHAR
STARTCHAR F817
ENCODING 63511
SWIDTH 308 0
DWIDTH 3 0
BBX 3 4 0 -1
BITMAP
40
20
20
E0
ENDCHAR
STARTCHAR F818
ENCODING 63512
SWIDTH 308 0
DWIDTH 3 0
BBX 3 4 0 -1
BITMAP
20
60
A0
60
ENDCHAR
STARTCHAR F819
ENCODING 63513
SWIDTH 308 0
DWIDTH 3 0
BBX 3 4 0 -1
BITMAP
60
80
60
60
ENDCHAR
STARTCHAR F81A
ENCODING 63514
SWIDTH 308 0
DWIDTH 3 0
BBX 3 4 0 -1
BITMAP
20
C0
E0
E0
ENDCHAR
STARTCHAR F81B
ENCODING 63515
SWIDTH 308 0
DWIDTH 3 0
BBX 3 4 0 -1
BITMAP
E0
20
40
40
ENDCHAR
STARTCHAR F81C
ENCODING 63516
SWIDTH 308 0
DWIDTH 3 0
BBX 3 4 0 -1
BITMAP
60
A0
E0
E0
ENDCHAR
STARTCHAR F81D
ENCODING 63517
SWIDTH 308 0
DWIDTH 3 0
BBX 3 4 0 -1
BITMAP
40
A0
60
60
ENDCHAR
STARTCHAR FB00
ENCODING 64256
SWIDTH 720 0
DWIDTH 7 0
BBX 6 8 1 0
BITMAP
44
88
90
EC
90
90
90
90
ENDCHAR
STARTCHAR FB01
ENCODING 64257
SWIDTH 617 0
DWIDTH 6 0
BBX 5 8 1 0
BITMAP
40
98
80
F0
90
90
90
90
ENDCHAR
STARTCHAR FB02
ENCODING 64258
SWIDTH 617 0
DWIDTH 6 0
BBX 5 8 1 0
BITMAP
40
90
90
F0
90
90
90
88
ENDCHAR
STARTCHAR FB03
ENCODING 64259
SWIDTH 1028 0
DWIDTH 10 0
BBX 8 8 1 0
BITMAP
44
89
90
ED
91
91
91
91
ENDCHAR
STARTCHAR FB04
ENCODING 64260
SWIDTH 1028 0
DWIDTH 10 0
BBX 9 8 1 0
BITMAP
4400
8900
9100
ED00
9100
9100
9100
9080
ENDCHAR
ENDFONT
